#N canvas 444 43 611 696 12;
#X obj 80 590 outlet;
#X obj 171 501 outlet;
#X obj 281 501 outlet;
#X obj 400 538 outlet;
#X obj 50 40 inlet;
#X text 430 488 TP10;
#X text 80 506 TP9;
#X floatatom 170 200 5 0 0 0 - - -, f 5;
#X floatatom 280 200 5 0 0 0 - - -, f 5;
#X floatatom 400 200 5 0 0 0 - - -, f 5;
#X floatatom 50 201 5 0 0 0 - - -, f 5;
#X obj 50 486 s AbdeltaTP9;
#X obj 400 470 s AbdeltaTP10;
#X obj 50 100 mrpeach/routeOSC /muse/elements/delta_absolute;
#X obj 50 291 mavg;
#X obj 70 230 * 1000;
#X floatatom 50 260 5 0 0 0 - - -, f 5;
#X floatatom 50 350 5 0 0 0 - - -, f 5;
#X obj 170 291 mavg;
#X obj 190 230 * 1000;
#X floatatom 170 260 5 0 0 0 - - -, f 5;
#X floatatom 170 350 5 0 0 0 - - -, f 5;
#X obj 280 291 mavg;
#X obj 300 230 * 1000;
#X floatatom 280 260 5 0 0 0 - - -, f 5;
#X floatatom 280 350 5 0 0 0 - - -, f 5;
#X obj 400 291 mavg;
#X obj 420 220 * 1000;
#X floatatom 400 260 5 0 0 0 - - -, f 5;
#X floatatom 400 350 5 0 0 0 - - -, f 5;
#X obj 171 451 s AbdeltaAF7;
#X text 200 469 AFP7;
#X obj 50 420 spigot;
#X obj 170 420 spigot;
#X obj 280 420 spigot;
#X obj 400 419 spigot;
#X obj 450 380 r deltacomp;
#X obj 280 452 s AbdeltaAF8;
#X text 290 471 AFP8;
#X obj 480 80 unpack f;
#X floatatom 480 190 5 0 0 0 - - -, f 5;
#X obj 90 60 mrpeach/routeOSC /muse/elements/mellow;
#X obj 50 140 unpack f f f f, f 49;
#X text 30 630 promediodelta opcional;
#X text 50 0 valores absolutos PSD Delta el primero es el valor promedio
(opcional) y los siguientes son para cada sensor;
#X obj 470 260 r senPSD;
#X text 470 290 recive interfas;
#X connect 4 0 13 0;
#X connect 4 0 41 0;
#X connect 7 0 19 0;
#X connect 7 0 20 0;
#X connect 8 0 23 0;
#X connect 8 0 24 0;
#X connect 9 0 27 0;
#X connect 9 0 28 0;
#X connect 10 0 15 0;
#X connect 10 0 16 0;
#X connect 13 0 42 0;
#X connect 14 0 17 0;
#X connect 16 0 14 0;
#X connect 17 0 32 0;
#X connect 18 0 21 0;
#X connect 20 0 18 0;
#X connect 21 0 33 0;
#X connect 22 0 25 0;
#X connect 24 0 22 0;
#X connect 25 0 34 0;
#X connect 26 0 29 0;
#X connect 28 0 26 0;
#X connect 29 0 35 0;
#X connect 32 0 11 0;
#X connect 33 0 30 0;
#X connect 33 0 1 0;
#X connect 34 0 2 0;
#X connect 34 0 37 0;
#X connect 35 0 12 0;
#X connect 35 0 3 0;
#X connect 36 0 32 1;
#X connect 36 0 33 1;
#X connect 36 0 34 1;
#X connect 36 0 35 1;
#X connect 39 0 40 0;
#X connect 41 0 39 0;
#X connect 42 0 10 0;
#X connect 42 1 7 0;
#X connect 42 2 8 0;
#X connect 42 3 9 0;
#X connect 45 0 14 1;
#X connect 45 0 18 1;
#X connect 45 0 26 1;
