#N canvas 528 189 402 432 12;
#X obj 52 94 unpack f f f, f 28;
#X obj 52 142 mavg;
#X obj 150 140 mavg;
#X obj 250 140 mavg;
#X obj 250 220 * 10;
#X obj 150 190 * 10;
#X obj 150 270 line;
#X msg 150 220 \$1 20;
#X obj 50 20 inlet;
#X obj 50 390 outlet;
#X obj 150 390 outlet;
#X obj 260 390 outlet;
#X obj 50 180 * 10;
#X obj 150 30 import mrpeach;
#X obj 52 62 mrpeach/routeOSC /muse/acc;
#X floatatom 180 300 5 0 0 0 - - -, f 5;
#X floatatom 280 310 5 0 0 0 - - -, f 5;
#X obj 50 260 line;
#X msg 50 230 \$1 20;
#X floatatom 90 300 5 0 0 0 - - -, f 5;
#X obj 280 20 inlet;
#X text 50 0 datos acelerometro muse 2 mind monitor;
#X connect 0 0 1 0;
#X connect 0 1 2 0;
#X connect 0 2 3 0;
#X connect 1 0 12 0;
#X connect 2 0 5 0;
#X connect 3 0 4 0;
#X connect 4 0 11 0;
#X connect 4 0 16 0;
#X connect 5 0 7 0;
#X connect 6 0 10 0;
#X connect 6 0 15 0;
#X connect 7 0 6 0;
#X connect 8 0 14 0;
#X connect 12 0 18 0;
#X connect 14 0 0 0;
#X connect 17 0 9 0;
#X connect 17 0 19 0;
#X connect 18 0 17 0;
#X connect 20 0 1 1;
#X connect 20 0 2 1;
#X connect 20 0 3 1;
