#N canvas 145 206 794 299 12;
#X obj 30 -440 inlet;
#X obj 150 -440 inlet;
#X obj 280 -440 inlet;
#X obj 430 -440 inlet;
#N canvas 421 120 537 508 sec1 0;
#X obj 30 -10 inlet;
#X obj 30 480 outlet;
#X obj 30 20 random 5;
#X obj 28 48 sel 1 2 3 4;
#X msg 30 120 open /users/wrk/Desktop/Foley/cabeza/bb1.wav \, 1;
#X msg 30 150 open /users/wrk/Desktop/Foley/cabeza/bb2.wav \, 1;
#X msg 30 180 open /users/wrk/Desktop/Foley/cabeza/bb1.wav \, 1;
#X msg 30 210 open /users/wrk/Desktop/Foley/cabeza/bb2.wav \, 1;
#X msg 30 240 open /users/wrk/Desktop/Foley/cabeza/bb1.wav \, 1;
#X connect 0 0 2 0;
#X connect 2 0 3 0;
#X connect 3 0 4 0;
#X connect 3 1 5 0;
#X connect 3 2 6 0;
#X connect 3 3 7 0;
#X connect 3 4 8 0;
#X connect 4 0 1 0;
#X connect 5 0 1 0;
#X connect 6 0 1 0;
#X connect 7 0 1 0;
#X connect 8 0 1 0;
#X restore 30 -360 pd sec1;
#N canvas 511 100 522 455 sec2 0;
#X obj 30 -10 inlet;
#X obj 30 450 outlet;
#X obj 28 48 sel 1 2 3 4;
#X obj 30 20 random 4;
#X msg 30 120 open /users/wrk/Desktop/Foley/cabeza/bomm1.wav \, 1;
#X msg 30 180 open /users/wrk/Desktop/Foley/cabeza/bomm1.wav \, 1;
#X msg 30 240 open /users/wrk/Desktop/Foley/cabeza/bomm1.wav \, 1;
#X msg 30 150 open /users/wrk/Desktop/Foley/cabeza/bomm4.wav \, 1;
#X msg 30 210 open /users/wrk/Desktop/Foley/cabeza/bomm4.wav \, 1;
#X connect 0 0 3 0;
#X connect 2 0 4 0;
#X connect 2 1 7 0;
#X connect 2 2 5 0;
#X connect 2 3 8 0;
#X connect 2 4 6 0;
#X connect 3 0 2 0;
#X connect 4 0 1 0;
#X connect 5 0 1 0;
#X connect 6 0 1 0;
#X connect 7 0 1 0;
#X connect 8 0 1 0;
#X restore 150 -360 pd sec2;
#N canvas 511 100 491 361 sec3 0;
#X obj 30 -10 inlet;
#X obj 30 320 outlet;
#X obj 28 48 sel 1 2 3 4;
#X obj 30 20 random 4;
#X msg 30 120 open /users/wrk/Desktop/Foley/cabeza/bomm3.wav \, 1;
#X msg 30 180 open /users/wrk/Desktop/Foley/cabeza/bomm3.wav \, 1;
#X msg 30 240 open /users/wrk/Desktop/Foley/cabeza/bomm3.wav \, 1;
#X msg 30 150 open /users/wrk/Desktop/Foley/cabeza/bomm6.wav \, 1;
#X msg 30 210 open /users/wrk/Desktop/Foley/cabeza/bomm6.wav \, 1;
#X connect 0 0 3 0;
#X connect 2 0 4 0;
#X connect 2 1 7 0;
#X connect 2 2 5 0;
#X connect 2 3 8 0;
#X connect 2 4 6 0;
#X connect 3 0 2 0;
#X connect 4 0 1 0;
#X connect 5 0 1 0;
#X connect 6 0 1 0;
#X connect 7 0 1 0;
#X connect 8 0 1 0;
#X restore 280 -360 pd sec3;
#X obj 580 -440 inlet;
#X obj 30 -320 readsf~ 2, f 15;
#X obj 150 -320 readsf~ 2, f 16;
#X obj 280 -320 readsf~ 2, f 17;
#N canvas 511 100 425 508 sec4 0;
#X obj 30 -10 inlet;
#X obj 30 500 outlet;
#X obj 28 48 sel 1 2 3 4;
#X obj 30 20 random 5;
#X msg 30 120 open /users/wrk/Desktop/Foley/laterales/lat4.wav \, 1
;
#X msg 30 150 open /users/wrk/Desktop/Foley/laterales/lat5.wav \, 1
;
#X msg 30 210 open /users/wrk/Desktop/Foley/laterales/lat5.wav \, 1
;
#X msg 30 240 open /users/wrk/Desktop/Foley/laterales/lat4.wav \, 1
;
#X msg 30 180 open /users/wrk/Desktop/Foley/laterales/lat4.wav \, 1
;
#X connect 0 0 3 0;
#X connect 2 0 4 0;
#X connect 2 1 5 0;
#X connect 2 2 8 0;
#X connect 2 3 6 0;
#X connect 2 4 7 0;
#X connect 3 0 2 0;
#X connect 4 0 1 0;
#X connect 5 0 1 0;
#X connect 6 0 1 0;
#X connect 7 0 1 0;
#X connect 8 0 1 0;
#X restore 430 -360 pd sec4;
#X obj 430 -320 readsf~ 2, f 19;
#X obj 580 -320 readsf~ 2, f 15;
#N canvas 511 100 450 267 sec5 0;
#X obj 80 50 sel 1 2 3 4 5 6 7 8 9 10;
#X obj 80 20 random 10;
#X obj 30 -10 inlet;
#X msg 30 300 open /users/wrk/Desktop/Foley/5.wav \, 1;
#X msg 30 330 open /users/wrk/Desktop/Foley/7.wav \, 1;
#X msg 30 360 open /users/wrk/Desktop/Foley/5.wav \, 1;
#X msg 30 390 open /users/wrk/Desktop/Foley/6.wav \, 1;
#X msg 30 180 open /users/wrk/Desktop/Foley/t3.wav \, 1;
#X msg 30 210 open /users/wrk/Desktop/Foley/t4.wav \, 1;
#X msg 30 240 open /users/wrk/Desktop/Foley/t5.wav \, 1;
#X msg 30 270 open /users/wrk/Desktop/Foley/t6.wav \, 1;
#X msg 30 420 open /users/wrk/Desktop/Foley/6.wav \, 1;
#X obj 30 500 outlet;
#X msg 30 120 open /users/wrk/Desktop/Foley/muse/museojos.wav \, 1
;
#X msg 30 150 open /users/wrk/Desktop/Foley/muse/sonrisa.wav \, 1;
#X obj 280 20 r trppg;
#X connect 0 1 14 0;
#X connect 0 2 7 0;
#X connect 0 3 8 0;
#X connect 0 4 9 0;
#X connect 0 5 10 0;
#X connect 0 6 3 0;
#X connect 0 7 4 0;
#X connect 0 8 5 0;
#X connect 0 9 6 0;
#X connect 0 10 11 0;
#X connect 1 0 0 0;
#X connect 2 0 13 0;
#X connect 3 0 12 0;
#X connect 4 0 12 0;
#X connect 5 0 12 0;
#X connect 6 0 12 0;
#X connect 7 0 12 0;
#X connect 8 0 12 0;
#X connect 9 0 12 0;
#X connect 10 0 12 0;
#X connect 11 0 12 0;
#X connect 13 0 12 0;
#X connect 15 0 13 0;
#X restore 580 -360 pd sec5;
#X text 30 -490 modulo secuanciador sin markov;
#X obj 30 -240 outlet~;
#X obj 80 -240 outlet~;
#X obj 150 -240 outlet~;
#X obj 210 -240 outlet~;
#X obj 280 -240 outlet~;
#X obj 340 -240 outlet~;
#X obj 430 -240 outlet~;
#X obj 500 -240 outlet~;
#X obj 580 -240 outlet~;
#X obj 640 -240 outlet~;
#X text 20 -460 izquierdo;
#X text 140 -460 abajo;
#X text 270 -460 arriba;
#X text 420 -460 derecha;
#X text 570 -460 ojos cerrar;
#X obj 430 -270 *~ 2;
#X obj 500 -270 *~ 2;
#X obj 30 -280 *~ 2;
#X obj 100 -280 *~ 2;
#X obj 151 -270 *~ 3;
#X obj 221 -270 *~ 3;
#X obj 280 -270 *~ 3;
#X obj 350 -270 *~ 3;
#X connect 0 0 4 0;
#X connect 1 0 5 0;
#X connect 2 0 6 0;
#X connect 3 0 11 0;
#X connect 4 0 8 0;
#X connect 5 0 9 0;
#X connect 6 0 10 0;
#X connect 7 0 14 0;
#X connect 8 0 33 0;
#X connect 8 1 34 0;
#X connect 9 0 35 0;
#X connect 9 1 36 0;
#X connect 10 0 37 0;
#X connect 10 1 38 0;
#X connect 11 0 12 0;
#X connect 12 0 31 0;
#X connect 12 1 32 0;
#X connect 13 0 24 0;
#X connect 13 1 25 0;
#X connect 14 0 13 0;
#X connect 31 0 22 0;
#X connect 32 0 23 0;
#X connect 33 0 16 0;
#X connect 34 0 17 0;
#X connect 35 0 18 0;
#X connect 36 0 19 0;
#X connect 37 0 20 0;
#X connect 38 0 21 0;
