#N canvas 435 52 715 650 12;
#X obj 37 113 unpack f f f f f, f 61;
#X obj 37 43 inlet;
#X text 30 10 valores EEG ea de muse 2 mind monitor;
#X obj 40 380 outlet;
#X obj 149 380 outlet;
#X obj 250 380 outlet;
#X obj 350 380 outlet;
#X obj 460 380 outlet;
#X floatatom 40 160 9 0 0 0 - - -, f 9;
#X floatatom 150 160 10 0 0 0 - - -, f 10;
#X floatatom 250 160 10 0 0 0 - - -, f 10;
#X floatatom 360 160 10 0 0 0 - - -, f 10;
#X floatatom 460 160 11 0 0 0 - - -, f 11;
#X obj 37 83 mrpeach/routeOSC /muse/eeg;
#X obj 40 300 int;
#X obj 150 300 int;
#X obj 250 302 int;
#X obj 350 302 int;
#X obj 460 302 int;
#X obj 50 350 s TP9;
#X obj 160 350 s AF7, f 7;
#X obj 40 260 mavg;
#X obj 150 260 mavg;
#X obj 250 260 mavg;
#X obj 350 260 mavg;
#X obj 460 260 mavg, f 5;
#X floatatom 480 60 5 0 0 0 - - -, f 5;
#X obj 490 20 inlet;
#X obj 260 350 s AF8;
#X obj 360 350 s TP10;
#X obj 470 350 s aux;
#X obj 70 200 minmax;
#X floatatom 82 244 5 0 0 0 - - -, f 5;
#X floatatom 120 240 5 0 0 0 - - -, f 5;
#X floatatom 110 420 5 0 0 0 - - -, f 5;
#X floatatom 110 550 5 0 0 0 - - -, f 5;
#X obj 107 517 mavg 20;
#X floatatom 190 450 5 0 0 0 - - -, f 5;
#X obj 590 80 vsl 16 525 -100 100 0 0 empty empty empty 0 -9 0 10 #fcfcfc
#000000 #000000 47759 1;
#X obj 110 450 - 720;
#X obj 200 550 minmax;
#X floatatom 200 610 5 0 0 0 - - -, f 5;
#X floatatom 260 610 5 0 0 0 - - -, f 5;
#X obj 200 580 speedlim 1000;
#X obj 320 580 speedlim 1000;
#X connect 0 0 8 0;
#X connect 0 1 9 0;
#X connect 0 2 10 0;
#X connect 0 3 11 0;
#X connect 0 4 12 0;
#X connect 1 0 13 0;
#X connect 8 0 21 0;
#X connect 8 0 31 0;
#X connect 9 0 22 0;
#X connect 10 0 23 0;
#X connect 11 0 24 0;
#X connect 12 0 25 0;
#X connect 13 0 0 0;
#X connect 14 0 19 0;
#X connect 14 0 3 0;
#X connect 14 0 34 0;
#X connect 15 0 20 0;
#X connect 15 0 4 0;
#X connect 16 0 5 0;
#X connect 16 0 28 0;
#X connect 17 0 6 0;
#X connect 17 0 29 0;
#X connect 18 0 7 0;
#X connect 18 0 30 0;
#X connect 21 0 14 0;
#X connect 22 0 15 0;
#X connect 23 0 16 0;
#X connect 24 0 17 0;
#X connect 25 0 18 0;
#X connect 26 0 21 1;
#X connect 26 0 22 1;
#X connect 26 0 23 1;
#X connect 26 0 24 1;
#X connect 26 0 25 1;
#X connect 27 0 26 0;
#X connect 31 0 32 0;
#X connect 31 1 33 0;
#X connect 34 0 39 0;
#X connect 35 0 38 0;
#X connect 35 0 40 0;
#X connect 36 0 35 0;
#X connect 37 0 36 1;
#X connect 39 0 36 0;
#X connect 40 0 43 0;
#X connect 40 1 44 0;
#X connect 43 0 41 0;
#X connect 44 0 42 0;
