#N canvas 656 30 784 612 12;
#X obj 70 410 tolist;
#X obj 70 250 hsl 128 15 0 127 0 0 empty empty empty -2 -6 0 10 #c4c4fc
#000000 #000000 0 1;
#X obj 110 340 bng 25 250 50 0 snd_ajus empty empty 0 -6 0 10 #00fc04
#000000 #000000;
#X msg 80 300 bang;
#X text 120 300 clears the current contents;
#X text 160 340 output the current contents;
#X text 220 250 valores a ingrsar ej \, ritmo cardicao o rtimo cerebral
;
#X text 150 410 akamcena una lista de os valores;
#X obj 70 450 minmax;
#X floatatom 50 480 6 0 0 0 - - -, f 6;
#X floatatom 120 470 5 0 0 0 - - -, f 5;
#X text 180 450 me dice cual es el mayor y el menor valor del lños
datos ingresados;
#X text 40 20 se puede usar para ajustar rangos de un movimiento o
sensor;
#X text 40 -30 1 calcula en un tiempo determinado con dos bangs \,
se hace el movimiento o se calcula rimto X y se eslcalan a un maxlib/scale
los umbrales max y min;
#X obj 70 150 t b b;
#X obj 110 180 delay 3000;
#X obj 440 70 inlet;
#X obj 70 70 inlet;
#X obj 290 70 inlet;
#X text 330 70 inicio;
#X text 480 70 tiempo para ajustar limites;
#X obj 50 570 outlet;
#X text 170 570 max;
#X obj 110 570 outlet;
#X text 20 570 min;
#X text 110 70 ingreso de datos;
#X obj 230 530 outlet;
#X obj 160 120 bng 15 250 50 0 empty empty empty 17 7 0 10 #fcfcfc
#000000 #000000;
#X obj 114 499 - 100;
#X text 240 490 Este ajuste d esuma es poruqe tolist no logra ser efectivo
hay que ajustar el valor segun la pruebas con muse;
#X text 160 500 -------->;
#X floatatom 187 138 5 0 0 0 - - -, f 5;
#X obj 52 507 + 300;
#X floatatom 50 540 5 0 0 0 - - -, f 5;
#X floatatom 120 540 5 0 0 0 - - -, f 5;
#X obj 110 370 t b b;
#X connect 0 0 8 0;
#X connect 1 0 0 0;
#X connect 2 0 35 0;
#X connect 3 0 0 0;
#X connect 8 0 9 0;
#X connect 8 1 10 0;
#X connect 9 0 32 0;
#X connect 10 0 28 0;
#X connect 14 0 15 0;
#X connect 14 1 3 0;
#X connect 15 0 2 0;
#X connect 16 0 15 1;
#X connect 17 0 0 0;
#X connect 17 0 31 0;
#X connect 18 0 14 0;
#X connect 27 0 14 0;
#X connect 28 0 34 0;
#X connect 32 0 33 0;
#X connect 33 0 21 0;
#X connect 34 0 23 0;
#X connect 35 0 0 1;
#X connect 35 1 26 0;
