#N canvas 0 95 996 613 12;
#N canvas 65 203 1350 679 CROSIER 0;
#X obj 320 90 acelinesmart;
#X obj 20 -50 oscCrosierDMI;
#X obj 335 260 girosmart;
#N canvas 50 50 1664 640 \$0-IMgiro-acelineal 0;
#X text 25 10 IM interaccion AUDIO;
#X obj 25 125 r bx;
#X obj 70 125 r bx2;
#X obj 45 155 bng 15 250 50 0 empty empty empty 17 7 0 10 #fcfcfc #000000
#000000;
#X obj 90 155 bng 15 250 50 0 empty empty empty 17 7 0 10 #fcfcfc #000000
#000000;
#X obj 155 155 bng 15 250 50 0 empty empty empty 17 7 0 10 #fcfcfc
#000000 #000000;
#X obj 200 155 bng 15 250 50 0 empty empty empty 17 7 0 10 #fcfcfc
#000000 #000000;
#X obj 145 125 r bz;
#X obj 200 125 r bz2;
#X obj 285 155 bng 15 250 50 0 empty empty empty 17 7 0 10 #fcfcfc
#000000 #000000;
#X obj 325 155 bng 15 250 50 0 empty empty empty 17 7 0 10 #fcfcfc
#000000 #000000;
#X obj 270 125 r by;
#X obj 315 125 r by2;
#X obj 185 425 r acelby3;
#X text 25 95 giros eje X;
#X text 145 95 Giros lateral;
#X text 270 95 Giros rotacion;
#N canvas 607 261 560 418 lateral 0;
#X obj 55 55 inlet;
#X obj 220 60 inlet;
#X obj 56 91 bng 15 250 50 0 empty empty empty 17 7 0 10 #fcfcfc #000000
#000000;
#X msg 55 235 \$1 127;
#X obj 56 156 t f f;
#X obj 56 196 pipe 1000;
#X obj 161 151 bng 15 250 50 0 empty empty empty 17 7 0 10 #fcfcfc
#000000 #000000;
#X msg 115 235 \$1 0;
#X floatatom 115 154 5 0 0 0 - - -, f 5;
#X obj 220 91 bng 15 250 50 0 empty empty empty 17 7 0 10 #fcfcfc #000000
#000000;
#X msg 219 235 \$1 127;
#X obj 220 156 t f f;
#X obj 220 196 pipe 1000;
#X obj 325 151 bng 15 250 50 0 empty empty empty 17 7 0 10 #fcfcfc
#000000 #000000;
#X msg 279 235 \$1 0;
#X floatatom 279 154 5 0 0 0 - - -, f 5;
#X obj 55 120 shuffle 12 16;
#X obj 220 120 shuffle 18 21;
#X obj 280 55 metro 2000;
#X obj 280 15 tgl 15 0 empty empty empty 17 7 0 10 #fcfcfc #000000
#000000 0 1;
#X obj 100 270 r remotef1;
#X obj 55 305 noteout 1;
#X obj 219 305 noteout 1;
#X obj 355 120 s graindestroy;
#X text 360 150 envio pd destroy eje lateral;
#X connect 0 0 2 0;
#X connect 1 0 9 0;
#X connect 2 0 16 0;
#X connect 2 0 23 0;
#X connect 3 0 21 0;
#X connect 4 0 5 0;
#X connect 4 1 3 0;
#X connect 5 0 7 0;
#X connect 6 0 5 0;
#X connect 7 0 21 0;
#X connect 9 0 17 0;
#X connect 9 0 23 0;
#X connect 10 0 22 0;
#X connect 11 0 12 0;
#X connect 11 1 10 0;
#X connect 12 0 14 0;
#X connect 13 0 12 0;
#X connect 14 0 22 0;
#X connect 16 0 4 0;
#X connect 16 0 8 0;
#X connect 17 0 11 0;
#X connect 17 0 15 0;
#X connect 18 0 9 0;
#X connect 19 0 18 0;
#X connect 20 0 21 2;
#X connect 20 0 22 2;
#X restore 145 185 pd lateral;
#N canvas 755 267 620 516 ejeX 0;
#X obj 55 -20 inlet;
#X obj 225 -15 inlet;
#X obj 55 15 bng 15 250 50 0 empty empty empty 17 7 0 10 #fcfcfc #000000
#000000;
#X msg 50 230 \$1 127;
#X obj 55 80 t f f;
#X obj 55 120 pipe 1000;
#X obj 160 75 bng 15 250 50 0 empty empty empty 17 7 0 10 #fcfcfc #000000
#000000;
#X msg 110 230 \$1 0;
#X floatatom 114 78 5 0 0 0 - - -, f 5;
#X obj 219 15 bng 15 250 50 0 empty empty empty 17 7 0 10 #fcfcfc #000000
#000000;
#X msg 218 159 \$1 127;
#X obj 219 80 t f f;
#X obj 219 120 pipe 1000;
#X obj 324 75 bng 15 250 50 0 empty empty empty 17 7 0 10 #fcfcfc #000000
#000000;
#X msg 278 159 \$1 0;
#X floatatom 278 78 5 0 0 0 - - -, f 5;
#X obj 54 44 shuffle 23 27;
#X obj 219 44 shuffle 29 33;
#X obj 95 20 s delacel1;
#X obj 50 330 noteout 1;
#X obj 220 330 noteout 1;
#X obj 100 300 r remotef1;
#X obj 290 300 r remotef1;
#X floatatom 310 350 5 0 0 0 - - -, f 5;
#X obj 350 45 s grainblock;
#X connect 0 0 2 0;
#X connect 1 0 9 0;
#X connect 2 0 16 0;
#X connect 2 0 18 0;
#X connect 2 0 24 0;
#X connect 3 0 19 0;
#X connect 4 0 5 0;
#X connect 4 1 3 0;
#X connect 5 0 7 0;
#X connect 6 0 5 0;
#X connect 7 0 19 0;
#X connect 9 0 17 0;
#X connect 9 0 24 0;
#X connect 10 0 20 0;
#X connect 11 0 12 0;
#X connect 11 1 10 0;
#X connect 12 0 14 0;
#X connect 13 0 12 0;
#X connect 14 0 20 0;
#X connect 16 0 8 0;
#X connect 16 0 4 0;
#X connect 17 0 11 0;
#X connect 17 0 15 0;
#X connect 21 0 19 2;
#X connect 22 0 20 2;
#X connect 22 0 23 0;
#X restore 25 185 pd ejeX;
#N canvas 809 256 597 398 rotacion 0;
#X obj 55 55 inlet;
#X obj 220 60 inlet;
#X obj 56 91 bng 15 250 50 0 empty empty empty 17 7 0 10 #fcfcfc #000000
#000000;
#X msg 55 235 \$1 127;
#X obj 56 156 t f f;
#X obj 56 196 pipe 1000;
#X obj 161 151 bng 15 250 50 0 empty empty empty 17 7 0 10 #fcfcfc
#000000 #000000;
#X msg 115 235 \$1 0;
#X floatatom 115 154 5 0 0 0 - - -, f 5;
#X obj 220 91 bng 15 250 50 0 empty empty empty 17 7 0 10 #fcfcfc #000000
#000000;
#X msg 219 235 \$1 127;
#X obj 220 156 t f f;
#X obj 220 196 pipe 1000;
#X obj 325 151 bng 15 250 50 0 empty empty empty 17 7 0 10 #fcfcfc
#000000 #000000;
#X msg 279 235 \$1 0;
#X floatatom 279 154 5 0 0 0 - - -, f 5;
#X text 225 30 rotacion reloj;
#X obj 55 120 shuffle 36 40;
#X obj 220 120 shuffle 41 45;
#X obj 100 270 r remotef1;
#X obj 55 305 noteout 1;
#X obj 219 305 noteout 1;
#X obj 350 120 s graindodge;
#X connect 0 0 2 0;
#X connect 1 0 9 0;
#X connect 2 0 17 0;
#X connect 2 0 22 0;
#X connect 3 0 20 0;
#X connect 4 0 5 0;
#X connect 4 1 3 0;
#X connect 5 0 7 0;
#X connect 6 0 5 0;
#X connect 7 0 20 0;
#X connect 9 0 18 0;
#X connect 9 0 22 0;
#X connect 10 0 21 0;
#X connect 11 0 12 0;
#X connect 11 1 10 0;
#X connect 12 0 14 0;
#X connect 13 0 12 0;
#X connect 14 0 21 0;
#X connect 17 0 4 0;
#X connect 17 0 8 0;
#X connect 18 0 11 0;
#X connect 18 0 15 0;
#X connect 19 0 20 2;
#X connect 19 0 21 2;
#X restore 270 190 pd rotacion;
#N canvas 311 123 304 492 acelinealaudio 0;
#X obj 65 35 inlet;
#X obj 64 390 noteout;
#X obj 81 190 bng 18 250 50 0 empty empty empty 17 7 0 10 #fcfcfc #000000
#000000;
#X msg 65 345 \$1 127;
#X obj 66 266 t f f;
#X obj 66 306 pipe 1000;
#X obj 171 261 bng 15 250 50 0 empty empty empty 17 7 0 10 #fcfcfc
#000000 #000000;
#X msg 125 345 \$1 0;
#X floatatom 125 264 5 0 0 0 - - -, f 5;
#X obj 61 160 spigot;
#X msg 105 125 1;
#X msg 145 125 0;
#X obj 71 105 bng 15 250 50 0 empty empty empty 17 7 0 10 #fcfcfc #000000
#000000;
#X obj 130 35 r delacel1;
#X obj 131 60 t b b;
#X obj 66 230 shuffle 47 51;
#X obj 185 145 bng 15 250 50 0 empty empty empty 17 7 0 10 #fcfcfc
#000000 #000000;
#X text 65 10 datos acel lineal;
#X text 45 420 Gesto de Back stabbing;
#X obj 130 90 del 2000;
#X obj 180 340 r remotef1;
#X connect 0 0 9 0;
#X connect 0 0 12 0;
#X connect 2 0 15 0;
#X connect 3 0 1 0;
#X connect 4 0 5 0;
#X connect 4 1 3 0;
#X connect 5 0 7 0;
#X connect 6 0 5 0;
#X connect 7 0 1 0;
#X connect 9 0 2 0;
#X connect 9 0 15 0;
#X connect 10 0 9 1;
#X connect 10 0 16 0;
#X connect 11 0 9 1;
#X connect 13 0 14 0;
#X connect 14 0 19 0;
#X connect 14 1 10 0;
#X connect 15 0 4 0;
#X connect 15 0 8 0;
#X connect 19 0 11 0;
#X connect 20 0 1 2;
#X restore 5 490 pd acelinealaudio;
#X obj 200 455 bng 15 250 50 0 empty empty empty 17 7 0 10 #fcfcfc
#000000 #000000;
#X text 140 490 acel linieal;
#X obj 650 10 r up90;
#X obj 650 90 bng 15 250 50 0 empty empty empty 17 7 0 10 #fcfcfc #000000
#000000;
#X floatatom 645 230 5 0 0 0 - - -, f 5;
#X floatatom 645 258 5 0 0 0 - - -, f 5;
#X obj 575 465 s compu2;
#X obj 645 415 bng 15 250 50 0 empty empty empty 17 7 0 10 #fcfcfc
#000000 #000000;
#X obj 645 340 &&;
#X obj 645 390 sel 1;
#X obj 645 470 bng 15 250 50 0 empty empty empty 17 7 0 10 #fcfcfc
#000000 #000000;
#X obj 645 440 debounce 2000;
#X obj 790 440 s compu3;
#X msg 695 85 1;
#X obj 785 300 > 300;
#X obj 785 330 sel 1;
#X obj 870 440 s \$0-stop;
#X msg 770 90 0;
#X obj 770 15 r \$0-stop;
#X obj 770 120 bng 15 250 50 0 empty empty empty 17 7 0 10 #fcfcfc
#000000 #000000;
#X obj 815 55 delay 300;
#X obj 645 170 v rtuy;
#X obj 710 170 debounce 2000;
#X obj 710 210 bng 15 250 50 0 empty empty empty 17 7 0 10 #fcfcfc
#000000 #000000;
#X obj 730 210 s com1;
#X text 680 470 envia bang a 6 seg por seguridad si se actuva el sonido
de carga electrica y no de continua \, envia un bang para cerrar compuerta
de acel lineal (no mande sonido ) y reinicia el contador para volver
a cargar sonido de cero.;
#X text 795 410 envios a pd acelinealaudio;
#N canvas 495 158 450 281 giroscontinuo 0;
#X obj 30 -10 r midgx;
#X obj 290 -10 r midgy;
#X obj 155 -10 r midgz;
#X floatatom 30 65 5 0 0 0 - - -, f 5;
#X floatatom 100 65 5 0 0 0 - - -, f 5;
#X text 30 -35 Eje x+ x-;
#X floatatom 155 70 5 0 0 0 - - -, f 5;
#X floatatom 225 70 5 0 0 0 - - -, f 5;
#X floatatom 290 65 5 0 0 0 - - -, f 5;
#X floatatom 360 65 5 0 0 0 - - -, f 5;
#X text 155 -30 eje lateral;
#X text 285 -30 eje rotacion;
#N canvas 495 158 450 384 acelinealmid 0;
#X obj 60 45 hsl 128 15 0 127 0 0 empty empty empty -2 -8 0 10 #fcfcfc
#000000 #000000 0 1;
#X obj 60 295 noteout;
#X msg 60 255 68 127;
#X msg 115 250 68 0;
#X obj 60 105 change 5;
#X obj 60 135 bng 15 250 50 0 empty empty empty 17 7 0 10 #fcfcfc #000000
#000000;
#X obj 60 70 expr if ($f1 > 10 && $f1 < 128 \, 5 \, 0);
#X floatatom 60 190 5 0 0 0 - - -, f 5;
#X obj 60 160 counter 1 2;
#X obj 60 225 sel 1;
#X obj 115 210 sel 2;
#X obj 171 164 ctlout 32;
#X obj 169 128 maxlib/scale 0 127 40 127;
#X obj 65 7 inlet;
#X text 105 5 sonido Giro continuo eje x positivo;
#X connect 0 0 6 0;
#X connect 0 0 12 0;
#X connect 2 0 1 0;
#X connect 3 0 1 0;
#X connect 4 0 5 0;
#X connect 5 0 8 0;
#X connect 6 0 4 0;
#X connect 7 0 9 0;
#X connect 8 0 7 0;
#X connect 8 0 10 0;
#X connect 9 0 2 0;
#X connect 10 0 3 0;
#X connect 12 0 11 0;
#X connect 13 0 6 0;
#X connect 13 0 0 0;
#X restore 30 185 pd acelinealmid;
#X obj 30 30 unpack f f;
#X obj 155 35 unpack f f;
#X obj 290 35 unpack f f;
#N canvas 495 44 525 391 acelinealmid 0;
#X obj 60 45 hsl 128 15 0 127 0 0 empty empty empty -2 -8 0 10 #fcfcfc
#000000 #000000 0 1;
#X obj 60 310 noteout;
#X obj 60 105 change 5;
#X obj 60 135 bng 15 250 50 0 empty empty empty 17 7 0 10 #fcfcfc #000000
#000000;
#X obj 60 70 expr if ($f1 > 10 && $f1 < 128 \, 5 \, 0);
#X floatatom 60 190 5 0 0 0 - - -, f 5;
#X obj 60 160 counter 1 2;
#X obj 60 225 sel 1;
#X obj 122 191 sel 2;
#X obj 170 150 ctlout 32;
#X obj 169 128 maxlib/scale 0 127 40 127;
#X obj 60 5 inlet;
#X msg 115 260 69 0;
#X text 110 10 sonido Giro continuo eje x negativo;
#X msg 60 260 69 127;
#X connect 0 0 4 0;
#X connect 0 0 10 0;
#X connect 2 0 3 0;
#X connect 3 0 6 0;
#X connect 4 0 2 0;
#X connect 5 0 7 0;
#X connect 6 0 5 0;
#X connect 6 0 8 0;
#X connect 7 0 14 0;
#X connect 8 0 12 0;
#X connect 10 0 9 0;
#X connect 11 0 4 0;
#X connect 11 0 0 0;
#X connect 12 0 1 0;
#X connect 14 0 1 0;
#X restore 160 185 pd acelinealmid;
#X obj 30 145 spigot;
#X obj 160 150 spigot;
#X obj 80 120 r sable;
#X connect 0 0 13 0;
#X connect 1 0 15 0;
#X connect 2 0 14 0;
#X connect 3 0 17 0;
#X connect 6 0 18 0;
#X connect 13 0 3 0;
#X connect 13 1 4 0;
#X connect 14 0 6 0;
#X connect 14 1 7 0;
#X connect 15 0 8 0;
#X connect 15 1 9 0;
#X connect 17 0 12 0;
#X connect 18 0 16 0;
#X connect 19 0 17 1;
#X connect 19 0 18 1;
#X restore 15 340 pd giroscontinuo;
#X obj 645 305 > 55;
#X obj 690 305 < 65;
#X obj 650 200 + 0.5;
#X text 610 -20 recibe gesto de acelerometro VERtical hacia arriba
;
#X obj 1080 67 bng 15 250 50 0 empty empty empty 17 7 0 10 #fcfcfc
#000000 #000000;
#X floatatom 1080 162 5 0 0 0 - - -, f 5;
#X floatatom 1080 265 5 0 0 0 - - -, f 5;
#X obj 1079 387 bng 15 250 50 0 empty empty empty 17 7 0 10 #fcfcfc
#000000 #000000;
#X obj 1080 330 &&;
#X obj 1079 362 sel 1;
#X obj 1079 442 bng 15 250 50 0 empty empty empty 17 7 0 10 #fcfcfc
#000000 #000000;
#X obj 1079 412 debounce 2000;
#X msg 1125 42 1;
#X obj 1220 290 > 300;
#X obj 1220 320 sel 1;
#X msg 1200 47 0;
#X obj 1200 77 bng 15 250 50 0 empty empty empty 17 7 0 10 #fcfcfc
#000000 #000000;
#X obj 1250 20 delay 300;
#X obj 1145 107 debounce 2000;
#X obj 1145 142 bng 15 250 50 0 empty empty empty 17 7 0 10 #fcfcfc
#000000 #000000;
#X obj 1150 167 s com1;
#X text 1114 442 envia bang a 6 seg por seguridad si se actuva el sonido
de carga electrica y no de continua \, envia un bang para cerrar compuerta
de acel lineal (no mande sonido ) y reinicia el contador para volver
a cargar sonido de cero.;
#X text 1229 382 envios a pd acelinealaudio;
#X obj 1080 295 > 55;
#X obj 1125 295 < 65;
#X obj 1081 130 + 0.5;
#X obj 1080 102 v down27;
#X obj 1200 -20 r \$0-stop1;
#X obj 1304 412 s \$0-stop1;
#X obj 1144 382 delay 5000;
#N canvas 389 48 686 563 audiodown270 0;
#X text 286 9 cierre compuerta combo1;
#X obj 51 39 debounce 2000;
#X obj 51 79 bng 15 250 50 0 empty empty empty 17 7 0 10 #fcfcfc #000000
#000000;
#X obj 171 39 debounce 2000;
#X obj 171 79 bng 15 250 50 0 empty empty empty 17 7 0 10 #fcfcfc #000000
#000000;
#X obj 68 232 bng 18 250 50 0 empty empty empty 17 7 0 10 #fcfcfc #000000
#000000;
#X msg 52 387 \$1 127;
#X obj 53 308 t f f;
#X obj 53 348 pipe 1000;
#X obj 158 303 bng 15 250 50 0 empty empty empty 17 7 0 10 #fcfcfc
#000000 #000000;
#X msg 112 387 \$1 0;
#X floatatom 112 306 5 0 0 0 - - -, f 5;
#X obj 48 202 spigot;
#X msg 116 130 1;
#X msg 151 129 0;
#X obj 51 114 t b b;
#X msg 210 384 \$1 127;
#X obj 211 305 t f f;
#X obj 211 345 pipe 1000;
#X obj 316 300 bng 15 250 50 0 empty empty empty 17 7 0 10 #fcfcfc
#000000 #000000;
#X msg 270 384 \$1 0;
#X floatatom 270 303 5 0 0 0 - - -, f 5;
#X obj 231 239 bng 18 250 50 0 empty empty empty 17 7 0 10 #fcfcfc
#000000 #000000;
#X obj 211 209 spigot;
#X msg 291 149 1;
#X msg 331 149 0;
#X obj 330 105 delay 200;
#X obj 31 64 cnv 15 8 395 empty empty empty 20 12 0 14 #a11717 #404040
0;
#X obj 51 459 cnv 15 377 8 empty empty empty 20 12 0 14 #e0e0e0 #404040
0;
#X text 425 100 esta forma es la unica que funiona el mensaje cero
y un bang \, sumerl un delay de 200 ms;
#X text 366 284 esta compuerta abre para que deja pasar el bang para
acel lineal porque sino esta ejecutndo ada vez que se hace gesto repido
LINEAL;
#X obj 51 9 r compu4;
#X obj 170 15 r compu5;
#X obj 210 75 r acelby3;
#X obj 53 272 shuffle 56 56;
#X obj 211 269 shuffle 58 59;
#X obj 290 410 r remotef1;
#X obj 51 432 noteout 1;
#X obj 209 429 noteout 1;
#X obj 375 410 s destroy1;
#X obj 290 75 r closecombos;
#X obj 130 435 noteout 2;
#X obj 295 435 noteout 2;
#X text 56 469 algoritmo para lazar gesto DOWN y preparacion con aceleracion
lienal .dejar DMI 90 ยบ arribaesperar sonido y lanzar gesto rapido
arriba.;
#X connect 1 0 2 0;
#X connect 2 0 15 0;
#X connect 3 0 4 0;
#X connect 4 0 14 0;
#X connect 4 0 25 0;
#X connect 4 0 26 0;
#X connect 6 0 37 0;
#X connect 6 0 41 0;
#X connect 7 0 8 0;
#X connect 7 1 6 0;
#X connect 8 0 10 0;
#X connect 9 0 8 0;
#X connect 10 0 37 0;
#X connect 10 0 41 0;
#X connect 12 0 5 0;
#X connect 12 0 34 0;
#X connect 13 0 12 1;
#X connect 14 0 12 1;
#X connect 15 0 12 0;
#X connect 15 1 13 0;
#X connect 15 1 24 0;
#X connect 16 0 38 0;
#X connect 16 0 42 0;
#X connect 17 0 18 0;
#X connect 17 1 16 0;
#X connect 17 1 39 0;
#X connect 18 0 20 0;
#X connect 19 0 18 0;
#X connect 20 0 38 0;
#X connect 20 0 42 0;
#X connect 23 0 22 0;
#X connect 23 0 35 0;
#X connect 24 0 23 1;
#X connect 25 0 23 1;
#X connect 26 0 25 0;
#X connect 31 0 1 0;
#X connect 32 0 3 0;
#X connect 33 0 23 0;
#X connect 34 0 7 0;
#X connect 34 0 11 0;
#X connect 35 0 17 0;
#X connect 35 0 21 0;
#X connect 36 0 37 2;
#X connect 36 0 38 2;
#X connect 40 0 23 1;
#X connect 40 0 12 1;
#X restore 10 425 pd audiodown270;
#X obj 1009 437 s compu4;
#X obj 1224 412 s compu5;
#X obj 1080 -13 r down270;
#N canvas 544 141 916 632 audioup90 0;
#X text 312 -158 cierre compuerta combo1;
#X obj 77 -158 r compu2;
#X obj 77 -128 debounce 2000;
#X obj 77 -88 bng 15 250 50 0 empty empty empty 17 7 0 10 #fcfcfc #000000
#000000;
#X obj 192 -163 r compu3;
#X obj 197 -128 debounce 2000;
#X obj 197 -88 bng 15 250 50 0 empty empty empty 17 7 0 10 #fcfcfc
#000000 #000000;
#X obj 94 65 bng 18 250 50 0 empty empty empty 17 7 0 10 #fcfcfc #000000
#000000;
#X msg 78 220 \$1 127;
#X obj 79 141 t f f;
#X obj 79 181 pipe 1000;
#X obj 184 136 bng 15 250 50 0 empty empty empty 17 7 0 10 #fcfcfc
#000000 #000000;
#X msg 138 220 \$1 0;
#X floatatom 138 139 5 0 0 0 - - -, f 5;
#X obj 74 35 spigot;
#X msg 142 -37 1;
#X msg 177 -38 0;
#X obj 77 -53 t b b;
#X msg 296 215 \$1 127;
#X obj 297 136 t f f;
#X obj 402 131 bng 15 250 50 0 empty empty empty 17 7 0 10 #fcfcfc
#000000 #000000;
#X msg 356 215 \$1 0;
#X floatatom 356 134 5 0 0 0 - - -, f 5;
#X obj 240 -35 t b b b;
#X obj 317 70 bng 18 250 50 0 empty empty empty 17 7 0 10 #fcfcfc #000000
#000000;
#X obj 297 40 spigot;
#X msg 317 -18 1;
#X msg 357 -18 0;
#X obj 332 -63 delay 200;
#X obj 57 -103 cnv 15 8 395 empty empty empty 20 12 0 14 #a11717 #404040
0;
#X obj 80 320 cnv 15 377 8 empty empty empty 20 12 0 14 #e0e0e0 #404040
0;
#X text 80 330 algoritmo para lazar gesto UP y preparacion con aceleracion
lienal .dejar DMI 90 ยบ arribaesperar sonido y lanzar gesto rapido
arriba.;
#X text 412 -68 esta forma es la unica que funiona el mensaje cero
y un bang \, sumerl un delay de 200 ms;
#X text 420 120 esta compuerta abre para que deja pasar el bang para
acel lineal porque sino esta ejecutndo ada vez que se hace gesto repido
LINEAL;
#X obj 297 100 shuffle 54 55;
#X obj 210 5 bng 15 250 50 0 empty empty empty 17 7 0 10 #fcfcfc #000000
#000000;
#X obj 240 -90 r acelby3;
#X obj 79 105 shuffle 52 53;
#X obj 390 240 r remotef1;
#X obj 480 240 s destroyrain;
#X obj 335 -110 r closecombos;
#X obj 80 290 noteout 1;
#X obj 300 290 noteout 1;
#X obj 297 176 pipe 1000;
#X obj 160 290 noteout 2;
#X obj 390 290 noteout 2;
#X connect 1 0 2 0;
#X connect 2 0 3 0;
#X connect 3 0 17 0;
#X connect 4 0 5 0;
#X connect 5 0 6 0;
#X connect 6 0 16 0;
#X connect 6 0 27 0;
#X connect 6 0 28 0;
#X connect 7 0 37 0;
#X connect 8 0 41 0;
#X connect 8 0 44 0;
#X connect 9 0 10 0;
#X connect 9 1 8 0;
#X connect 10 0 12 0;
#X connect 11 0 10 0;
#X connect 12 0 41 0;
#X connect 12 0 44 0;
#X connect 14 0 7 0;
#X connect 14 0 37 0;
#X connect 15 0 14 1;
#X connect 16 0 14 1;
#X connect 17 0 14 0;
#X connect 17 1 15 0;
#X connect 17 1 26 0;
#X connect 17 1 35 0;
#X connect 18 0 42 0;
#X connect 18 0 45 0;
#X connect 19 0 43 0;
#X connect 19 1 18 0;
#X connect 19 1 39 0;
#X connect 20 0 43 0;
#X connect 21 0 42 0;
#X connect 21 0 45 0;
#X connect 23 2 25 0;
#X connect 24 0 34 0;
#X connect 25 0 24 0;
#X connect 25 0 34 0;
#X connect 26 0 25 1;
#X connect 27 0 25 1;
#X connect 28 0 27 0;
#X connect 34 0 19 0;
#X connect 34 0 22 0;
#X connect 36 0 23 0;
#X connect 37 0 9 0;
#X connect 37 0 13 0;
#X connect 38 0 41 2;
#X connect 38 0 42 2;
#X connect 38 0 44 2;
#X connect 38 0 45 2;
#X connect 40 0 14 1;
#X connect 40 0 25 1;
#X connect 43 0 21 0;
#X restore 10 455 pd audioup90;
#X obj 710 410 delay 5000;
#X obj 865 300 > 30;
#X obj 930 300 < 55;
#X obj 865 335 &&;
#X obj 865 365 sel 1;
#X obj 920 385 delay 3000;
#X obj 20 65 cnv 15 464 17 empty empty PMson\ de\ mov\ rapidos\ en\ tres\ ejes
28 4 0 14 #9a4c4c #ebe5e5 0;
#X obj 15 315 cnv 15 464 17 empty empty PMson\ de\ mov\ continuo\ de\ groscopio\ 
28 4 0 14 #9a4c4c #ebe5e5 0;
#X obj 10 400 cnv 15 464 17 empty empty PMson\ convergentes\  28 4
0 14 #9a4c4c #ebe5e5 0;
#X text 130 425 Abajo;
#X text 130 455 Arriba;
#X obj 1275 160 temperature 2000;
#X floatatom 1275 190 5 0 0 0 - - -, f 5;
#X obj 1275 250 sel 1;
#X obj 1275 285 bng 15 250 50 0 empty empty empty 17 7 0 10 #fcfcfc
#000000 #000000;
#X text 1280 100 si la cantidad de variaciones es menor que 60 reinicia
el contador a cero \, evitando que los pasos cercanos por 270 grados
activen el disparador;
#X text 1400 160 cada 2 seg renueva el conteo de cantidad de variaciones
;
#X obj 830 140 temperature 2000;
#X floatatom 830 170 4 0 0 0 - - -, f 4;
#X obj 830 230 sel 1;
#X obj 830 260 bng 15 250 50 0 empty empty empty 17 7 0 10 #fcfcfc
#000000 #000000;
#X obj 1275 220 expr if( $f1 < 14 \, 1 \, 0);
#X obj 830 200 expr if($f1 < 12 \, 1 \, 0);
#X connect 1 0 3 0;
#X connect 1 0 18 0;
#X connect 2 0 4 0;
#X connect 2 0 18 1;
#X connect 7 0 5 0;
#X connect 7 0 17 0;
#X connect 8 0 6 0;
#X connect 8 0 17 1;
#X connect 11 0 9 0;
#X connect 11 0 19 0;
#X connect 12 0 10 0;
#X connect 12 0 19 1;
#X connect 13 0 20 0;
#X connect 13 0 21 0;
#X connect 23 0 24 0;
#X connect 24 0 42 0;
#X connect 24 0 43 0;
#X connect 25 0 26 0;
#X connect 26 0 35 0;
#X connect 26 0 49 0;
#X connect 26 0 50 0;
#X connect 26 0 85 0;
#X connect 26 0 86 0;
#X connect 28 0 32 0;
#X connect 28 0 27 0;
#X connect 29 0 30 0;
#X connect 30 0 28 0;
#X connect 30 0 84 0;
#X connect 32 0 31 0;
#X connect 34 0 42 0;
#X connect 35 0 36 0;
#X connect 36 0 33 0;
#X connect 36 0 37 0;
#X connect 38 0 40 0;
#X connect 38 0 42 0;
#X connect 39 0 41 0;
#X connect 39 0 38 0;
#X connect 40 0 42 0;
#X connect 41 0 38 0;
#X connect 42 0 51 0;
#X connect 43 0 44 0;
#X connect 49 0 29 0;
#X connect 50 0 29 1;
#X connect 51 0 25 0;
#X connect 51 0 42 0;
#X connect 51 0 101 0;
#X connect 53 0 67 0;
#X connect 53 0 75 0;
#X connect 54 0 55 0;
#X connect 54 0 95 0;
#X connect 55 0 62 0;
#X connect 55 0 72 0;
#X connect 55 0 73 0;
#X connect 56 0 60 0;
#X connect 56 0 80 0;
#X connect 57 0 58 0;
#X connect 58 0 56 0;
#X connect 58 0 78 0;
#X connect 60 0 59 0;
#X connect 61 0 75 0;
#X connect 62 0 63 0;
#X connect 63 0 77 0;
#X connect 63 0 81 0;
#X connect 64 0 65 0;
#X connect 64 0 75 0;
#X connect 65 0 75 0;
#X connect 66 0 64 0;
#X connect 67 0 68 0;
#X connect 72 0 57 0;
#X connect 73 0 57 1;
#X connect 74 0 54 0;
#X connect 74 0 75 0;
#X connect 75 0 74 0;
#X connect 76 0 66 0;
#X connect 76 0 64 0;
#X connect 78 0 77 0;
#X connect 78 0 81 0;
#X connect 82 0 53 0;
#X connect 84 0 33 0;
#X connect 84 0 37 0;
#X connect 85 0 87 0;
#X connect 86 0 87 1;
#X connect 87 0 88 0;
#X connect 88 0 89 0;
#X connect 89 0 33 0;
#X connect 89 0 37 0;
#X connect 95 0 96 0;
#X connect 96 0 105 0;
#X connect 97 0 98 0;
#X connect 98 0 64 0;
#X connect 101 0 102 0;
#X connect 102 0 106 0;
#X connect 103 0 104 0;
#X connect 104 0 38 0;
#X connect 105 0 97 0;
#X connect 106 0 103 0;
#X restore 980 415 pd \$0-IMgiro-acelineal;
#X obj 20 275 acelsmart;
#N canvas 464 167 1153 631 \$0IM_acelerometro 0;
#X obj 860 20 inlet;
#X floatatom 40 250 5 0 0 0 - - -, f 5;
#X obj 30 325 hsl 74 8 0 127 0 0 empty empty empty -2 -8 0 10 #fcfcfc
#000000 #000000 0 1;
#X text 25 25 acelerometro Y;
#X text 285 25 acelerometro x;
#X obj 860 60 s up90;
#X text 855 90 envio a abstraccion IMgiro acelineal90ยบ;
#X obj 915 20 inlet;
#X obj 915 60 s down270;
#X obj 340 170 hsl 74 8 0 127 0 0 empty empty empty -2 -8 0 10 #fcfcfc
#000000 #000000 1457 1;
#X obj 20 220 int;
#X obj 15 75 r audioacely;
#X floatatom 20 115 5 0 0 0 - - -, f 5;
#X obj 285 65 r audioacelx;
#X floatatom 345 110 5 0 0 0 - - -, f 5;
#X obj 285 90 * 10;
#X obj 20 185 clip 0 127;
#X obj 20 155 maxlib/scale 30 120 0 127;
#X obj 25 390 ctlout 33 7;
#X obj 160 390 ctlout 35 7;
#X obj 580 30 r acelzmid;
#X floatatom 580 105 5 0 0 0 - - -, f 5;
#X floatatom 610 320 5 0 0 0 - - -, f 5;
#X obj 890 295 hsl 74 8 0 127 0 0 empty empty empty -2 -8 0 10 #fcfcfc
#000000 #000000 0 1;
#X obj 580 194 line;
#X obj 580 310 int;
#X obj 890 330 int;
#X obj 890 385 ctlout 31 7;
#X obj 580 480 ctlout 32 7;
#X msg 620 345 34;
#X msg 580 165 \$1 40;
#X obj 285 325 int;
#X msg 325 355 64;
#X floatatom 340 190 5 0 0 0 - - -, f 5;
#X obj 280 140 maxlib/scale -90 90 0 50;
#X text 20 420 filtro waveEvolve;
#X text 290 470 soundscape;
#X text 430 310 evolve;
#X obj 350 220 maxlib/scale -90 90 20 127;
#X obj 350 300 int;
#X obj 690 420 ctlout 35 7;
#X msg 690 350 64;
#X floatatom 400 250 5 0 0 0 - - -, f 5;
#X obj 350 280 clip 1 126;
#X text 690 460 amout Corpus canal 7;
#X obj 290 440 ctlout 34 4;
#X text 290 500 Enigma DRUM rack MIDI canla 4;
#X obj 610 240 maxlib/scale 0 127 127 0;
#X obj 20 490 ctlout 30 10;
#X msg 161 466 64;
#X obj 120 230 int;
#X floatatom 140 280 5 0 0 0 - - -, f 5;
#X obj 410 470 ctlout 31 10;
#X msg 470 430 64;
#X connect 0 0 5 0;
#X connect 2 0 18 0;
#X connect 7 0 8 0;
#X connect 9 0 33 0;
#X connect 10 0 1 0;
#X connect 10 0 18 0;
#X connect 11 0 12 0;
#X connect 12 0 17 0;
#X connect 12 0 50 0;
#X connect 13 0 15 0;
#X connect 15 0 14 0;
#X connect 15 0 34 0;
#X connect 15 0 38 0;
#X connect 16 0 10 0;
#X connect 17 0 16 0;
#X connect 20 0 21 0;
#X connect 21 0 30 0;
#X connect 21 0 47 0;
#X connect 21 0 28 0;
#X connect 21 0 52 0;
#X connect 23 0 26 0;
#X connect 24 0 25 0;
#X connect 25 0 22 0;
#X connect 26 0 27 0;
#X connect 29 0 28 0;
#X connect 30 0 24 0;
#X connect 31 0 45 0;
#X connect 32 0 45 0;
#X connect 34 0 9 0;
#X connect 34 0 31 0;
#X connect 38 0 42 0;
#X connect 38 0 43 0;
#X connect 41 0 40 0;
#X connect 43 0 39 0;
#X connect 47 0 25 0;
#X connect 47 0 40 0;
#X connect 49 0 48 0;
#X connect 50 0 51 0;
#X connect 51 0 48 0;
#X connect 53 0 52 0;
#X restore 980 385 pd \$0IM_acelerometro;
#X obj 600 315 smartouch;
#N canvas 414 108 788 634 \$0-IMteactil 0;
#X obj 60 -275 bng 15 250 50 0 empty empty empty 17 7 0 10 #fcfcfc
#000000 #000000;
#X obj 60 -170 spigot;
#X obj 60 -230 t b b;
#X msg 95 -210 1;
#X msg 60 35 \$1 127;
#X msg 120 35 \$1 0;
#X obj 124 -179 del 500;
#X msg 130 -210 0;
#X obj 90 -115 counter 1;
#X obj 60 -145 t b b;
#X obj 255 -90 sel 1;
#X obj 195 5 value \$0-r1;
#X obj 255 -15 bng 15 250 50 0 empty empty empty 17 7 0 10 #fcfcfc
#000000 #000000;
#X floatatom 75 -5 5 0 0 0 - - -, f 5;
#X floatatom 230 40 5 0 0 0 - - -, f 5;
#X msg 175 70 54 0;
#X obj 60 -87 sel 0;
#X obj 85 -55 bng 15 250 50 0 empty empty empty 17 7 0 10 #fcfcfc #000000
#000000;
#X text 20 135 envio a Sinte WAVE evolve en live;
#X text 65 -385 Control 1 touch actvar sinte;
#X obj 445 -290 bng 15 250 50 0 empty empty empty 17 7 0 10 #fcfcfc
#000000 #000000;
#X obj 445 -165 spigot;
#X obj 445 -235 t b b;
#X msg 480 -205 1;
#X msg 445 40 \$1 127;
#X msg 505 40 \$1 0;
#X obj 509 -174 del 500;
#X msg 515 -205 0;
#X obj 475 -110 counter 1;
#X obj 445 -140 t b b;
#X obj 640 -85 sel 1;
#X obj 640 -10 bng 15 250 50 0 empty empty empty 17 7 0 10 #fcfcfc
#000000 #000000;
#X floatatom 460 -2 5 0 0 0 - - -, f 5;
#X floatatom 580 33 5 0 0 0 - - -, f 5;
#X obj 445 -82 sel 0;
#X obj 470 -50 bng 15 250 50 0 empty empty empty 17 7 0 10 #fcfcfc
#000000 #000000;
#X obj 580 13 value 0-r2;
#X obj 60 -320 r parte1;
#X obj 445 -335 r parte2;
#X floatatom 130 -80 5 0 0 0 - - -, f 5;
#X floatatom 505 -80 5 0 0 0 - - -, f 5;
#X text 65 -355 CONTROLAN TEXTURAN EN SINTA WAVE TABLE;
#X obj 60 -30 expr random (40 \, 80);
#X obj 150 -320 r stopsinte1;
#X text 150 -295 recbe modulo EX2;
#X text 380 135 envio a Sinte WAVE ??? evolve en live;
#X obj 445 110 noteout 5;
#X obj 210 -190 loadbang;
#X obj 210 -155 bng 15 250 50 0 empty empty empty 17 7 0 10 #fcfcfc
#000000 #000000;
#X obj 60 105 noteout 7;
#X obj 445 -25 expr random (24 \, 54);
#X msg 315 -15 124 127;
#X msg 375 -15 123 127;
#X obj 65 -255 debounce 2000;
#X text 320 50 sfx touch;
#X obj 315 20 noteout 2;
#X connect 0 0 53 0;
#X connect 1 0 9 0;
#X connect 2 0 1 0;
#X connect 2 1 3 0;
#X connect 3 0 1 1;
#X connect 3 0 6 0;
#X connect 4 0 49 0;
#X connect 5 0 49 0;
#X connect 6 0 7 0;
#X connect 7 0 1 1;
#X connect 8 0 10 0;
#X connect 8 0 16 0;
#X connect 8 0 39 0;
#X connect 9 0 8 0;
#X connect 10 0 12 0;
#X connect 10 0 52 0;
#X connect 11 0 5 0;
#X connect 11 0 14 0;
#X connect 12 0 11 0;
#X connect 13 0 11 0;
#X connect 15 0 49 0;
#X connect 16 0 17 0;
#X connect 16 0 42 0;
#X connect 16 0 51 0;
#X connect 20 0 22 0;
#X connect 21 0 29 0;
#X connect 22 0 21 0;
#X connect 22 1 23 0;
#X connect 23 0 21 1;
#X connect 23 0 26 0;
#X connect 24 0 46 0;
#X connect 25 0 46 0;
#X connect 26 0 27 0;
#X connect 27 0 21 1;
#X connect 28 0 30 0;
#X connect 28 0 34 0;
#X connect 28 0 40 0;
#X connect 29 0 28 0;
#X connect 30 0 31 0;
#X connect 30 0 52 0;
#X connect 31 0 36 0;
#X connect 32 0 36 0;
#X connect 34 0 35 0;
#X connect 34 0 50 0;
#X connect 34 1 51 0;
#X connect 36 0 25 0;
#X connect 36 0 33 0;
#X connect 37 0 0 0;
#X connect 38 0 20 0;
#X connect 42 0 4 0;
#X connect 42 0 13 0;
#X connect 43 0 0 0;
#X connect 47 0 48 0;
#X connect 48 0 8 4;
#X connect 50 0 24 0;
#X connect 50 0 32 0;
#X connect 51 0 55 0;
#X connect 52 0 55 0;
#X connect 53 0 2 0;
#X restore 980 260 pd \$0-IMteactil;
#X obj 600 95 rotvector;
#N canvas 91 131 1153 517 \$0-IMaudiovector 0;
#X floatatom 40 110 5 0 0 0 - - -, f 5;
#X floatatom 165 140 5 0 0 0 - - -, f 5;
#X text 30 60 vector PH;
#X text 675 50 vector plano vertical;
#X obj 903 44 bng 15 250 50 0 empty empty empty 17 7 0 10 #fcfcfc #000000
#000000;
#X obj 425 250 hsl 73 8 0 127 0 0 empty empty empty -2 -8 0 10 #fcfcfc
#000000 #000000 0 1;
#X obj 40 275 hsl 73 8 0 127 0 0 empty empty empty -2 -8 0 10 #fcfcfc
#000000 #000000 3798 1;
#X obj 40 170 clip 0 127;
#X obj 40 200 int;
#X obj 420 140 clip 0 127;
#X obj 420 170 int;
#X obj 905 165 spigot;
#X obj 905 95 t b b;
#X msg 940 125 1;
#X msg 905 370 \$1 127;
#X msg 965 370 \$1 0;
#X obj 969 156 del 500;
#X msg 975 125 0;
#X obj 935 220 counter 1;
#X obj 905 190 t b b;
#X obj 1100 245 sel 1;
#X obj 1100 320 bng 15 250 50 0 empty empty empty 17 7 0 10 #fcfcfc
#000000 #000000;
#X floatatom 920 328 5 0 0 0 - - -, f 5;
#X floatatom 1040 363 5 0 0 0 - - -, f 5;
#X obj 905 248 sel 0;
#X obj 930 280 bng 15 250 50 0 empty empty empty 17 7 0 10 #fcfcfc
#000000 #000000;
#X obj 1040 343 value 0-rot;
#X obj 905 440 noteout 9;
#X floatatom 968 249 5 0 0 0 - - -, f 5;
#X msg 1020 405 38 0;
#X obj 905 305 expr random (36 \, 36);
#X obj 40 85 r vectx;
#X obj 420 50 r vectz;
#X obj 40 315 ctlout 37 9;
#X obj 40 140 maxlib/scale -1 1 0 127;
#X floatatom 40 230 5 0 0 0 - - -, f 5;
#X obj 420 110 maxlib/scale -1 1 0 127;
#X obj 221 204 hsl 73 8 0 127 0 0 empty empty empty -2 -8 0 10 #fcfcfc
#000000 #000000 5669 1;
#X obj 221 139 clip 0 127;
#X obj 221 169 int;
#X obj 221 109 maxlib/scale -1 1 0 127;
#X obj 675 75 r vecty;
#X obj 675 230 hsl 73 8 0 127 0 0 empty empty empty -2 -8 0 10 #fcfcfc
#000000 #000000 3231 1;
#X obj 675 145 clip 0 127;
#X obj 675 180 int;
#X obj 675 105 maxlib/scale -1 1 0 127;
#X obj 215 60 r vectw;
#X text 30 25 mapeador de espacializacion Binaural o multicanal;
#X text 40 345 mapeado a elevacion mono panner E4L;
#X text 100 230 cambinan datos quaternian x y w;
#X floatatom 434 214 5 0 0 0 - - -, f 5;
#X text 425 345 Mapeado azimuth de mono panner;
#X text 670 340 mapeado a Spread de E4L;
#X text 425 370 Mapeado azimuth stereo panner;
#X text 40 370 mapeado a elevacion stereo panner E4L;
#X text 865 465 Todavia no se sabe ue activa esta sinte \; que esta
espacializado;
#X obj 935 40 r SonidoEspacializado;
#X obj 425 315 ctlout 36 7;
#X obj 675 315 ctlout 38 7;
#X text 40 400 se saca porque genera errores en el sonido;
#X connect 0 0 34 0;
#X connect 4 0 12 0;
#X connect 5 0 57 0;
#X connect 7 0 8 0;
#X connect 8 0 35 0;
#X connect 9 0 10 0;
#X connect 10 0 5 0;
#X connect 10 0 50 0;
#X connect 11 0 19 0;
#X connect 12 0 11 0;
#X connect 12 1 13 0;
#X connect 13 0 11 1;
#X connect 13 0 16 0;
#X connect 14 0 27 0;
#X connect 15 0 27 0;
#X connect 16 0 17 0;
#X connect 17 0 11 1;
#X connect 18 0 20 0;
#X connect 18 0 24 0;
#X connect 18 0 28 0;
#X connect 19 0 18 0;
#X connect 20 0 21 0;
#X connect 21 0 26 0;
#X connect 22 0 26 0;
#X connect 24 0 25 0;
#X connect 24 0 30 0;
#X connect 26 0 15 0;
#X connect 26 0 23 0;
#X connect 29 0 27 0;
#X connect 30 0 14 0;
#X connect 30 0 22 0;
#X connect 31 0 0 0;
#X connect 32 0 36 0;
#X connect 34 0 7 0;
#X connect 35 0 6 0;
#X connect 36 0 9 0;
#X connect 37 0 6 0;
#X connect 38 0 39 0;
#X connect 39 0 37 0;
#X connect 40 0 38 0;
#X connect 41 0 45 0;
#X connect 42 0 58 0;
#X connect 43 0 44 0;
#X connect 44 0 42 0;
#X connect 45 0 43 0;
#X connect 46 0 40 0;
#X connect 56 0 4 0;
#X restore 980 290 pd \$0-IMaudiovector;
#X obj 20 -110 cnv 15 937 53 empty empty empty 20 12 0 14 #292929 #404040
0;
#X obj 28 -78 cnv 5 32 10 empty empty DMI\ CROSIER\ CONTROL-\ DATA
201 -16 2 34 #333333 #bfbbbb 0;
#X obj 160 -40 mluz;
#X obj 600 -50 smartouchSM2;
#X obj 575 -61 cnv 15 17 530 empty empty empty 20 12 0 14 #1a1919 #404040
0;
#X obj 20 453 cnv 15 945 16 empty empty empty 20 12 0 14 #1a1919 #404040
0;
#X obj 370 -40 mluzphone2;
#X obj 50 105 moduloEX2;
#N canvas 364 23 1076 765 \$0-IM 0;
#X obj 470 25 r audioprox1;
#X floatatom 495 60 5 0 0 0 - - -, f 5;
#X obj 175 25 r audioacely;
#X floatatom 175 55 5 0 0 0 - - -, f 5;
#X obj 470 90 sel 0;
#X floatatom 475 285 5 0 0 0 - - -, f 5;
#X msg 470 120 1;
#X msg 515 120 0;
#X floatatom 185 125 5 0 0 0 - - -, f 5;
#X obj 500 165 bng 15 250 50 0 empty empty empty 17 7 0 10 #fcfcfc
#000000 #000000;
#X obj 175 200 sel 1;
#X msg 175 255 1;
#X msg 215 255 0;
#X floatatom 175 300 5 0 0 0 - - -, f 5;
#X obj 60 30 r audiocelin;
#X floatatom 110 430 5 0 0 0 - - -, f 5;
#X obj 475 330 t b f;
#X obj 60 110 sel 1;
#X obj 60 520 bng 28 250 50 0 empty empty empty 17 7 0 10 #fcfcfc #000000
#000000;
#X obj 60 455 spigot;
#X obj 75 140 bng 22 250 50 0 empty empty empty 17 7 0 10 #fcfcfc #000000
#000000;
#X obj 60 490 debounce 500;
#X obj 60 560 shuffle 72 76;
#X msg 115 685 \$1 0;
#X msg 55 685 \$1 127;
#X obj 60 595 t f f;
#X obj 80 635 pipe 1000;
#X obj 330 25 r audioacelx;
#X floatatom 355 50 5 0 0 0 - - -, f 5;
#X obj 330 75 * 10;
#X floatatom 330 105 5 0 0 0 - - -, f 5;
#X obj 330 255 sel 1;
#X msg 330 290 1;
#X msg 370 290 0;
#X floatatom 330 325 5 0 0 0 - - -, f 5;
#X obj 180 400 expr if($f1 == 1 && $f2 == 1 && $f3 ==1 \, 1 \, 0);
#X obj 330 355 t b f;
#X text 175 575 condicional para que la proximidad y el angulo acelerometro
\; y inclinacion acelerometro abran la compuerta para dejar pasar
el bang \; de aceeracion lineal;
#X text 175 435 IM multimodalconformado por 3 IM;
#X text 175 460 1 ivlinacion de acelerometro eje Y \; 2 orientacion
acelerometro eje X (positivos ladao izquierdo) 3 proximidad activada
;
#X text 180 5 IM GESTO RAPIDO INCLINADO HACIA ABAJO lado DERECHO;
#X obj 695 390 expr if($f1 == 1 && $f2 == 1 && $f3 ==1 \, 1 \, 0);
#X obj 330 195 &&;
#X obj 375 165 t b f;
#X floatatom 330 225 5 0 0 0 - - -, f 5;
#X obj 745 40 * 10;
#X floatatom 745 70 5 0 0 0 - - -, f 5;
#X obj 745 220 sel 1;
#X msg 745 255 1;
#X msg 785 255 0;
#X floatatom 745 290 5 0 0 0 - - -, f 5;
#X obj 745 320 t b f;
#X obj 745 160 &&;
#X obj 790 130 t b f;
#X floatatom 745 190 5 0 0 0 - - -, f 5;
#X floatatom 682 138 5 0 0 0 - - -, f 5;
#X floatatom 862 140 5 0 0 0 - - -, f 5;
#X floatatom 695 430 5 0 0 0 - - -, f 5;
#X obj 645 525 bng 28 250 50 0 empty empty empty 17 7 0 10 #fcfcfc
#000000 #000000;
#X obj 645 460 spigot;
#X obj 645 495 debounce 500;
#X obj 635 40 r audiocelin;
#X obj 635 115 sel 1;
#X obj 650 145 bng 22 250 50 0 empty empty empty 17 7 0 10 #fcfcfc
#000000 #000000;
#X obj 645 565 shuffle 77 81;
#X msg 700 695 \$1 0;
#X msg 640 695 \$1 127;
#X obj 645 605 t f f;
#X obj 665 645 pipe 1000;
#X obj 375 135 > 35;
#X obj 745 100 < -40;
#X obj 790 100 > -100;
#X obj 330 135 < 90;
#X obj 175 95 < 40;
#X obj 55 715 noteout 1;
#X obj 640 725 noteout 1;
#X connect 0 0 1 0;
#X connect 0 0 4 0;
#X connect 0 0 9 0;
#X connect 2 0 3 0;
#X connect 3 0 73 0;
#X connect 4 0 6 0;
#X connect 4 0 9 0;
#X connect 4 1 7 0;
#X connect 5 0 16 0;
#X connect 6 0 5 0;
#X connect 7 0 5 0;
#X connect 10 0 11 0;
#X connect 10 1 12 0;
#X connect 11 0 13 0;
#X connect 12 0 13 0;
#X connect 13 0 35 0;
#X connect 13 0 41 0;
#X connect 14 0 17 0;
#X connect 15 0 19 1;
#X connect 16 0 35 0;
#X connect 16 0 41 0;
#X connect 16 1 35 2;
#X connect 16 1 41 2;
#X connect 17 0 19 0;
#X connect 17 0 20 0;
#X connect 18 0 22 0;
#X connect 19 0 21 0;
#X connect 21 0 18 0;
#X connect 22 0 25 0;
#X connect 23 0 74 0;
#X connect 24 0 74 0;
#X connect 25 0 26 0;
#X connect 25 1 24 0;
#X connect 26 0 23 0;
#X connect 27 0 28 0;
#X connect 27 0 29 0;
#X connect 27 0 45 0;
#X connect 29 0 30 0;
#X connect 30 0 69 0;
#X connect 30 0 72 0;
#X connect 31 0 32 0;
#X connect 31 1 33 0;
#X connect 32 0 34 0;
#X connect 33 0 34 0;
#X connect 34 0 36 0;
#X connect 35 0 15 0;
#X connect 36 0 35 0;
#X connect 36 1 35 1;
#X connect 41 0 57 0;
#X connect 42 0 44 0;
#X connect 43 0 42 0;
#X connect 43 1 42 1;
#X connect 44 0 31 0;
#X connect 45 0 46 0;
#X connect 46 0 70 0;
#X connect 46 0 71 0;
#X connect 47 0 48 0;
#X connect 47 1 49 0;
#X connect 48 0 50 0;
#X connect 49 0 50 0;
#X connect 50 0 51 0;
#X connect 51 0 41 0;
#X connect 51 1 41 1;
#X connect 52 0 54 0;
#X connect 53 0 52 0;
#X connect 53 1 52 1;
#X connect 54 0 47 0;
#X connect 57 0 59 1;
#X connect 58 0 64 0;
#X connect 59 0 60 0;
#X connect 60 0 58 0;
#X connect 61 0 62 0;
#X connect 62 0 63 0;
#X connect 62 0 59 0;
#X connect 64 0 67 0;
#X connect 65 0 75 0;
#X connect 66 0 75 0;
#X connect 67 0 68 0;
#X connect 67 1 66 0;
#X connect 68 0 65 0;
#X connect 69 0 43 0;
#X connect 70 0 52 0;
#X connect 70 0 55 0;
#X connect 71 0 53 0;
#X connect 71 0 56 0;
#X connect 72 0 42 0;
#X connect 73 0 8 0;
#X connect 73 0 10 0;
#X restore 980 320 pd \$0-IM luzproxacel;
#X obj 970 190 s sable;
#X text 1085 130 buscar sonidos para inclinacion rapida \, derecha
abajo \; Hacer algorimos para diagonal arriba y gesto rapido;
#X text 1100 170 hacer algorimos de spacializacion 3D;
#N canvas 624 231 666 556 \$0-EX2modulo 0;
#X obj 65 20 r frefrecout;
#X floatatom 65 55 5 0 0 0 - - -, f 5;
#X floatatom 160 55 5 0 0 0 - - -, f 5;
#X obj 160 20 r frefrecout1;
#X obj 65 240 noteout 9;
#X msg 65 165 \$1 127;
#X obj 65 85 t f f;
#X msg 125 165 \$1 0;
#X floatatom 175 165 5 0 0 0 - - -, f 5;
#X obj 65 115 pipe 4000;
#X text 60 0 ENVIO nota a alive de frezze midi de oschook;
#X obj 310 45 r audiofrechook;
#X obj 309 156 bng 15 250 50 0 empty empty empty 17 7 0 10 #fcfcfc
#000000 #000000;
#X obj 515 195 bng 15 250 50 0 empty empty empty 17 7 0 10 #fcfcfc
#000000 #000000;
#X obj 515 15 r audiopreshook;
#X obj 315 375 noteout 1;
#X msg 314 306 85 127;
#X msg 370 305 85 0;
#X msg 525 305 86 127;
#X msg 585 305 86 0;
#X msg 410 305 84 127;
#X msg 460 305 84 0;
#X floatatom 409 186 5 0 0 0 - - -, f 5;
#X obj 309 186 random 2;
#X obj 309 211 sel 1;
#X obj 309 241 t b b;
#X obj 329 271 del 2000;
#X obj 389 241 t b b;
#X obj 409 271 del 2000;
#X obj 517 223 t b b;
#X obj 537 253 del 2000;
#X obj 515 165 spigot;
#X obj 540 35 r presblock;
#X msg 540 105 0;
#X obj 540 70 t b b;
#X obj 576 105 del 3000;
#X msg 580 135 1;
#X obj 600 180 bng 15 250 50 0 empty empty empty 17 7 0 10 #fcfcfc
#000000 #000000;
#X floatatom 555 200 5 0 0 0 - - -, f 5;
#X text 50 270 no tiene sonido ideas se espean;
#X text 315 400 Dispara sonido de RACK canal 1 live;
#X connect 0 0 1 0;
#X connect 1 0 6 0;
#X connect 3 0 2 0;
#X connect 5 0 4 0;
#X connect 6 0 9 0;
#X connect 6 1 5 0;
#X connect 7 0 4 0;
#X connect 9 0 7 0;
#X connect 9 0 8 0;
#X connect 11 0 12 0;
#X connect 12 0 23 0;
#X connect 13 0 29 0;
#X connect 14 0 31 0;
#X connect 16 0 15 0;
#X connect 17 0 15 0;
#X connect 18 0 15 0;
#X connect 19 0 15 0;
#X connect 20 0 15 0;
#X connect 21 0 15 0;
#X connect 23 0 22 0;
#X connect 23 0 24 0;
#X connect 24 0 25 0;
#X connect 24 1 27 0;
#X connect 25 0 26 0;
#X connect 25 1 16 0;
#X connect 26 0 17 0;
#X connect 27 0 28 0;
#X connect 27 1 20 0;
#X connect 28 0 21 0;
#X connect 29 0 30 0;
#X connect 29 1 18 0;
#X connect 30 0 19 0;
#X connect 31 0 13 0;
#X connect 32 0 34 0;
#X connect 33 0 31 1;
#X connect 33 0 38 0;
#X connect 34 0 35 0;
#X connect 34 1 33 0;
#X connect 35 0 36 0;
#X connect 35 0 37 0;
#X connect 36 0 31 1;
#X connect 36 0 38 0;
#X restore 980 355 pd \$0-EX2modulo;
#X obj 1100 -50 s SonidoEspacializado;
#X obj 870 -50 cnv 15 89 496 empty empty empty 20 12 0 14 #e0e0e0 #404040
0;
#X obj 880 175 tgl 15 0 empty empty Snd\ Giro 17 7 1 9 #fcfcfc #000000
#000000 0 1;
#X obj 877 47 tgl 15 0 empty empty 4\ speakers 21 7 0 8 #fcfcfc #000000
#000000 0 1;
#X obj 875 -40 tgl 15 0 empty empty Phone\ 2\ ACT 25 7 1 9 #fcfcfc
#000000 #000000 0 1;
#X obj 877 69 tgl 15 0 empty empty Binaural 24 6 0 8 #fcfcfc #000000
#000000 0 1;
#X obj 877 89 tgl 15 0 empty empty EX2\ on/off 23 7 0 8 #fcfcfc #000000
#000000 0 1;
#X obj 877 110 tgl 15 0 empty empty VRot.on/off 20 6 0 8 #fcfcfc #000000
#000000 0 1;
#X obj 875 195 cnv 15 81 250 empty empty empty 20 12 0 14 #1c1c1c #404040
0;
#X obj 905 200 tgl 17 0 empty empty OSC\ send -8 26 0 8 #fcfcfc #000000
#ffffff 0 1;
#X obj 905 240 tgl 17 0 empty empty DMX\ send -8 26 0 8 #fcfcfc #000000
#ffffff 0 1;
#N canvas 1060 360 450 284 Funcselector 0;
#X obj 55 160 s remotef1;
#X obj 55 125 r func;
#X text 45 100 Envio cambio de canal midi a LIVE;
#X connect 1 0 0 0;
#X restore 1100 -100 pd Funcselector;
#N canvas 722 195 312 247 soundtest 0;
#X obj 54 58 sel 0 1;
#X obj 55 20 r testaudio;
#X obj 175 95 bng 15 250 50 0 empty empty empty 17 7 0 10 #fcfcfc #000000
#000000;
#X msg 54 108 126 127;
#X msg 124 108 126 0;
#X obj 55 200 noteout 2;
#X connect 0 0 4 0;
#X connect 0 0 2 0;
#X connect 0 1 3 0;
#X connect 1 0 0 0;
#X connect 3 0 5 0;
#X connect 4 0 5 0;
#X restore 1100 -75 pd soundtest;
#X text 1100 260 --->phone 1 tactil;
#X text 1130 290 ---> IM espacializacion;
#X text 1135 320 ---> multimodales 3 IM;
#X text 1120 355 ---> IM acustios;
#X obj 880 415 vradio 13 0 0 2 testaudio empty Test\ Audio 20 9 2 11
#fcfcfc #000000 #1f9eff 1;
#X obj 905 10 nbx 2 14 0 10 0 0 empty func empty 0 -8 0 10 #fcfcfc
#000000 #000000 3 256 1;
#X obj 885 -10 hradio 12 0 0 5 func empty FUNC\ set 7 -10 0 10 #fcfcfc
#000000 #000000 3;
#X obj 970 -115 loadbang;
#X obj 877 131 bng 15 250 50 0 birds1 empty BIRDS 17 7 0 10 #fcfcfc
#000000 #000000;
#X obj 907 280 tgl 15 0 raintoggle empty Close\ Comb -21 22 1 10 #fcfcfc
#000000 #fffafa 0 1;
#X obj 925 275 nbx 1 19 -1e+37 1e+37 0 0 empty empty empty 0 -8 0 10
#0a0a0a #6daddf #000000 0 256 3;
#N canvas 0 114 1792 550 IMdestroy 0;
#X obj 50 80 r graindestroy;
#X obj 50 370 ctlout 38 9;
#X obj 340 330 hsl 128 15 0 127 0 0 empty empty empty -2 -8 0 10 #fcfcfc
#000000 #000000 0 1;
#X obj 50 180 t b b;
#X msg 100 260 0;
#X obj 90 140 bng 15 250 50 0 empty empty empty 17 7 0 10 #fcfcfc #000000
#000000;
#X msg 100 300 30;
#X obj 340 370 ctlout 39 9;
#X obj 350 160 t b b;
#X obj 340 295 line;
#X msg 340 235 127 100;
#X obj 380 120 bng 15 250 50 0 empty empty empty 17 7 0 10 #fcfcfc
#000000 #000000;
#X msg 50 260 80;
#X obj 100 100 loadbang;
#X obj 610 80 r grainblock;
#X obj 350 80 r graindodge;
#X obj 610 330 hsl 128 15 0 127 0 0 empty empty empty -2 -8 0 10 #fcfcfc
#000000 #000000 0 1;
#X obj 612 172 t b b;
#X obj 604 277 line;
#X msg 602 247 127 100;
#X msg 677 247 0 200;
#X obj 707 177 bng 15 250 50 0 empty empty empty 17 7 0 10 #fcfcfc
#000000 #000000;
#X obj 610 390 ctlout 38 10;
#X obj 740 380 ctlout 39 10;
#X msg 740 290 65;
#X obj 745 145 bng 15 250 50 0 empty empty empty 17 7 0 10 #fcfcfc
#000000 #000000;
#X obj 660 209 del 4000;
#X obj 1200 100 r destroy1;
#X obj 1225 155 bng 15 250 50 0 empty empty empty 17 7 0 10 #fcfcfc
#000000 #000000;
#X floatatom 975 160 5 0 0 0 - - -, f 5;
#X obj 980 110 key;
#X obj 975 195 sel 117;
#X obj 975 230 bng 15 250 50 0 empty empty empty 17 7 0 10 #fcfcfc
#000000 #000000;
#X obj 1200 240 spigot;
#X msg 1240 215 1;
#X msg 1275 215 0;
#X obj 1310 100 loadbang;
#X obj 900 110 r birds1;
#X text 870 50 activa sonido pajaros live;
#X text 1200 50 actica sonidos bandada pajaros;
#X obj 1480 50 r destroyrain;
#X obj 1480 230 spigot;
#X obj 1565 105 r raintoggle;
#X obj 398 197 del 400;
#X obj 50 210 del 5000;
#X msg 415 235 0 1500;
#X obj 1500 90 bng 15 250 50 0 empty empty empty 17 7 0 10 #fcfcfc
#000000 #000000;
#X text 110 140 test;
#X text 50 430 Grains dry/wet;
#X text 610 50 interaccion Pmson EJE x;
#X text 20 50 interaccion Pmsonlateral EJE lateral Y;
#X text 610 450 Grain Dry/wet;
#X text 610 420 TRACK LIVE No 5;
#X text 50 400 TRACK live No4;
#X text 350 50 interaccion Pmson EJE Rotacion;
#X text 400 120 test;
#X text 340 400 TRACK live No4;
#X text 340 430 mix Enigma plugin;
#X obj 840 50 cnv 15 8 426 empty empty empty 20 12 0 14 #e0e0e0 #404040
0;
#X obj 899 278 sel 0 1;
#X obj 900 420 noteout 4;
#X obj 900 220 tgl 15 0 empty empty empty 17 7 0 10 #fcfcfc #000000
#000000 0 1;
#X msg 899 328 124 127;
#X msg 969 328 124 0;
#X text 1010 110 letr u;
#X text 900 450 Dispara SAmples DrumRack;
#X text 900 470 modo GATE;
#X floatatom 910 250 5 0 0 0 - - -, f 5;
#X obj 1050 250 sel 0;
#X obj 1050 280 bng 15 250 50 0 empty empty empty 17 7 0 10 #fcfcfc
#000000 #000000;
#X obj 1100 250 sel 1;
#X obj 1100 280 bng 15 250 50 0 empty empty empty 17 7 0 10 #fcfcfc
#000000 #000000;
#X msg 1200 370 124 127;
#X msg 1270 370 124 0;
#X obj 1201 442 noteout 5;
#X obj 1200 300 t b b;
#X obj 1260 330 del 100;
#X text 1200 470 dispara bandada pajaros;
#X text 1200 490 apaga paisaje sonoro pajaros;
#X text 1200 80 de down 270;
#X obj 1430 50 cnv 15 8 426 empty empty empty 20 12 0 14 #e0e0e0 #404040
0;
#X msg 1480 330 125 127;
#X msg 1550 330 125 0;
#X obj 1481 422 noteout 5;
#X obj 1530 140 r compu2;
#X msg 1530 200 1;
#X msg 1580 200 0;
#X obj 1480 270 t b b;
#X obj 1550 290 delay 8000;
#X connect 0 0 3 0;
#X connect 2 0 7 0;
#X connect 3 0 44 0;
#X connect 3 1 12 0;
#X connect 4 0 1 0;
#X connect 5 0 3 0;
#X connect 6 0 1 0;
#X connect 8 0 43 0;
#X connect 8 1 10 0;
#X connect 9 0 2 0;
#X connect 10 0 9 0;
#X connect 11 0 8 0;
#X connect 12 0 1 0;
#X connect 13 0 4 0;
#X connect 13 0 45 0;
#X connect 14 0 17 0;
#X connect 15 0 8 0;
#X connect 16 0 22 0;
#X connect 17 0 26 0;
#X connect 17 1 19 0;
#X connect 18 0 16 0;
#X connect 18 0 23 0;
#X connect 19 0 18 0;
#X connect 20 0 18 0;
#X connect 21 0 17 0;
#X connect 24 0 23 0;
#X connect 25 0 17 0;
#X connect 26 0 20 0;
#X connect 27 0 28 0;
#X connect 27 0 33 0;
#X connect 29 0 31 0;
#X connect 30 0 29 0;
#X connect 31 0 32 0;
#X connect 31 0 61 0;
#X connect 33 0 75 0;
#X connect 34 0 33 1;
#X connect 35 0 33 1;
#X connect 36 0 35 0;
#X connect 36 0 86 0;
#X connect 37 0 61 0;
#X connect 40 0 46 0;
#X connect 40 0 41 0;
#X connect 41 0 87 0;
#X connect 43 0 45 0;
#X connect 44 0 4 0;
#X connect 45 0 9 0;
#X connect 59 0 63 0;
#X connect 59 1 62 0;
#X connect 61 0 59 0;
#X connect 61 0 67 0;
#X connect 61 0 68 0;
#X connect 61 0 70 0;
#X connect 62 0 60 0;
#X connect 63 0 60 0;
#X connect 68 0 69 0;
#X connect 69 0 35 0;
#X connect 70 0 71 0;
#X connect 71 0 34 0;
#X connect 72 0 74 0;
#X connect 73 0 74 0;
#X connect 75 0 76 0;
#X connect 75 1 72 0;
#X connect 76 0 61 0;
#X connect 81 0 83 0;
#X connect 82 0 83 0;
#X connect 84 0 85 0;
#X connect 85 0 41 1;
#X connect 86 0 41 1;
#X connect 87 0 88 0;
#X connect 87 1 81 0;
#X connect 88 0 82 0;
#X connect 88 0 86 0;
#X restore 1100 -20 pd IMdestroy;
#N canvas 709 511 450 321 OSCfromi7 0;
#X obj 60 20 import mrpeach;
#X obj 60 60 udpreceive 8079;
#X obj 60 110 unpackOSC;
#X floatatom 60 200 5 0 0 0 - - -, f 5;
#X obj 60 240 outlet;
#X obj 60 150 routeOSC /i7sec1;
#X connect 1 0 2 0;
#X connect 2 0 5 0;
#X connect 3 0 4 0;
#X connect 5 0 3 0;
#X restore 980 80 pd OSCfromi7;
#N canvas 479 395 450 315 OSCtomaci7 0;
#X obj 60 20 import mrpeach;
#X obj 60 60 inlet;
#X msg 140 100 disconnect;
#X obj 150 70 inlet;
#X obj 60 240 sendOSC;
#X obj 310 60 inlet;
#X msg 60 190 connect 192.168.1.103 4050;
#X text 260 110 ip del MAC i7;
#X msg 310 150 send /i9pm1 \$1;
#X obj 140 130 t b b;
#X floatatom 380 90 5 0 0 0 - - -, f 5;
#X connect 1 0 6 0;
#X connect 2 0 9 0;
#X connect 3 0 2 0;
#X connect 5 0 8 0;
#X connect 6 0 4 0;
#X connect 8 0 4 0;
#X connect 9 1 4 0;
#X connect 10 0 8 0;
#X restore 980 51 pd OSCtomaci7;
#X text 1070 80 --> recibe deMACi7;
#X text 1080 50 --> envia a MAC i7;
#X msg 970 -85 2;
#X connect 1 0 12 0;
#X connect 1 0 8 0;
#X connect 1 0 0 0;
#X connect 1 0 4 0;
#X connect 1 0 2 0;
#X connect 1 0 6 0;
#X connect 1 1 17 0;
#X connect 1 1 13 0;
#X connect 25 0 19 0;
#X connect 42 0 41 0;
#X connect 43 0 52 0;
#X connect 45 0 46 0;
#X connect 52 0 42 0;
#X coords 0 -1 1 1 951 585 1 14 -114;
#X restore 35 15 pd CROSIER;
