#N canvas 71 45 1219 794 10;
#X obj 63 99 int;
#X obj 83 139 loadbang;
#X floatatom 123 229 5 0 0 0 - - -, f 5;
#X obj 20 10 inlet;
#X floatatom 123 179 5 0 0 0 - - -, f 5;
#X obj 380 50 cnv 15 227 18 empty empty empty 20 12 0 14 #17395e #404040
0;
#X obj 380 68 cnv 15 230 143 empty empty empty 20 12 0 14 #eeeeee #404040
0;
#X obj 405 133 nbx 4 12 -1e+37 1e+37 0 0 empty \$0-linx X -9 7 0 10
#fcfcfc #000000 #000000 32.1764 256 0;
#X obj 406 149 nbx 4 12 -1e+37 1e+37 0 0 empty \$0-liny Y -9 7 0 10
#fcfcfc #000000 #000000 56.659 256 0;
#X obj 407 166 nbx 4 12 -1e+37 1e+37 0 0 empty \$0-linz Z -9 7 0 10
#fcfcfc #000000 #000000 226.618 256 0;
#X obj 395 85 hsl 51 9 0 30 0 0 \$0-senciacel empty Sencibilidad -2
-8 1 10 #000000 #66d1ff #000000 0 1;
#X obj 570 140 flatgui/knob 32 32 0 127 0 0 empty \$0-linzmid nivel\ 1
0 -8 0 8 #fcfcfc #000000 #000000 0 0;
;
#X text 50 10 recepcion datos movil Giroscopio y orinetacion;
#X floatatom 20 330 5 0 0 0 - - -, f 5;
#X obj 20 280 unpack f f f;
#X floatatom 70 330 5 0 0 0 - - -, f 5;
#X floatatom 120 330 5 0 0 0 - - -, f 5;
#X obj 20 260 mrpeach/routeOSC /linearacceleration;
#X floatatom 20 540 5 0 0 0 - - -, f 5;
#X floatatom 70 540 5 0 0 0 - - -, f 5;
#X floatatom 120 540 11 0 0 0 - - -, f 11;
#X obj 20 420 mavg;
#X obj 120 420 mavg;
#X floatatom 190 350 5 0 0 0 - - -, f 5;
#X obj 20 370 * 1000;
#X obj 70 370 * 1000;
#X obj 120 370 * 1000;
#X obj 394 100 nbx 4 13 0 40 0 0 empty empty Aceleración\ Lineal 2
23 2 9 #000000 #c2ebff #000000 0 256 0;
#X obj 480 89 bng 15 250 50 0 empty \$0-by nivel\ 1 -4 -8 2 9 #fcfcfc
#000000 #000000;
#X obj 527 89 bng 15 250 50 0 empty \$0-by2 nivel\ 2 -2 -9 2 8 #fcfcfc
#000000 #000000;
#X obj 574 89 bng 15 250 50 0 empty \$0-by3 nivel\ 3 -5 -8 2 8 #fcfcfc
#000000 #000000;
#X obj 538 179 bng 15 250 50 0 empty \$0-bz MODULO\ ACELERACION\ LINEAL\ M.Accl.
-129 -122 2 10 #fcfcfc #000000 #ffffff;
#X obj 537 153 bng 15 250 50 0 empty \$0-bz2 nivel\ 2 -28 8 2 9 #fcfcfc
#000000 #000000;
#X obj 538 129 bng 15 250 50 0 empty \$0-bz3 nivel\ \ 3 -27 6 2 9 #fcfcfc
#000000 #000000;
#X obj 70 480 abs;
#X obj 120 480 abs;
#X obj 20 480 abs;
#X text 461 93 X;
#X text 581 181 Z;
#X obj 660 120 clip 0 127;
#X obj 660 190 int;
#X obj 381 190 nbx 4 9 -1e+37 1e+37 0 0 empty \$0-linxmid Xmid 6 17
0 7 #fcfcfc #000000 #f10909 0 256 0;
#X obj 460 190 nbx 4 9 -1e+37 1e+37 0 0 empty \$0-linzmid Zmid 0 17
0 7 #fcfcfc #000000 #f10909 2 256 0;
#X obj 419 190 nbx 4 9 -1e+37 1e+37 0 0 empty \$0-linymid Ymid 5 16
0 8 #fcfcfc #000000 #f10909 0 256 0;
#X obj 820 140 clip 0 127;
#X obj 820 170 int;
#X obj 1010 140 clip 0 127;
#X obj 1010 170 int;
#X obj 1010 60 mavg 4;
#X text 630 10 valores knob. 0 10000;
#X text 780 10 MIRAR que estan los EJES X y Y cambiandos \, Y debe
ser vertical;
#X obj 20 450 mavg 4;
#X obj 120 450 mavg 4;
#X obj 460 109 hsl 127 9 500 10000 0 0 empty \$0-liny empty -2 -8 0
10 #ff0000 #000000 #000000 0 1;
#X msg 83 179 4;
#X floatatom 280 380 5 0 0 0 - - -, f 5;
#X floatatom 350 380 5 0 0 0 - - -, f 5;
#X obj 280 410 &&;
#X floatatom 280 440 5 0 0 0 - - -, f 5;
#X obj 280 290 r \$0-liny;
#X obj 20 580 s \$0-linx;
#X obj 100 580 s \$0-liny;
#X obj 170 580 s \$0-linz;
#X obj 280 460 sel 1;
#X obj 310 700 s \$0-by;
#X obj 280 320 t f f;
#X obj 280 490 debounce 1500;
#X floatatom 410 380 5 0 0 0 - - -, f 5;
#X floatatom 480 380 5 0 0 0 - - -, f 5;
#X obj 410 410 &&;
#X floatatom 410 440 5 0 0 0 - - -, f 5;
#X obj 410 290 r \$0-liny;
#X obj 410 460 sel 1;
#X obj 410 320 t f f;
#X obj 410 520 debounce 1500;
#X obj 440 700 s \$0-by2;
#X obj 280 590 spigot;
#X msg 310 560 1;
#X msg 340 560 0;
#X floatatom 560 379 5 0 0 0 - - -, f 5;
#X floatatom 630 379 5 0 0 0 - - -, f 5;
#X obj 560 409 &&;
#X floatatom 560 439 5 0 0 0 - - -, f 5;
#X obj 560 289 r \$0-liny;
#X obj 560 459 sel 1;
#X obj 560 319 t f f;
#X obj 560 519 debounce 1500;
#X obj 630 349 < 10000;
#X obj 410 590 spigot;
#X msg 470 560 1;
#X msg 500 560 0;
#X obj 420 490 del 1500;
#X obj 580 490 del 1500;
#X obj 590 700 s \$0-by3;
#X text 280 260 aceleracion horizontal o vertical;
#X obj 60 70 r \$0-senciacel;
#X obj 280 280 cnv 15 386 8 empty empty empty 20 12 0 14 #e0e0e0 #404040
0;
#X floatatom 700 379 5 0 0 0 - - -, f 5;
#X floatatom 770 379 5 0 0 0 - - -, f 5;
#X obj 700 409 &&;
#X floatatom 700 439 5 0 0 0 - - -, f 5;
#X obj 700 459 sel 1;
#X obj 700 319 t f f;
#X obj 700 519 debounce 1500;
#X obj 720 490 del 1500;
#X obj 700 289 r \$0-linz;
#X obj 700 280 cnv 15 386 8 empty empty empty 20 12 0 14 #e0e0e0 #404040
0;
#X text 700 260 Aceleracion en rotacion eje z;
#X obj 720 700 s \$0-bz;
#X obj 700 349 > 3000;
#X obj 770 349 < 3400;
#X floatatom 833 382 5 0 0 0 - - -, f 5;
#X floatatom 903 382 5 0 0 0 - - -, f 5;
#X obj 833 412 &&;
#X floatatom 833 442 5 0 0 0 - - -, f 5;
#X obj 833 462 sel 1;
#X obj 833 322 t f f;
#X obj 833 522 debounce 1500;
#X obj 833 592 spigot;
#X msg 893 562 1;
#X msg 923 562 0;
#X obj 833 292 r \$0-linz;
#X obj 840 700 s \$0-bz2;
#X msg 740 560 1;
#X floatatom 970 380 5 0 0 0 - - -, f 5;
#X floatatom 1040 380 5 0 0 0 - - -, f 5;
#X obj 970 410 &&;
#X floatatom 970 440 5 0 0 0 - - -, f 5;
#X obj 970 460 sel 1;
#X obj 970 320 t f f;
#X obj 970 520 debounce 1500;
#X obj 970 590 spigot;
#X msg 1030 560 1;
#X msg 1060 560 0;
#X obj 980 490 del 1500;
#X obj 970 290 r \$0-linz;
#X obj 990 700 s \$0-bz3;
#X obj 1120 540 loadbang;
#X obj 700 590 spigot;
#X msg 786 560 0;
#X obj 833 352 > 6000;
#X obj 903 352 < 6400;
#X obj 843 492 del 2000;
#X obj 970 350 > 8000;
#X obj 1040 350 < 9000;
#X obj 556 130 cnv 15 8 71 empty empty Act\ Rot -78 18 1 9 #000000
#404040 0;
#X obj 660 30 r \$0-liny;
#X obj 660 220 s \$0-linymid;
#X obj 820 30 r \$0-linz;
#X obj 820 62 mavg 2;
#X obj 820 210 s \$0-linzmid;
#X obj 10 725 outlet;
#X obj 90 725 outlet;
#X obj 170 730 outlet;
#X obj 10 650 r \$0-linxmid;
#X obj 90 650 r \$0-linymid;
#X obj 170 650 r \$0-lin<mid;
#X obj 280 670 spigot;
#X obj 410 670 spigot;
#X obj 560 670 spigot;
#X obj 460 140 vradio 15 0 0 2 \$0-choose empty Act\ X 17 21 1 9 #fcfcfc
#000000 #000000 1;
#X obj 610 640 r \$0-choose;
#X obj 280 730 outlet;
#X obj 410 730 outlet;
#X obj 560 730 outlet;
#X obj 700 670 spigot;
#X obj 830 670 spigot;
#X obj 975 655 spigot;
#X obj 700 730 outlet;
#X obj 830 730 outlet;
#X obj 980 730 outlet;
#X obj 1050 600 r \$0-choose;
#X obj 1050 620 sel 0;
#X msg 1050 650 1;
#X obj 1090 620 sel 1;
#X msg 1090 650 0;
#X text 880 240 nota: para activar nivel 3 rotacion hay que \; hacer
un giro rapido hacia un lado \, inmediato \; un giro de regreso o
lado contrario mas rapido;
#X obj 1010 200 s \$0-linxmid;
#X obj 1010 30 r \$0-linx;
#X obj 820 110 maxlib/scale 0 9000 0 127;
#X obj 1010 100 maxlib/scale 0 10000 0 127;
#X obj 520 10 loadbang;
#X msg 521 24 1;
#X obj 63 229 s \$0-d3;
#X obj 190 320 r \$0-d3;
#X obj 70 420 mavg;
#X obj 70 450 mavg 4;
#X obj 280 350 > 3000;
#X obj 350 350 < 3400;
#X floatatom 712 169 5 0 0 0 - - -, f 5;
#X obj 660 61 mavg 4;
#X obj 660 90 maxlib/scale 0 9500 0 127;
#X obj 525 230 cnv 5 32 10 empty empty Ymid -1 4 2 7 #ebeaea #980101
0;
#X obj 100 685 s linyau;
#X obj 605 720 s acelby3;
#X obj 560 349 > 7000;
#X obj 480 350 < 5000;
#X obj 410 350 > 4000;
#X obj 460 460 s audiocelin;
#X obj 600 460 s audiocelin;
#X connect 0 0 2 0;
#X connect 0 0 183 0;
#X connect 1 0 54 0;
#X connect 3 0 17 0;
#X connect 4 0 183 0;
#X connect 10 0 27 0;
#X connect 13 0 24 0;
#X connect 14 0 13 0;
#X connect 14 1 15 0;
#X connect 14 2 16 0;
#X connect 15 0 25 0;
#X connect 16 0 26 0;
#X connect 17 0 14 0;
#X connect 18 0 60 0;
#X connect 19 0 61 0;
#X connect 20 0 62 0;
#X connect 21 0 51 0;
#X connect 22 0 52 0;
#X connect 23 0 21 1;
#X connect 23 0 22 1;
#X connect 24 0 21 0;
#X connect 25 0 185 0;
#X connect 26 0 22 0;
#X connect 34 0 19 0;
#X connect 35 0 20 0;
#X connect 36 0 18 0;
#X connect 39 0 40 0;
#X connect 40 0 147 0;
#X connect 40 0 189 0;
#X connect 44 0 45 0;
#X connect 45 0 150 0;
#X connect 46 0 47 0;
#X connect 47 0 177 0;
#X connect 48 0 180 0;
#X connect 51 0 36 0;
#X connect 52 0 35 0;
#X connect 54 0 183 0;
#X connect 55 0 57 0;
#X connect 56 0 57 1;
#X connect 57 0 58 0;
#X connect 58 0 63 0;
#X connect 59 0 65 0;
#X connect 63 0 66 0;
#X connect 65 0 188 0;
#X connect 65 1 187 0;
#X connect 66 0 76 0;
#X connect 67 0 69 0;
#X connect 68 0 69 1;
#X connect 69 0 70 0;
#X connect 69 0 198 0;
#X connect 70 0 72 0;
#X connect 71 0 73 0;
#X connect 72 0 74 0;
#X connect 72 0 78 0;
#X connect 72 0 91 0;
#X connect 73 0 196 0;
#X connect 73 1 197 0;
#X connect 74 0 88 0;
#X connect 76 0 157 0;
#X connect 77 0 76 1;
#X connect 78 0 76 1;
#X connect 79 0 81 0;
#X connect 80 0 81 1;
#X connect 81 0 82 0;
#X connect 81 0 199 0;
#X connect 82 0 84 0;
#X connect 83 0 85 0;
#X connect 84 0 86 0;
#X connect 84 0 90 0;
#X connect 84 0 78 0;
#X connect 84 0 92 0;
#X connect 85 0 87 0;
#X connect 85 1 195 0;
#X connect 86 0 159 0;
#X connect 87 0 80 0;
#X connect 88 0 158 0;
#X connect 89 0 88 1;
#X connect 90 0 88 1;
#X connect 91 0 77 0;
#X connect 92 0 89 0;
#X connect 92 0 77 0;
#X connect 95 0 0 0;
#X connect 97 0 99 0;
#X connect 98 0 99 1;
#X connect 99 0 100 0;
#X connect 100 0 101 0;
#X connect 101 0 103 0;
#X connect 101 0 104 0;
#X connect 101 0 123 0;
#X connect 102 0 110 0;
#X connect 102 1 109 0;
#X connect 103 0 138 0;
#X connect 105 0 102 0;
#X connect 109 0 97 0;
#X connect 110 0 98 0;
#X connect 111 0 113 0;
#X connect 112 0 113 1;
#X connect 113 0 114 0;
#X connect 114 0 115 0;
#X connect 115 0 117 0;
#X connect 115 0 139 0;
#X connect 115 0 142 0;
#X connect 116 0 141 0;
#X connect 116 1 140 0;
#X connect 117 0 118 0;
#X connect 118 0 166 0;
#X connect 119 0 118 1;
#X connect 120 0 118 1;
#X connect 121 0 116 0;
#X connect 123 0 138 1;
#X connect 124 0 126 0;
#X connect 125 0 126 1;
#X connect 126 0 127 0;
#X connect 127 0 128 0;
#X connect 128 0 130 0;
#X connect 128 0 134 0;
#X connect 129 0 144 0;
#X connect 129 1 143 0;
#X connect 130 0 131 0;
#X connect 131 0 167 0;
#X connect 132 0 131 1;
#X connect 133 0 131 1;
#X connect 135 0 129 0;
#X connect 137 0 77 0;
#X connect 137 0 89 0;
#X connect 137 0 123 0;
#X connect 137 0 119 0;
#X connect 137 0 132 0;
#X connect 138 0 165 0;
#X connect 139 0 138 1;
#X connect 140 0 111 0;
#X connect 141 0 112 0;
#X connect 142 0 123 0;
#X connect 143 0 124 0;
#X connect 144 0 125 0;
#X connect 146 0 190 0;
#X connect 148 0 149 0;
#X connect 149 0 179 0;
#X connect 154 0 151 0;
#X connect 155 0 152 0;
#X connect 155 0 193 0;
#X connect 156 0 153 0;
#X connect 157 0 162 0;
#X connect 157 0 64 0;
#X connect 158 0 163 0;
#X connect 158 0 75 0;
#X connect 159 0 164 0;
#X connect 159 0 93 0;
#X connect 159 0 194 0;
#X connect 161 0 157 1;
#X connect 161 0 158 1;
#X connect 161 0 159 1;
#X connect 165 0 168 0;
#X connect 165 0 108 0;
#X connect 166 0 169 0;
#X connect 166 0 122 0;
#X connect 167 0 170 0;
#X connect 167 0 136 0;
#X connect 171 0 172 0;
#X connect 171 0 174 0;
#X connect 172 0 173 0;
#X connect 173 0 166 1;
#X connect 173 0 167 1;
#X connect 174 0 175 0;
#X connect 175 0 165 1;
#X connect 175 0 166 1;
#X connect 175 0 167 1;
#X connect 178 0 48 0;
#X connect 179 0 44 0;
#X connect 180 0 46 0;
#X connect 181 0 182 0;
#X connect 182 0 160 0;
#X connect 184 0 23 0;
#X connect 185 0 186 0;
#X connect 186 0 34 0;
#X connect 187 0 55 0;
#X connect 188 0 56 0;
#X connect 190 0 191 0;
#X connect 191 0 39 0;
#X connect 195 0 79 0;
#X connect 196 0 68 0;
#X connect 197 0 67 0;
#X coords 0 -1 1 1 238 165 2 375 49;
