#N canvas 47 178 1440 466 10;
#X obj -20 96 int;
#X obj 0 136 loadbang;
#X floatatom 40 226 5 0 0 0 - - -, f 5;
#X obj -23 27 inlet;
#X floatatom 40 176 5 0 0 0 - - -, f 5;
#X obj 297 58 cnv 15 251 23 empty empty Módulo\ Vec.\ Rot. 92 9 1
12 #25162d #ffffff 0;
#X obj 295 79 cnv 15 254 188 empty empty empty 20 12 0 14 #eeeeee #404040
0;
#X obj 303 95 hsl 51 9 0 5 0 0 empty empty Sencibilidad -2 -8 1 10
#000000 #9681b8 #000000 0 1;
#X text 30 30 recepcion datos movil Giroscopio y orinetacion;
#X floatatom -23 327 5 0 0 0 - - -, f 5;
#X floatatom 24 327 5 0 0 0 - - -, f 5;
#X floatatom 71 326 5 0 0 0 - - -, f 5;
#X obj -23 397 mavg;
#X obj 27 397 mavg;
#X obj 77 397 mavg;
#X floatatom 157 357 5 0 0 0 - - -, f 5;
#X obj 303 111 nbx 3 12 0 40 0 0 empty empty Vector\ de\ rotación\ PH.
17 21 2 10 #000000 #ff006a #000000 0 256 0;
#X obj 157 327 r d3;
#X obj -20 226 s d3;
#X msg 0 176 2;
#X obj -23 287 unpack f f f f, f 24;
#X floatatom 117 327 5 0 0 0 - - -, f 5;
#X obj 327 567 sendOSCvect, f 32;
#X obj -35 595 s vectx;
#X obj 27 597 s vecty;
#X obj 85 590 s vectz;
#X obj 127 437 s vectw;
#X obj 327 527 bng 15 250 50 0 empty vectorprocessing empty 17 7 0
10 #fcfcfc #000000 #000000;
#X obj 127 407 mavg;
#X obj 367 527 bng 15 250 50 0 empty vectordisconect empty 17 7 0 10
#fcfcfc #000000 #000000;
#X obj 469 93 vsl 12 83 0 127 0 0 empty vectorslider PLANO\ 360°\ vertical
-33 -9 1 9 #000000 #25ab1c #000000 3964 1;
#X obj -23 357 * 1;
#X obj 27 357 * 1;
#X obj 71 357 * 1;
#X obj 118 357 * 1;
#X obj 314 252 nbx 3 13 -1e+37 1e+37 0 0 empty midvect1 Rad\ plano
37 6 0 8 #000000 #ffffff #000000 0.1 256 1;
#X obj 617 267 poltocar;
#X obj 311 146 grid grid1 100 200 300 100 200 300 1 50 50 2 2 385.875
198.496;
#X floatatom 617 377 5 0 0 0 - - -, f 5;
#X floatatom 617 297 5 0 0 0 - - -, f 5;
#X obj 617 397 pack f f;
#X msg 617 427 goto \$1 \$2;
#X text 607 297 X;
#X text 707 297 Y;
#X floatatom 667 297 5 0 0 0 - - -, f 5;
#X obj 667 357 bng 15 250 50 0 empty empty empty 17 7 0 10 #fcfcfc
#000000 #000000;
#X obj 657 187 hsl 128 15 0 6.28 0 0 empty empty empty -2 -8 0 10 #fcfcfc
#000000 #000000 202 1;
#X floatatom 797 377 5 0 0 0 - - -, f 5;
#X obj 617 57 r vectz;
#X floatatom 617 147 5 0 0 0 - - -, f 5;
#X obj 617 87 maxlib/scale -1 1 0 6.28;
#X obj 617 117 clip 0.1 6.27;
#X floatatom 307 317 5 0 0 0 - - -, f 5;
#X floatatom 307 387 5 0 0 0 - - -, f 5;
#X obj 307 357 * 100;
#X text -35 540 salida plano 360;
#X text 347 357 scalamineto para slider;
#X text 707 397 valores scalados para ver en grid . nada mas;
#X obj 27 97 r colorgridvector;
#X text 727 297 coordenadas X Y cartesinas;
#X text 680 270 eje Z ver processing;
#X obj 348 238 nbx 3 10 90 90 0 0 empty empty 2pi\ rad 83 -135 2 10
#fcfcfc #000000 #b81d1d 90 256 3;
#X obj 409 188 nbx 3 10 0 0 0 0 empty empty pi\ rad 26 -61 2 10 #fcfcfc
#000000 #991d1d 0 256 3;
#X obj 349 138 nbx 3 10 270 270 0 0 empty empty pi/2\ rad 85 14 2 10
#fcfcfc #000000 #9a1d1d 270 256 3;
#X obj 292 189 nbx 3 10 180 180 0 0 empty empty empty 0 -8 0 10 #fcfcfc
#000000 #000000 180 256 3;
#X obj 367 87 bng 15 250 50 0 vectorprocessing empty On\ /Pro/osc 17
7 2 9 #643c77 #000000 #000000;
#X obj 367 107 bng 12 250 50 0 empty vectordisconect off/Pro/osc 17
7 2 9 #fcfcfc #000000 #000000;
#X text 429 99 ___________;
#X text 429 122 ___________;
#X text 417 147 ___________;
#X msg 27 57 color 100 60 119;
#X obj 27 77 s colorgridvector;
#X obj 617 207 t f f;
#X obj 617 337 maxlib/scale -1 1 25 75;
#X obj 797 337 maxlib/scale -1 1 25 75;
#X msg 617 237 1;
#X obj 305 450 s vectorslider;
#X obj 307 417 maxlib/scale -100 100 0 127;
#X floatatom 400 450 5 0 0 0 - - -, f 5;
#X obj -23 257 mrpeach/routeOSC /rotationvector;
#X obj 307 287 r vectx;
#X obj 417 527 r vectgl;
#X obj 487 527 r vectgl1;
#X obj 557 527 r vectgl2;
#X obj 439 200 tgl 12 0 vectgl tgl1 Rot\ PH. 17 7 1 9 #e8e828 #580050
#202020 1 1;
#X msg 837 222 color \$1 \$2 \$3;
#N canvas 364 205 306 311 flash-time 0;
#X obj 69 196 t b a;
#X obj 33 262 outlet;
#X obj 33 237 pack 0 0 0;
#X obj 120 197 t b a;
#X obj 103 104 nbx 3 14 0 29 0 0 \$0-dummy \$0-bg empty 0 -8 0 12 #fcfcfc
#000000 #000000 15 256 0;
#X obj 103 124 nbx 3 14 0 29 0 0 \$0-dummy \$0-front empty 0 -8 0 12
#fcfcfc #000000 #000000 29 256 0;
#X obj 103 144 nbx 3 14 0 29 0 0 \$0-dummy \$0-label empty 0 -8 0 12
#fcfcfc #000000 #000000 12 256 0;
#X obj 130 60 inlet;
#X obj 210 60 loadbang;
#X msg 210 100 29;
#X msg 240 100 12;
#X msg 270 100 0;
#X connect 0 0 2 0;
#X connect 0 1 2 1;
#X connect 2 0 1 0;
#X connect 3 0 2 0;
#X connect 3 1 2 2;
#X connect 4 0 2 0;
#X connect 5 0 0 0;
#X connect 6 0 3 0;
#X connect 7 0 4 0;
#X connect 8 0 9 0;
#X connect 8 0 10 0;
#X connect 8 0 11 0;
#X connect 9 0 5 0;
#X connect 10 0 6 0;
#X connect 11 0 4 0;
#X coords 0 -1 1 1 48 62 2 100 100;
#X restore 837 137 pd flash-time;
#X text 886 139 1.bg;
#X text 886 159 2.front;
#X text 886 180 3.label;
#X obj 837 247 s tgl1;
#X msg 837 117 0;
#X msg 867 117 15;
#X obj 837 67 r vectgl;
#X obj 870 87 select 0 1;
#X obj 439 217 tgl 12 0 vectgl1 tgl2 Rot\ Vtr. 17 7 1 9 #e8e828 #580050
#202020 1 1;
#X msg 959 224 color \$1 \$2 \$3;
#N canvas 364 205 306 311 flash-time 0;
#X obj 69 196 t b a;
#X obj 33 262 outlet;
#X obj 33 237 pack 0 0 0;
#X obj 120 197 t b a;
#X obj 103 104 nbx 3 14 0 29 0 0 \$0-dummy \$0-bg empty 0 -8 0 12 #fcfcfc
#000000 #000000 15 256 0;
#X obj 103 124 nbx 3 14 0 29 0 0 \$0-dummy \$0-front empty 0 -8 0 12
#fcfcfc #000000 #000000 29 256 0;
#X obj 103 144 nbx 3 14 0 29 0 0 \$0-dummy \$0-label empty 0 -8 0 12
#fcfcfc #000000 #000000 12 256 0;
#X obj 130 60 inlet;
#X obj 210 60 loadbang;
#X msg 210 100 29;
#X msg 240 100 12;
#X msg 270 100 0;
#X connect 0 0 2 0;
#X connect 0 1 2 1;
#X connect 2 0 1 0;
#X connect 3 0 2 0;
#X connect 3 1 2 2;
#X connect 4 0 2 0;
#X connect 5 0 0 0;
#X connect 6 0 3 0;
#X connect 7 0 4 0;
#X connect 8 0 9 0;
#X connect 8 0 10 0;
#X connect 8 0 11 0;
#X connect 9 0 5 0;
#X connect 10 0 6 0;
#X connect 11 0 4 0;
#X coords 0 -1 1 1 48 62 2 100 100;
#X restore 959 139 pd flash-time;
#X text 1008 141 1.bg;
#X text 1008 161 2.front;
#X text 1008 182 3.label;
#X msg 959 119 0;
#X msg 989 119 15;
#X obj 992 89 select 0 1;
#X obj 959 69 r vectgl1;
#X obj 959 249 s tgl2;
#X obj 439 233 tgl 12 0 vectgl2 tgl3 Rot\ Tr. 17 7 1 9 #e8e828 #580050
#202020 1 1;
#X msg 1077 222 color \$1 \$2 \$3;
#N canvas 364 205 306 311 flash-time 0;
#X obj 69 196 t b a;
#X obj 33 262 outlet;
#X obj 33 237 pack 0 0 0;
#X obj 120 197 t b a;
#X obj 103 104 nbx 3 14 0 29 0 0 \$0-dummy \$0-bg empty 0 -8 0 12 #fcfcfc
#000000 #000000 15 256 0;
#X obj 103 124 nbx 3 14 0 29 0 0 \$0-dummy \$0-front empty 0 -8 0 12
#fcfcfc #000000 #000000 29 256 0;
#X obj 103 144 nbx 3 14 0 29 0 0 \$0-dummy \$0-label empty 0 -8 0 12
#fcfcfc #000000 #000000 12 256 0;
#X obj 130 60 inlet;
#X obj 210 60 loadbang;
#X msg 210 100 29;
#X msg 240 100 12;
#X msg 270 100 0;
#X connect 0 0 2 0;
#X connect 0 1 2 1;
#X connect 2 0 1 0;
#X connect 3 0 2 0;
#X connect 3 1 2 2;
#X connect 4 0 2 0;
#X connect 5 0 0 0;
#X connect 6 0 3 0;
#X connect 7 0 4 0;
#X connect 8 0 9 0;
#X connect 8 0 10 0;
#X connect 8 0 11 0;
#X connect 9 0 5 0;
#X connect 10 0 6 0;
#X connect 11 0 4 0;
#X coords 0 -1 1 1 48 62 2 100 100;
#X restore 1077 137 pd flash-time;
#X text 1126 139 1.bg;
#X text 1126 159 2.front;
#X text 1126 180 3.label;
#X msg 1077 117 0;
#X msg 1107 117 15;
#X obj 1110 87 select 0 1;
#X obj 1077 67 r vectgl2;
#X obj 1077 247 s tgl3;
#X obj 627 587 outlet;
#X text 617 607 salida radianes eje pH;
#X obj 624 537 spigot;
#X obj 667 507 r vectgl;
#X obj 677 567 s midvect1;
#X obj 767 487 maxlib/scale -1 1 0 6.28;
#X text 347 317 val;
#X obj 767 587 outlet;
#X obj 767 537 spigot;
#X obj 797 567 s midvect2;
#X obj 400 253 nbx 3 13 -1e+37 1e+37 0 0 empty midvect2 Rad\ vert.
37 6 0 8 #000000 #fffafa #000000 3.03589 256 1;
#X obj 767 447 r vectorsliderrad;
#X obj 357 337 s vectorsliderrad;
#X text 769 609 salida radianes eje vertical;
#X obj 797 517 r vectgl1;
#X obj 957 477 maxlib/scale -1 1 0 6.28;
#X obj 957 507 clip 0.1 6.27;
#X obj 957 447 r vecty;
#X obj 950 590 outlet;
#X obj 957 547 spigot;
#X obj 990 570 s midvect3;
#X obj 997 527 r vectgl2;
#X text 417 507 reciben de toglles;
#X obj 480 252 nbx 3 13 0 6.28 0 0 empty midvect3 Rad\ Tr. 37 6 0 8
#000000 #fffafa #000000 3.05148 256 1;
#X obj 502 96 vradio 21 0 0 4 empty radiovect TRV 23 35 0 10 #000000
#14e814 #fcfcfc 1;
#X obj 510 10 r trgvector;
#N canvas 191 233 1165 599 triggervertical 1;
#X floatatom 40 110 5 0 0 0 - - -, f 5;
#X obj 40 70 r vectorslider;
#X floatatom 42 185 5 0 0 0 - - -, f 5;
#X obj 50 550 outlet;
#X msg 202 346 color \$1 \$2 \$3;
#N canvas 364 205 306 308 flash-time 0;
#X obj 69 196 t b a;
#X obj 33 262 outlet;
#X obj 33 237 pack 0 0 0;
#X obj 120 197 t b a;
#X obj 103 104 nbx 3 14 0 29 0 0 \$0-dummy \$0-bg empty 0 -8 0 12 #fcfcfc
#000000 #000000 22 256 0;
#X obj 103 124 nbx 3 14 0 29 0 0 \$0-dummy \$0-front empty 0 -8 0 12
#fcfcfc #000000 #000000 16 256 0;
#X obj 103 144 nbx 3 14 0 29 0 0 \$0-dummy \$0-label empty 0 -8 0 12
#fcfcfc #000000 #000000 0 256 0;
#X obj 200 50 inlet;
#X obj 60 40 inlet;
#X obj 174 90 loadbang;
#X msg 230 120 0;
#X msg 200 120 16;
#X msg 170 120 22;
#X connect 0 0 2 0;
#X connect 0 1 2 1;
#X connect 2 0 1 0;
#X connect 3 0 2 0;
#X connect 3 1 2 2;
#X connect 4 0 2 0;
#X connect 5 0 0 0;
#X connect 6 0 3 0;
#X connect 7 0 5 0;
#X connect 8 0 4 0;
#X connect 9 0 12 0;
#X connect 9 0 11 0;
#X connect 9 0 10 0;
#X connect 10 0 6 0;
#X connect 11 0 5 0;
#X connect 12 0 4 0;
#X coords 0 -1 1 1 48 62 2 100 100;
#X restore 202 264 pd flash-time;
#X text 251 266 1.bg;
#X text 251 286 2.front;
#X text 251 307 3.label;
#X obj 202 371 s radiovect;
#X msg 200 240 22;
#X msg 260 230 18;
#X floatatom 300 190 5 0 0 0 - - -, f 5;
#X obj 300 140 expr if ($f1 < 85 && $f1 > 60 \, 1 \, 30);
#X obj 40 140 expr if ($f1 < 110 && $f1 > 85 \, 0 \, 30);
#X obj 50 370 sel 0 1 2 3;
#X obj 50 430 debounce 2000;
#X msg 50 470 0;
#X obj 160 430 debounce 2000;
#X msg 161 470 1;
#X obj 540 140 expr if ($f1 < 60 && $f1 > 30 \, 2 \, 30);
#X floatatom 540 190 5 0 0 0 - - -, f 5;
#X obj 259 430 debounce 2000;
#X msg 260 470 2;
#X floatatom 780 190 5 0 0 0 - - -, f 5;
#X obj 780 140 expr if ($f1 < 30 && $f1 > 3 \, 3 \, 30);
#X obj 349 430 debounce 2000;
#X msg 350 470 3;
#X obj 170 550 outlet;
#X obj 250 550 outlet;
#X obj 320 550 outlet;
#X obj 390 550 outlet;
#X floatatom 520 430 5 0 0 0 - - -, f 5;
#X floatatom 600 428 5 0 0 0 - - -, f 5;
#X floatatom 670 428 5 0 0 0 - - -, f 5;
#X floatatom 740 430 5 0 0 0 - - -, f 5;
#X obj 50 160 expr if ($f1 < 110 && $f1 > 85 \, 0 \, 35);
#X obj 291 164 expr if ($f1 < 85 && $f1 > 60 \, 0 \, 36);
#X obj 780 160 expr if ($f1 < 33 && $f1 > 2 \, 0 \, 38);
#X obj 520 470 change 35;
#X obj 600 471 change 36;
#X obj 670 470 change 37;
#X obj 740 473 change 38;
#X obj 540 160 expr if ($f1 < 60 && $f1 > 34 \, 0 \, 37);
#X obj 530 500 s cvr1;
#X obj 600 500 s cvr2;
#X obj 670 500 s cvr3;
#X obj 740 500 s cvr4;
#X obj 649 268 sel 2;
#X connect 0 0 13 0;
#X connect 0 0 14 0;
#X connect 0 0 36 0;
#X connect 0 0 37 0;
#X connect 1 0 0 0;
#X connect 1 0 25 0;
#X connect 1 0 20 0;
#X connect 1 0 38 0;
#X connect 1 0 43 0;
#X connect 2 0 15 0;
#X connect 4 0 9 0;
#X connect 5 0 4 0;
#X connect 10 0 5 1;
#X connect 11 0 5 1;
#X connect 12 0 15 0;
#X connect 13 0 12 0;
#X connect 14 0 2 0;
#X connect 15 0 16 0;
#X connect 15 1 18 0;
#X connect 15 2 22 0;
#X connect 15 3 26 0;
#X connect 16 0 17 0;
#X connect 16 0 28 0;
#X connect 17 0 3 0;
#X connect 18 0 19 0;
#X connect 18 0 29 0;
#X connect 19 0 3 0;
#X connect 20 0 21 0;
#X connect 21 0 15 0;
#X connect 22 0 23 0;
#X connect 22 0 30 0;
#X connect 23 0 3 0;
#X connect 24 0 15 0;
#X connect 25 0 24 0;
#X connect 26 0 27 0;
#X connect 26 0 31 0;
#X connect 27 0 3 0;
#X connect 32 0 39 0;
#X connect 33 0 40 0;
#X connect 34 0 41 0;
#X connect 35 0 42 0;
#X connect 36 0 32 0;
#X connect 37 0 33 0;
#X connect 38 0 35 0;
#X connect 39 0 44 0;
#X connect 40 0 45 0;
#X connect 41 0 46 0;
#X connect 42 0 47 0;
#X connect 43 0 34 0;
#X restore 977 317 pd triggervertical;
#X floatatom 510 30 5 0 0 0 - - -, f 5;
#X obj 997 347 s trgvector;
#X obj 1070 570 outlet;
#X obj 1100 550 outlet;
#X obj 1140 570 outlet;
#X obj 1170 550 outlet;
#X floatatom 157 507 5 0 0 0 - - -, f 5;
#X obj 90 495 +;
#X obj 507 196 flatgui/knob 32 32 0 127 0 0 empty empty Act\ Envios
0 -8 0 8 #fcfcfc #000000 #000000 0 1;
;
#X obj 157 477 maxlib/scale 0 127 -1 1;
#X obj 157 531 s calivector;
#X obj 502 234 nbx 4 13 -1 1 0 0 empty calivector Ajust.\ Ori. -2 -47
2 10 #fcfcfc #000000 #000000 -1 256 3;
#X obj 677 147 rad2deg;
#X obj 346 190 nbx 3 11 -1e+37 1e+37 0 0 empty radph empty 0 -8 0 10
#643c77 #ffffff #000000 5.72958 256 3;
#X obj 194 72 loadbang;
#X obj 434 163 nbx 3 12 -1e+37 1e+37 0 0 empty ranvrt grados 4 13 2
9 #ffffff #000000 #030303 173.944 256 3;
#X text 977 297 disparadores vertical;
#X obj 687 167 s radph;
#X text 77 567 salida plano vertical 360 con ajuste;
#X text 1205 297 disparadores horizontal;
#X obj 977 277 cnv 15 401 13 empty empty algoritmos\ de\ deteccion\ de\ cuadrantes
20 6 0 11 #1f3aa8 #ffffff 0;
#N canvas 134 273 1018 409 trggerhorizontal 0;
#X floatatom 30 10 5 0 0 0 - - -, f 5;
#X floatatom 280 0 5 0 0 0 - - -, f 5;
#X floatatom 520 -10 5 0 0 0 - - -, f 5;
#X floatatom 760 -10 5 0 0 0 - - -, f 5;
#X obj 30 140 outlet;
#X obj 280 130 outlet;
#X obj 520 130 outlet;
#X obj 760 140 outlet;
#X obj 20 -140 inlet;
#X obj 41 -108 r vechortrig;
#X obj 40 -80 maxlib/scale 0 6.28 1 127;
#X floatatom 321 -79 5 0 0 0 - - -, f 5;
#X obj 30 50 change 30;
#X obj 30 -40 expr if ($f1 < 127 && $f1 > 92 \, 0 \, 30);
#X obj 30 100 bng 15 250 50 0 empty empty empty 17 7 0 10 #fcfcfc #000000
#000000;
#X obj 280 90 bng 15 250 50 0 empty empty empty 17 7 0 10 #fcfcfc #000000
#000000;
#X obj 280 50 change 31;
#X obj 520 50 change 32;
#X obj 520 90 bng 15 250 50 0 empty empty empty 17 7 0 10 #fcfcfc #000000
#000000;
#X obj 760 50 change 33;
#X obj 520 -40 expr if ($f1 < 64 && $f1 > 34 \, 0 \, 32);
#X obj 280 -40 expr if ($f1 < 91 && $f1 > 65 \, 0 \, 31);
#X obj 760 -40 expr if ($f1 < 33 && $f1 > 2 \, 0 \, 33);
#X obj 760 90 bng 15 250 50 0 empty empty empty 17 7 0 10 #fcfcfc #000000
#000000;
#X obj 900 130 outlet;
#X text 900 160 scalar midi;
#X text 760 160 cuadrante 4;
#X text 280 150 cuadrante 2;
#X text 520 150 cuadrante 3;
#X text 33 161 cuadrante 1;
#X text 140 -120 programacion para interaccion 4n 4 cuadrantes diferentes
en la palno horizontal \, o en palno para espacializacion;
#X connect 0 0 12 0;
#X connect 1 0 16 0;
#X connect 2 0 17 0;
#X connect 3 0 19 0;
#X connect 9 0 10 0;
#X connect 10 0 11 0;
#X connect 10 0 13 0;
#X connect 10 0 20 0;
#X connect 10 0 21 0;
#X connect 10 0 22 0;
#X connect 10 0 24 0;
#X connect 12 0 14 0;
#X connect 13 0 0 0;
#X connect 14 0 4 0;
#X connect 15 0 5 0;
#X connect 16 0 15 0;
#X connect 17 0 18 0;
#X connect 18 0 6 0;
#X connect 19 0 23 0;
#X connect 20 0 2 0;
#X connect 21 0 1 0;
#X connect 22 0 3 0;
#X connect 23 0 7 0;
#X restore 1205 317 pd trggerhorizontal;
#X obj 707 117 s vechortrig;
#X obj 384 157 tgl 15 0 empty cdr1 CDR\ 1 -1 -7 2 8 #000000 #f00000
#fffafa 0 1;
#X obj 1205 347 s cdr1;
#X obj 1245 347 s cdr2;
#X obj 1285 347 s cdr3;
#X obj 1325 347 s cdr4;
#X obj 324 157 tgl 15 0 empty cdr2 CDR\ 2 -1 -7 2 8 #000000 #ff0000
#fffafa 0 1;
#X obj 323 218 tgl 15 0 empty cdr3 CDR\ 3 0 19 2 8 #000000 #fa0000
#fffafa 0 1;
#X obj 386 218 tgl 15 0 empty cdr4 CDR\ 4 0 19 2 8 #000000 #fa0000
#fffafa 0 1;
#X obj 1230 570 outlet;
#X obj 1250 550 outlet;
#X obj 1300 570 outlet;
#X obj 1330 550 outlet;
#X obj 350 390 maxlib/scale -1 1 0 6.28;
#X obj 480 420 rad2deg;
#X obj 480 450 s ranvrt;
#X text 530 98 CV1;
#X text 530 120 CV2;
#X text 530 143 CV3;
#X text 530 164 CV4;
#X text 960 620 salida radianes eje trasversal;
#X obj 1060 520 cnv 15 326 27 empty empty salidas\ toogle\ condicionales\ de\ cuadrantes
20 12 0 11 #e0e0e0 #404040 0;
#X obj 1220 470 r cvr1;
#X obj 1260 440 r cvr2;
#X obj 1300 470 r cvr3;
#X obj 1330 440 r cvr4;
#X obj 830 40 cnv 15 346 20 empty empty empty 20 12 0 14 #e0e0e0 #404040
0;
#X obj 600 60 cnv 15 8 397 empty empty empty 20 12 0 14 #d13333 #404040
0;
#X obj 290 290 cnv 15 8 186 empty empty empty 20 12 0 14 #d13333 #404040
0;
#X text 670 590 1;
#X text 810 590 2;
#X text 1000 590 3;
#X text 850 40 reciben de toggles para cambiar color;
#X obj 590 10 loadbang;
#X msg 567 164 0;
#X obj 1210 380 tgl 15 0 empty empty empty 17 7 0 10 #fcfcfc #000000
#000000 0 1;
#X obj 1240 380 tgl 15 0 empty empty empty 17 7 0 10 #fcfcfc #000000
#000000 0 1;
#X obj 1270 380 tgl 15 0 empty empty empty 17 7 0 10 #fcfcfc #000000
#000000 0 1;
#X obj 1300 380 tgl 15 0 empty empty empty 17 7 0 10 #fcfcfc #000000
#000000 0 1;
#X text 140 595 azimuth;
#X text -25 565 elevacion;
#X floatatom 545 450 5 0 0 0 - - -, f 5;
#X floatatom 737 151 5 0 0 0 - - -, f 5;
#X obj 1260 500 bng 15 250 50 0 empty empty empty 17 7 0 10 #fcfcfc
#000000 #000000;
#X connect 0 0 2 0;
#X connect 0 0 18 0;
#X connect 1 0 19 0;
#X connect 3 0 79 0;
#X connect 4 0 18 0;
#X connect 7 0 0 0;
#X connect 7 0 16 0;
#X connect 9 0 31 0;
#X connect 10 0 32 0;
#X connect 11 0 33 0;
#X connect 12 0 23 0;
#X connect 13 0 24 0;
#X connect 14 0 151 0;
#X connect 15 0 12 1;
#X connect 15 0 13 1;
#X connect 15 0 14 1;
#X connect 15 0 28 1;
#X connect 17 0 15 0;
#X connect 19 0 18 0;
#X connect 20 0 9 0;
#X connect 20 1 10 0;
#X connect 20 2 11 0;
#X connect 20 3 21 0;
#X connect 21 0 34 0;
#X connect 27 0 22 0;
#X connect 28 0 26 0;
#X connect 29 0 22 1;
#X connect 31 0 12 0;
#X connect 32 0 13 0;
#X connect 33 0 14 0;
#X connect 34 0 28 0;
#X connect 36 0 39 0;
#X connect 36 1 44 0;
#X connect 38 0 40 0;
#X connect 39 0 73 0;
#X connect 40 0 41 0;
#X connect 41 0 37 0;
#X connect 44 0 45 0;
#X connect 44 0 74 0;
#X connect 45 0 38 0;
#X connect 47 0 40 1;
#X connect 48 0 50 0;
#X connect 49 0 46 0;
#X connect 49 0 119 0;
#X connect 49 0 72 0;
#X connect 50 0 51 0;
#X connect 50 0 166 0;
#X connect 51 0 49 0;
#X connect 51 0 156 0;
#X connect 52 0 54 0;
#X connect 52 0 129 0;
#X connect 52 0 179 0;
#X connect 53 0 77 0;
#X connect 54 0 53 0;
#X connect 58 0 37 0;
#X connect 70 0 71 0;
#X connect 72 0 75 0;
#X connect 72 1 36 1;
#X connect 73 0 38 0;
#X connect 74 0 47 0;
#X connect 75 0 36 0;
#X connect 77 0 76 0;
#X connect 77 0 78 0;
#X connect 79 0 20 0;
#X connect 80 0 52 0;
#X connect 81 0 22 2;
#X connect 82 0 22 3;
#X connect 83 0 22 4;
#X connect 85 0 90 0;
#X connect 86 0 85 0;
#X connect 91 0 86 0;
#X connect 92 0 86 0;
#X connect 93 0 94 0;
#X connect 94 0 91 0;
#X connect 94 1 92 0;
#X connect 96 0 105 0;
#X connect 97 0 96 0;
#X connect 101 0 97 0;
#X connect 102 0 97 0;
#X connect 103 0 101 0;
#X connect 103 1 102 0;
#X connect 104 0 103 0;
#X connect 107 0 116 0;
#X connect 108 0 107 0;
#X connect 112 0 108 0;
#X connect 113 0 108 0;
#X connect 114 0 112 0;
#X connect 114 1 113 0;
#X connect 115 0 114 0;
#X connect 119 0 117 0;
#X connect 119 0 121 0;
#X connect 120 0 119 1;
#X connect 122 0 125 0;
#X connect 125 0 124 0;
#X connect 125 0 126 0;
#X connect 128 0 122 0;
#X connect 131 0 125 1;
#X connect 132 0 133 0;
#X connect 133 0 136 0;
#X connect 134 0 132 0;
#X connect 136 0 135 0;
#X connect 136 0 137 0;
#X connect 138 0 136 1;
#X connect 142 0 144 0;
#X connect 143 0 145 0;
#X connect 144 0 141 0;
#X connect 150 0 154 0;
#X connect 151 0 25 0;
#X connect 152 0 153 0;
#X connect 153 0 151 1;
#X connect 153 0 150 0;
#X connect 156 0 161 0;
#X connect 156 0 208 0;
#X connect 158 0 70 0;
#X connect 165 0 168 0;
#X connect 165 0 201 0;
#X connect 165 0 146 0;
#X connect 165 1 169 0;
#X connect 165 1 202 0;
#X connect 165 1 147 0;
#X connect 165 2 170 0;
#X connect 165 2 203 0;
#X connect 165 2 148 0;
#X connect 165 3 171 0;
#X connect 165 3 204 0;
#X connect 165 3 149 0;
#X connect 179 0 180 0;
#X connect 180 0 181 0;
#X connect 180 0 207 0;
#X connect 188 0 175 0;
#X connect 189 0 176 0;
#X connect 190 0 177 0;
#X connect 190 0 209 0;
#X connect 191 0 178 0;
#X connect 199 0 200 0;
#X connect 199 0 84 0;
#X connect 199 0 95 0;
#X connect 199 0 106 0;
#X connect 200 0 152 0;
#X coords 0 -1 1 1 266 214 2 291 54;
