#N canvas 173 133 1267 495 12;
#X obj 150 410 sendOSC;
#X msg 160 150 disconnect;
#X obj 152 450 print;
#X obj 60 0 import mrpeach;
#X obj 150 50 inlet;
#X text 60 30 envio datos OSC;
#X obj 210 50 inlet;
#X floatatom 1060 80 5 0 0 0 - - -, f 5;
#X floatatom 650 90 5 0 0 0 - - -, f 5;
#X floatatom 370 240 5 0 0 0 - - -, f 5;
#X obj 370 60 r vectx;
#X obj 650 60 r vectz;
#X msg 910 280 send /vectorz \$1;
#X msg 1060 310 send /rotationX \$1;
#X msg 370 300 send /rotationZ \$1;
#X msg 650 310 send /rotationY \$1;
#X obj 1060 280 maxlib/scale -1 1 -3.14 3.14;
#X obj 370 270 maxlib/scale -1 1 -3.14 3.14;
#X obj 650 280 maxlib/scale -0.99 0.99 -3.14 3.14;
#X obj 650 220 clip -0.98 0.98;
#X floatatom 650 240 5 0 0 0 - - -, f 5;
#X text 630 330 este eje rota celu de manera vertical;
#X text 300 330 este eje rota sobre la mesa 360 grados;
#X obj 1060 40 r vecty;
#X floatatom 370 100 5 0 0 0 - - -, f 5;
#X obj 370 150 spigot;
#X obj 650 150 spigot;
#X obj 1060 140 spigot;
#X text 1050 340 este eje rota trasnversal;
#X obj 450 60 inlet;
#X obj 720 60 inlet;
#X obj 1140 60 inlet;
#X msg 147 117 connect localhost 12000;
#X connect 0 0 2 0;
#X connect 1 0 0 0;
#X connect 4 0 32 0;
#X connect 6 0 1 0;
#X connect 7 0 27 0;
#X connect 8 0 26 0;
#X connect 9 0 17 0;
#X connect 10 0 24 0;
#X connect 11 0 8 0;
#X connect 13 0 0 0;
#X connect 14 0 0 0;
#X connect 15 0 0 0;
#X connect 16 0 13 0;
#X connect 17 0 14 0;
#X connect 18 0 15 0;
#X connect 19 0 20 0;
#X connect 20 0 18 0;
#X connect 23 0 7 0;
#X connect 24 0 25 0;
#X connect 25 0 9 0;
#X connect 26 0 19 0;
#X connect 27 0 16 0;
#X connect 29 0 25 1;
#X connect 30 0 26 1;
#X connect 31 0 27 1;
#X connect 32 0 0 0;
