#N canvas 185 25 1249 805 12;
#X obj 135 25 import mrpeach;
#X obj 45 25 inlet;
#X floatatom 150 300 5 0 0 0 - - -, f 5;
#X floatatom 972 306 5 0 0 0 - - -, f 5;
#X floatatom 1025 307 5 0 0 0 - - -, f 5;
#X obj 972 276 unpack f f;
#X obj 35 715 outlet;
#X obj 35 225 mrpeach/routeOSC /touch1;
#X obj 638 228 mrpeach/routeOSC /touch2;
#X obj 970 235 mrpeach/routeOSC /touch3;
#X obj 1150 235 mrpeach/routeOSC /touch4;
#X obj 140 65 cnv 15 251 112 empty empty empty 20 12 0 14 #363030 #404040
0;
#X obj 140 55 cnv 15 252 17 empty empty MODULO\ M\ táctil. 79 7 2
12 #62a0d0 #ffffff 0;
#X obj 165 125 bng 10 250 50 0 parte1 \$0-dispret1 1\ contacto -8 -11
1 9 #fcfcfc #000000 #14c9ff;
#X obj 291 124 bng 12 250 50 0 empty disp3 3\ contactos -12 -10 1 9
#fcfcfc #000000 #14c9ff;
#X obj 348 124 bng 12 250 50 0 empty disp4 \ 4\ contactos -13 -10 1
9 #fcfcfc #000000 #14c9ff;
#X obj 232 124 bng 12 250 50 0 parte2 \$0-dispret4 2\ contactos\ \ \ \ \ \ \ \ \ \ \ \ \ \ \ 
-12 -10 1 9 #fcfcfc #000000 #14c9e1;
#X obj 35 255 unpack f f, f 17;
#X obj 175 80 nbx 3 12 0 127 0 0 empty \$0-tacx1 EJE\ X -25 5 1 8 #1e3076
#ffffff #fffafa 0 256 3;
#X obj 35 350 bng 15 250 50 0 empty empty empty 17 7 0 10 #fcfcfc #000000
#000000;
#X obj 175 95 nbx 3 12 0 127 0 0 empty \$0-tacy1 EJE\ Y -23 5 1 8 #162550
#ffffff #ffffff 0 256 3;
#X obj 224 94 nbx 3 12 0 127 0 0 empty tacx2 empty 0 -8 0 10 #2b3c7e
#ffffff #000000 0 256 3;
#X obj 224 79 nbx 3 12 0 127 0 0 empty tacy2 empty 0 -8 0 10 #2b3c7e
#ffffff #000000 0 256 3;
#X obj 349 94 nbx 3 12 0 127 0 0 empty tacy4 empty 0 -8 0 10 #2b3c7e
#ffffff #000000 0 256 3;
#X obj 349 80 nbx 3 12 0 127 0 0 empty tacx4 empty 0 -8 0 10 #2b3c7e
#ffffff #000000 0 256 3;
#X obj 289 80 nbx 3 13 0 127 0 0 empty tacx3 empty 0 -8 0 10 #263369
#ffffff #000000 0 256 3;
#X obj 290 95 nbx 3 12 0 127 0 0 empty tacy3 empty 0 -8 0 10 #243a70
#ffffff #000000 0 256 3;
#X obj 40 200 cnv 15 862 14 empty empty empty 20 12 0 14 #af4141 #404040
0;
#X obj 35 630 debounce 1000;
#X obj 150 330 sel -1;
#X obj 150 355 bng 15 250 50 0 empty empty empty 17 7 0 10 #fcfcfc
#000000 #000000;
#X floatatom 110 460 6 0 0 0 - - -, f 6;
#X obj 35 280 clip 0 255;
#X floatatom 35 310 5 0 0 0 - - -, f 5;
#X obj 165 490 bng 15 250 50 0 empty empty empty 17 7 0 10 #fcfcfc
#000000 #000000;
#X obj 200 490 bng 15 250 50 0 empty empty empty 17 7 0 10 #fcfcfc
#000000 #000000;
#X obj 300 490 bng 15 250 50 0 empty empty empty 17 7 0 10 #fcfcfc
#000000 #000000;
#X obj 164 140 bng 14 250 50 0 parte1 \$0-dispret2 Pres.\ time 20 6
2 9 #fcfcfc #000000 #14c9ff;
#X obj 164 158 bng 16 250 50 0 parte1 \$0-dispret3 empty -8 -11 1 9
#fcfcfc #000000 #14c9ff;
#X obj 35 595 spigot;
#X msg 90 560 1;
#X msg 120 560 0;
#X obj 155 555 del 500;
#X obj 160 520 t b b;
#X obj 440 492 bng 15 250 50 0 empty empty empty 17 7 0 10 #fcfcfc
#000000 #000000;
#X obj 205 310 maxlib/scale 0 1 0 127;
#X floatatom 205 335 5 0 0 0 - - -, f 5;
#X obj 205 360 maxlib/scale 0 1 0 127;
#X floatatom 205 385 5 0 0 0 - - -, f 5;
#X obj 638 258 unpack f f;
#X floatatom 750 305 5 0 0 0 - - -, f 5;
#X obj 635 370 bng 15 250 50 0 empty empty empty 17 7 0 10 #fcfcfc
#000000 #000000;
#X obj 635 650 debounce 1000;
#X obj 750 335 sel -1;
#X obj 750 360 bng 15 250 50 0 empty empty empty 17 7 0 10 #fcfcfc
#000000 #000000;
#X obj 725 430 timer;
#X floatatom 725 467 5 0 0 0 - - -, f 5;
#X obj 635 285 clip 0 255;
#X floatatom 635 315 5 0 0 0 - - -, f 5;
#X obj 765 505 bng 15 250 50 0 empty empty empty 17 7 0 10 #fcfcfc
#000000 #000000;
#X obj 838 505 bng 15 250 50 0 empty empty empty 17 7 0 10 #fcfcfc
#000000 #000000;
#X obj 903 505 bng 15 250 50 0 empty empty empty 17 7 0 10 #fcfcfc
#000000 #000000;
#X obj 635 615 spigot;
#X msg 690 580 1;
#X msg 720 580 0;
#X obj 755 575 del 500;
#X obj 693 544 t b b;
#X obj 983 505 bng 15 250 50 0 empty empty empty 17 7 0 10 #fcfcfc
#000000 #000000;
#X obj 805 315 maxlib/scale 0 1 0 127;
#X floatatom 805 340 5 0 0 0 - - -, f 5;
#X obj 805 365 maxlib/scale 0 1 0 127;
#X floatatom 805 395 5 0 0 0 - - -, f 5;
#X obj 231 140 bng 14 250 50 0 parte1 \$0-dispret5 Pres.\ time 20 6
2 9 #fcfcfc #000000 #14c9ff;
#X obj 230 157 bng 16 250 50 0 parte1 \$0-dispret6 empty -8 -11 1 9
#fcfcfc #000000 #14c9ff;
#X obj 300 595 spigot;
#X msg 309 558 1;
#X msg 339 558 0;
#X obj 312 522 t b b;
#X obj 383 588 spigot;
#X msg 438 553 1;
#X msg 468 553 0;
#X obj 441 517 t b b;
#X obj 374 553 del 2000;
#X obj 503 548 del 2000;
#X obj 35 670 s \$0-disp1;
#X obj 245 335 s \$0-tacx1;
#X obj 245 385 s \$0-tacy1;
#X obj 210 715 s \$0-dispret1;
#X obj 315 715 s \$0-dispret2;
#X obj 425 715 s \$0-dispret3;
#X obj 845 395 s \$0-tacy2;
#X obj 845 340 s \$0-tacx2;
#X obj 815 710 s \$0-dispret4;
#X obj 635 710 s \$0-disp2;
#X obj 930 710 s $-dispret5;
#X obj 1035 710 s \$0-dispret6;
#N canvas 254 295 1174 368 \$0-condicional-taltil1 0;
#X obj 40 20 inlet;
#X obj 40 60 expr if ($f1 < 1000 \, 1 \, 0);
#X obj 40 95 sel 1;
#X obj 40 200 outlet;
#X obj 235 200 outlet;
#X obj 40 135 debounce 1000;
#X obj 235 135 debounce 1000;
#X obj 545 205 outlet;
#X obj 865 205 outlet;
#X obj 865 140 debounce 1000;
#X obj 865 100 sel 4;
#X obj 860 60 expr if ($f1 > 5001 \, 4 \, 0);
#X obj 235 60 expr if ($f1 > 1001 && $f1 < 2000 \, 2 \, 0);
#X obj 540 60 expr if ($f1 > 2001 && $f1 < 3000 \, 3 \, 0);
#X obj 670 125 bng 15 250 50 0 empty empty empty 17 7 0 10 #fcfcfc
#000000 #000000;
#X obj 545 140 debounce 1000;
#X obj 395 150 bng 15 250 50 0 empty empty empty 17 7 0 10 #fcfcfc
#000000 #000000;
#X obj 545 100 change 3;
#X obj 235 95 sel 2;
#X connect 0 0 1 0;
#X connect 0 0 11 0;
#X connect 0 0 12 0;
#X connect 0 0 13 0;
#X connect 1 0 2 0;
#X connect 2 0 5 0;
#X connect 5 0 3 0;
#X connect 6 0 4 0;
#X connect 9 0 8 0;
#X connect 10 0 9 0;
#X connect 11 0 10 0;
#X connect 12 0 18 0;
#X connect 13 0 17 0;
#X connect 15 0 7 0;
#X connect 17 0 14 0;
#X connect 17 0 15 0;
#X connect 18 0 6 0;
#X connect 18 0 16 0;
#X restore 765 465 pd \$0-condicional-taltil1;
#N canvas 266 132 1174 368 \$0-condicional-taltil 0;
#X obj 40 20 inlet;
#X obj 40 95 sel 1;
#X obj 40 200 outlet;
#X obj 235 200 outlet;
#X obj 40 135 debounce 1000;
#X obj 235 135 debounce 1000;
#X obj 545 205 outlet;
#X obj 545 140 debounce 1000;
#X obj 235 95 sel 2;
#X obj 545 100 sel 3;
#X obj 865 205 outlet;
#X obj 865 140 debounce 1000;
#X obj 865 100 sel 4;
#X floatatom 367 111 5 0 0 0 - - -, f 5;
#X floatatom 210 30 5 0 0 0 - - -, f 5;
#X obj 40 60 expr if ($f1 < 500 \, 1 \, 0);
#X obj 235 60 expr if ($f1 > 600 && $f1 <2000 \, 2 \, 0);
#X obj 540 60 expr if ($f1 > 2001 && $f1 < 3000 \, 3 \, 0);
#X obj 860 60 expr if ($f1 > 3001 \, 4 \, 0);
#X connect 0 0 14 0;
#X connect 0 0 15 0;
#X connect 0 0 16 0;
#X connect 0 0 17 0;
#X connect 0 0 18 0;
#X connect 1 0 4 0;
#X connect 4 0 2 0;
#X connect 5 0 3 0;
#X connect 7 0 6 0;
#X connect 8 0 5 0;
#X connect 9 0 7 0;
#X connect 11 0 10 0;
#X connect 12 0 11 0;
#X connect 15 0 1 0;
#X connect 16 0 8 0;
#X connect 16 0 13 0;
#X connect 17 0 9 0;
#X connect 18 0 12 0;
#X restore 165 460 pd \$0-condicional-taltil;
#X obj 110 425 timer;
#X obj 645 395 debounce 4000;
#X obj 140 670 bng 15 250 50 0 empty empty empty 17 7 0 10 #fcfcfc
#000000 #000000;
#X obj 240 490 bng 15 250 50 0 empty empty empty 17 7 0 10 #fcfcfc
#000000 #000000;
#X obj 55 385 debounce 4000;
#X obj 140 715 s parte1;
#X obj 452 637 s touch3sec;
#X obj 310 140 tgl 34 0 empty empty empty 17 7 0 10 #fcfcfc #000000
#000000 0 1;
#X obj 230 230 loadbang;
#X connect 1 0 8 0;
#X connect 1 0 9 0;
#X connect 1 0 10 0;
#X connect 1 0 7 0;
#X connect 2 0 29 0;
#X connect 5 0 3 0;
#X connect 5 1 4 0;
#X connect 7 0 17 0;
#X connect 8 0 49 0;
#X connect 9 0 5 0;
#X connect 17 0 32 0;
#X connect 17 1 2 0;
#X connect 17 1 47 0;
#X connect 19 0 39 0;
#X connect 19 0 102 0;
#X connect 19 0 105 0;
#X connect 28 0 6 0;
#X connect 28 0 84 0;
#X connect 28 0 100 0;
#X connect 29 0 30 0;
#X connect 30 0 98 1;
#X connect 32 0 33 0;
#X connect 32 0 45 0;
#X connect 33 0 19 0;
#X connect 35 0 43 0;
#X connect 36 0 77 0;
#X connect 36 0 104 0;
#X connect 39 0 28 0;
#X connect 40 0 39 1;
#X connect 41 0 39 1;
#X connect 42 0 40 0;
#X connect 43 0 42 0;
#X connect 43 1 41 0;
#X connect 44 0 81 0;
#X connect 45 0 46 0;
#X connect 45 0 85 0;
#X connect 47 0 48 0;
#X connect 47 0 86 0;
#X connect 49 0 57 0;
#X connect 49 1 50 0;
#X connect 50 0 53 0;
#X connect 51 0 62 0;
#X connect 51 0 99 0;
#X connect 52 0 93 0;
#X connect 53 0 54 0;
#X connect 54 0 55 1;
#X connect 55 0 56 0;
#X connect 55 0 96 0;
#X connect 57 0 58 0;
#X connect 57 0 68 0;
#X connect 58 0 51 0;
#X connect 60 0 66 0;
#X connect 60 0 77 0;
#X connect 60 0 81 0;
#X connect 61 0 77 0;
#X connect 61 0 81 0;
#X connect 62 0 52 0;
#X connect 63 0 62 1;
#X connect 64 0 62 1;
#X connect 65 0 63 0;
#X connect 66 0 65 0;
#X connect 66 1 64 0;
#X connect 67 0 77 0;
#X connect 67 0 81 0;
#X connect 68 0 69 0;
#X connect 68 0 91 0;
#X connect 70 0 71 0;
#X connect 70 0 90 0;
#X connect 74 0 88 0;
#X connect 75 0 74 1;
#X connect 76 0 74 1;
#X connect 77 0 82 0;
#X connect 77 1 76 0;
#X connect 78 0 89 0;
#X connect 79 0 78 1;
#X connect 80 0 78 1;
#X connect 81 0 83 0;
#X connect 81 1 80 0;
#X connect 82 0 75 0;
#X connect 83 0 79 0;
#X connect 96 0 59 0;
#X connect 96 1 60 0;
#X connect 96 1 92 0;
#X connect 96 2 61 0;
#X connect 96 2 94 0;
#X connect 96 3 67 0;
#X connect 96 3 95 0;
#X connect 97 0 34 0;
#X connect 97 1 35 0;
#X connect 97 1 87 0;
#X connect 97 2 74 0;
#X connect 97 2 101 0;
#X connect 97 3 78 0;
#X connect 97 3 36 0;
#X connect 98 0 31 0;
#X connect 98 0 97 0;
#X connect 99 0 55 0;
#X connect 100 0 103 0;
#X connect 102 0 98 0;
#X connect 106 0 40 0;
#X coords 0 -1 1 1 267 137 2 132 48;
