#N canvas 783 188 489 405 12;
#X obj 50 160 unpack f f f;
#X obj 50 50 inlet;
#X obj 50 130 mrpeach/routeOSC /muse/gyro;
#X obj 170 50 inlet;
#X obj 50 270 outlet;
#X obj 110 270 outlet;
#X obj 170 270 outlet;
#X text 50 10 valores girocopio muse 2 mind monitor;
#X floatatom 250 80 5 0 0 0 - - -, f 5;
#X obj 50 200 mavg 1;
#X obj 110 200 mavg 1;
#X obj 180 200 mavg 1;
#X connect 0 0 9 0;
#X connect 0 1 10 0;
#X connect 0 2 11 0;
#X connect 1 0 2 0;
#X connect 2 0 0 0;
#X connect 3 0 9 1;
#X connect 3 0 10 1;
#X connect 3 0 11 1;
#X connect 9 0 4 0;
#X connect 10 0 5 0;
#X connect 11 0 6 0;
