#N canvas 764 53 576 705 12;
#X obj 40 60 inlet;
#X obj 40 610 outlet;
#X obj 160 530 outlet;
#X obj 271 530 outlet;
#X obj 388 599 outlet;
#X text 428 569 TP10;
#X text 68 579 TP9;
#X floatatom 157 191 5 0 0 0 - - -, f 5;
#X floatatom 272 191 5 0 0 0 - - -, f 5;
#X floatatom 382 191 5 0 0 0 - - -, f 5;
#X floatatom 40 190 5 0 0 0 - - -, f 5;
#X obj 42 101 mrpeach/routeOSC /muse/elements/theta_absolute;
#X obj 38 559 s AbthetaTP9;
#X obj 388 549 s AbthetaTP10;
#X text 40 10 valores absolutos PSD theta el primero es el valor promedio
y los siguientes son para cada sensor;
#X obj 42 141 unpack f f f f, f 49;
#X obj 40 290 mavg;
#X obj 60 230 * 1000;
#X floatatom 40 349 5 0 0 0 - - -, f 5;
#X obj 160 290 mavg;
#X obj 170 230 * 1000;
#X floatatom 160 349 5 0 0 0 - - -, f 5;
#X obj 270 290 mavg;
#X obj 290 230 * 1000;
#X floatatom 270 349 5 0 0 0 - - -, f 5;
#X obj 385 290 mavg;
#X obj 400 230 * 1000;
#X floatatom 385 349 5 0 0 0 - - -, f 5;
#X obj 41 452 spigot;
#X obj 161 452 spigot;
#X obj 271 452 spigot;
#X obj 387 451 spigot;
#X obj 450 430 r thetacomp;
#X obj 156 479 s AbthetaAF7;
#X text 176 499 AFP7;
#X obj 270 480 s AbthetaAF8;
#X text 300 499 AFP8;
#X text 40 640 promediotheta opcional;
#X obj 410 260 r senPSD;
#X connect 0 0 11 0;
#X connect 7 0 20 0;
#X connect 7 0 19 0;
#X connect 8 0 23 0;
#X connect 8 0 22 0;
#X connect 9 0 26 0;
#X connect 9 0 25 0;
#X connect 10 0 17 0;
#X connect 10 0 16 0;
#X connect 11 0 15 0;
#X connect 15 0 10 0;
#X connect 15 1 7 0;
#X connect 15 2 8 0;
#X connect 15 3 9 0;
#X connect 16 0 18 0;
#X connect 18 0 28 0;
#X connect 19 0 21 0;
#X connect 21 0 29 0;
#X connect 22 0 24 0;
#X connect 24 0 30 0;
#X connect 25 0 27 0;
#X connect 27 0 31 0;
#X connect 28 0 12 0;
#X connect 28 0 1 0;
#X connect 29 0 2 0;
#X connect 29 0 33 0;
#X connect 30 0 3 0;
#X connect 30 0 35 0;
#X connect 31 0 13 0;
#X connect 31 0 4 0;
#X connect 32 0 28 1;
#X connect 32 0 29 1;
#X connect 32 0 30 1;
#X connect 32 0 31 1;
#X connect 38 0 16 1;
#X connect 38 0 19 1;
#X connect 38 0 22 1;
#X connect 38 0 25 1;
