#N canvas 444 109 572 722 12;
#X obj 32 584 outlet;
#X obj 148 530 outlet;
#X obj 266 530 outlet;
#X obj 386 570 outlet;
#X obj 32 64 inlet;
#X text 416 550 TP10;
#X text 60 550 TP9;
#X floatatom 147 184 5 0 0 0 - - -, f 5;
#X floatatom 262 184 5 0 0 0 - - -, f 5;
#X floatatom 377 184 5 0 0 0 - - -, f 5;
#X floatatom 30 190 5 0 0 0 - - -, f 5;
#X text 32 14 valores absolutos PSD gamma el primero es el valor promedio
y los siguientes son para cada sensor;
#X obj 32 94 mrpeach/routeOSC /muse/elements/gamma_absolute;
#X obj 40 500 s AbgammaTP9;
#X obj 390 500 s AbgammaTP10;
#X obj 32 134 unpack f f f f, f 50;
#X obj 30 291 mavg;
#X obj 60 220 * 1000;
#X floatatom 30 350 5 0 0 0 - - -, f 5;
#X obj 146 291 mavg;
#X obj 170 220 * 1000;
#X floatatom 146 350 5 0 0 0 - - -, f 5;
#X obj 263 291 mavg;
#X obj 280 220 * 1000;
#X floatatom 263 350 5 0 0 0 - - -, f 5;
#X obj 380 291 mavg;
#X obj 400 220 * 1000;
#X floatatom 380 350 5 0 0 0 - - -, f 5;
#X obj 27 425 spigot;
#X obj 147 425 spigot;
#X obj 265 425 spigot;
#X obj 383 429 spigot;
#X obj 450 400 r gammacomp;
#X obj 148 480 s AbgammaAF7;
#X text 168 500 AFP7;
#X obj 264 480 s AbgammaAF8;
#X text 284 500 AFP8;
#X text 20 610 promediogamma opcional;
#X obj 460 260 r senPSD;
#X connect 4 0 12 0;
#X connect 7 0 20 0;
#X connect 7 0 19 0;
#X connect 8 0 23 0;
#X connect 8 0 22 0;
#X connect 9 0 26 0;
#X connect 9 0 25 0;
#X connect 10 0 17 0;
#X connect 10 0 16 0;
#X connect 12 0 15 0;
#X connect 15 0 10 0;
#X connect 15 1 7 0;
#X connect 15 2 8 0;
#X connect 15 3 9 0;
#X connect 16 0 18 0;
#X connect 18 0 28 0;
#X connect 19 0 21 0;
#X connect 21 0 29 0;
#X connect 22 0 24 0;
#X connect 24 0 30 0;
#X connect 25 0 27 0;
#X connect 27 0 31 0;
#X connect 28 0 13 0;
#X connect 28 0 0 0;
#X connect 29 0 1 0;
#X connect 29 0 33 0;
#X connect 30 0 2 0;
#X connect 30 0 35 0;
#X connect 31 0 14 0;
#X connect 31 0 3 0;
#X connect 32 0 28 1;
#X connect 32 0 29 1;
#X connect 32 0 30 1;
#X connect 32 0 31 1;
#X connect 38 0 16 1;
#X connect 38 0 19 1;
#X connect 38 0 22 1;
#X connect 38 0 25 1;
