#N canvas 519 27 540 715 12;
#X obj 50 580 outlet;
#X obj 160 519 outlet;
#X obj 277 519 outlet;
#X obj 390 600 outlet;
#X obj 46 61 inlet;
#X text 420 539 TP10;
#X text 74 529 TP9;
#X floatatom 276 180 5 0 0 0 - - -, f 5;
#X floatatom 391 180 5 0 0 0 - - -, f 5;
#X floatatom 50 180 5 0 0 0 - - -, f 5;
#X obj 46 91 mrpeach/routeOSC /muse/elements/beta_absolute;
#X obj 54 509 s AbbetaTP9;
#X obj 390 519 s AbbetaTP10;
#X obj 46 131 unpack f f f f, f 50;
#X obj 50 301 mavg;
#X obj 70 220 * 1000;
#X floatatom 50 360 5 0 0 0 - - -, f 5;
#X obj 160 301 mavg;
#X obj 180 220 * 1000;
#X floatatom 160 360 5 0 0 0 - - -, f 5;
#X obj 276 301 mavg;
#X obj 300 220 * 1000;
#X floatatom 276 360 5 0 0 0 - - -, f 5;
#X obj 390 300 mavg;
#X obj 410 220 * 1000;
#X floatatom 390 360 5 0 0 0 - - -, f 5;
#X floatatom 160 180 5 0 0 0 - - -, f 5;
#X obj 51 442 spigot;
#X obj 160 442 spigot;
#X obj 276 442 spigot;
#X obj 392 441 spigot;
#X obj 450 420 r betacomp;
#X text 46 11 valores absolutos PSD BEta el primero es el valor promedio
y los siguientes son para cada sensor;
#X obj 160 469 s AbbetaAF7;
#X text 180 489 AFP7;
#X obj 277 469 s AbbetaAF8;
#X text 297 489 AFP8;
#X text 40 610 promediobeta opcional;
#X obj 440 280 r senPSD;
#X connect 4 0 10 0;
#X connect 7 0 21 0;
#X connect 7 0 20 0;
#X connect 8 0 24 0;
#X connect 8 0 23 0;
#X connect 9 0 15 0;
#X connect 9 0 14 0;
#X connect 10 0 13 0;
#X connect 13 0 9 0;
#X connect 13 1 26 0;
#X connect 13 2 7 0;
#X connect 13 3 8 0;
#X connect 14 0 16 0;
#X connect 16 0 27 0;
#X connect 17 0 19 0;
#X connect 19 0 28 0;
#X connect 20 0 22 0;
#X connect 22 0 29 0;
#X connect 23 0 25 0;
#X connect 25 0 30 0;
#X connect 26 0 18 0;
#X connect 26 0 17 0;
#X connect 27 0 11 0;
#X connect 27 0 0 0;
#X connect 28 0 1 0;
#X connect 28 0 33 0;
#X connect 29 0 2 0;
#X connect 29 0 35 0;
#X connect 30 0 12 0;
#X connect 30 0 3 0;
#X connect 31 0 27 1;
#X connect 31 0 28 1;
#X connect 31 0 29 1;
#X connect 31 0 30 1;
#X connect 38 0 14 1;
#X connect 38 0 17 1;
#X connect 38 0 20 1;
#X connect 38 0 23 1;
