#N canvas 565 112 556 660 12;
#X obj 41 50 inlet;
#X obj 36 600 outlet;
#X obj 160 540 outlet;
#X obj 270 540 outlet;
#X obj 390 598 outlet;
#X text 418 568 TP10;
#X text 67 578 TP9;
#X floatatom 157 182 5 0 0 0 - - -, f 5;
#X floatatom 268 182 5 0 0 0 - - -, f 5;
#X floatatom 384 182 5 0 0 0 - - -, f 5;
#X floatatom 40 180 5 0 0 0 - - -, f 5;
#X obj 388 548 s AbalphaTP10;
#X obj 42 92 mrpeach/routeOSC /muse/elements/alpha_absolute;
#X text 40 10 valores absolutos PSD alpha el primero es el valor promedio
y los siguientes son para cada sensor;
#X obj 42 132 unpack f f f f, f 49;
#X obj 40 281 mavg;
#X obj 70 220 * 1000;
#X floatatom 40 340 5 0 0 0 - - -, f 5;
#X obj 157 281 mavg;
#X obj 180 220 * 1000;
#X floatatom 157 340 5 0 0 0 - - -, f 5;
#X obj 270 281 mavg;
#X obj 290 220 * 1000;
#X floatatom 270 340 5 0 0 0 - - -, f 5;
#X obj 385 281 mavg;
#X obj 420 220 * 1000;
#X floatatom 385 340 5 0 0 0 - - -, f 5;
#X obj 37 452 spigot;
#X obj 157 452 spigot;
#X obj 270 450 spigot;
#X obj 387 451 spigot;
#X obj 450 410 r alphacomp;
#X obj 37 558 s AbalphaTP9;
#X obj 170 490 s AbalphaAF7;
#X text 173 507 AFP7;
#X obj 280 490 s AbalphaAF8;
#X text 296 507 AFP8;
#X text 30 620 promedioalpha opcional;
#X obj 420 260 r senPSD;
#X connect 0 0 12 0;
#X connect 7 0 19 0;
#X connect 7 0 18 0;
#X connect 8 0 22 0;
#X connect 8 0 21 0;
#X connect 9 0 25 0;
#X connect 9 0 24 0;
#X connect 10 0 16 0;
#X connect 10 0 15 0;
#X connect 12 0 14 0;
#X connect 14 0 10 0;
#X connect 14 1 7 0;
#X connect 14 2 8 0;
#X connect 14 3 9 0;
#X connect 15 0 17 0;
#X connect 17 0 27 0;
#X connect 18 0 20 0;
#X connect 20 0 28 0;
#X connect 21 0 23 0;
#X connect 23 0 29 0;
#X connect 24 0 26 0;
#X connect 26 0 30 0;
#X connect 27 0 1 0;
#X connect 27 0 32 0;
#X connect 28 0 2 0;
#X connect 28 0 33 0;
#X connect 29 0 3 0;
#X connect 29 0 35 0;
#X connect 30 0 11 0;
#X connect 30 0 4 0;
#X connect 31 0 27 1;
#X connect 31 0 28 1;
#X connect 31 0 29 1;
#X connect 31 0 30 1;
#X connect 38 0 15 1;
#X connect 38 0 18 1;
#X connect 38 0 21 1;
#X connect 38 0 24 1;
