#N canvas 96 192 920 512 10;
#N canvas 111 106 1213 643 wimumodatav3 0;
#X obj 51 51 oscwimu;
#X obj 52 133 wimumoER;
#X obj 420 130 WIMUMOEA;
#X obj 909 489 tilt;
#X obj 909 514 temperature;
#N canvas 135 23 1305 530 guisfxwimumo 0;
#X msg 51 120 24 127;
#X msg 94 120 24 0;
#X obj 51 17 r minmaxrojo;
#X obj 51 249 r minmaxrojo2;
#X obj 51 69 t b b;
#X obj 94 94 delay 4000;
#X msg 53 328 24 127;
#X msg 94 331 24 0;
#X obj 53 285 t b b;
#X obj 94 305 delay 4000;
#X obj 129 120 s calirojo;
#X obj 135 328 s caliamarillo;
#X obj 206 26 r sfxrojo;
#X obj 206 60 t b b;
#X obj 249 86 delay 4000;
#X msg 206 120 25 127;
#X msg 249 120 25 0;
#X obj 231 283 t b b;
#X obj 274 300 delay 4000;
#X msg 231 326 25 127;
#X msg 278 326 25 0;
#X obj 231 249 r sfxamarillo;
#X text 51 0 SFX calibracion electrodo rojo envolvente;
#X text 394 9 SFX calibracion electrodo rojo raw;
#X obj 394 43 r minmaxrojoraw;
#X obj 394 69 t b b;
#X obj 440 87 delay 4000;
#X obj 480 111 s calirojoraw;
#X obj 437 291 t b b;
#X obj 478 311 delay 4000;
#X obj 437 257 r minmaxrojoraw2;
#X text 437 231 SFX calibracion electrodo amarillo raw;
#X obj 519 334 s caliamarilloraw;
#X obj 814 34 r maxraw;
#X obj 814 77 sel 1;
#X obj 583 43 r sfxrawcalirojo;
#X obj 583 69 t b b;
#X msg 583 111 26 127;
#X msg 626 111 26 0;
#X obj 643 283 t b b;
#X obj 643 257 r sfxrawcaliamarillo;
#X obj 686 300 delay 3000;
#X obj 626 86 delay 3000;
#X msg 643 334 26 127;
#X msg 686 334 26 0;
#X obj 814 103 t b b;
#X msg 814 180 27 127;
#X msg 857 180 27 0;
#X obj 951 77 sel 0;
#X obj 951 103 t b b;
#X msg 951 180 28 127;
#X msg 994 180 28 0;
#X obj 814 309 sel 1;
#X obj 814 334 t b b;
#X msg 814 394 27 127;
#X msg 857 394 27 0;
#X obj 951 309 sel 0;
#X obj 951 334 t b b;
#X msg 951 394 28 127;
#X msg 994 394 28 0;
#X text 814 231 SFX condicional limites amarillo;
#X obj 814 257 r maxraw2;
#X obj 51 197 noteout 3;
#X obj 51 420 noteout 3;
#X obj 814 137 del 3000;
#X obj 857 154 del 4000;
#X obj 951 137 del 3000;
#X obj 994 154 del 4000;
#X obj 814 369 del 3000;
#X obj 874 369 delay 4000;
#X obj 951 369 del 3000;
#X obj 1011 369 delay 4000;
#X obj 814 283 expr if ($f1 < 1800 && $f1 > 1000 \, 1 \, 0);
#X text 814 9 sfx condicional limites rojo;
#X text 51 231 SFX calibracion electrodo amarllo envolvente;
#X msg 397 113 29 127;
#X msg 440 113 29 0;
#X msg 437 334 29 127;
#X msg 479 334 29 0;
#X obj 814 60 expr if ($f1 > 1000 && $f1 < 1700 \, 1 \, 0);
#X obj 771 9 cnv 15 14 486 empty empty empty 20 12 0 14 #3e3737 #404040
0;
#X connect 0 0 62 0;
#X connect 1 0 62 0;
#X connect 2 0 4 0;
#X connect 3 0 8 0;
#X connect 4 0 5 0;
#X connect 4 1 0 0;
#X connect 5 0 1 0;
#X connect 5 0 10 0;
#X connect 6 0 63 0;
#X connect 7 0 63 0;
#X connect 8 0 9 0;
#X connect 8 1 6 0;
#X connect 9 0 7 0;
#X connect 9 0 11 0;
#X connect 12 0 13 0;
#X connect 13 0 14 0;
#X connect 13 1 15 0;
#X connect 14 0 16 0;
#X connect 15 0 62 0;
#X connect 16 0 62 0;
#X connect 17 0 18 0;
#X connect 17 1 19 0;
#X connect 18 0 20 0;
#X connect 19 0 63 0;
#X connect 20 0 63 0;
#X connect 21 0 17 0;
#X connect 24 0 25 0;
#X connect 25 0 26 0;
#X connect 25 1 75 0;
#X connect 26 0 76 0;
#X connect 26 0 27 0;
#X connect 28 0 29 0;
#X connect 28 1 77 0;
#X connect 29 0 78 0;
#X connect 29 0 32 0;
#X connect 30 0 28 0;
#X connect 33 0 79 0;
#X connect 34 0 45 0;
#X connect 35 0 36 0;
#X connect 36 0 42 0;
#X connect 36 1 37 0;
#X connect 37 0 62 0;
#X connect 38 0 62 0;
#X connect 39 0 41 0;
#X connect 39 1 43 0;
#X connect 40 0 39 0;
#X connect 41 0 44 0;
#X connect 42 0 38 0;
#X connect 43 0 63 0;
#X connect 44 0 63 0;
#X connect 45 0 65 0;
#X connect 45 1 64 0;
#X connect 46 0 62 0;
#X connect 47 0 62 0;
#X connect 48 0 49 0;
#X connect 49 0 67 0;
#X connect 49 1 66 0;
#X connect 50 0 62 0;
#X connect 51 0 62 0;
#X connect 52 0 53 0;
#X connect 53 0 69 0;
#X connect 53 1 68 0;
#X connect 54 0 63 0;
#X connect 55 0 63 0;
#X connect 56 0 57 0;
#X connect 57 0 71 0;
#X connect 57 1 70 0;
#X connect 58 0 63 0;
#X connect 59 0 63 0;
#X connect 61 0 72 0;
#X connect 64 0 46 0;
#X connect 65 0 47 0;
#X connect 66 0 50 0;
#X connect 67 0 51 0;
#X connect 68 0 54 0;
#X connect 69 0 55 0;
#X connect 70 0 58 0;
#X connect 71 0 59 0;
#X connect 72 0 52 0;
#X connect 72 0 56 0;
#X connect 75 0 62 0;
#X connect 76 0 62 0;
#X connect 77 0 63 0;
#X connect 78 0 63 0;
#X connect 79 0 34 0;
#X connect 79 0 48 0;
#X restore 959 236 pd guisfxwimumo;
#X obj 51 13 cnv 15 866 38 empty empty WIMUMO-DATA\ version\ 3.1 283
16 1 20 #000000 #d6d5f0 0;
#X text 1062 236 guiSFX;
#X obj 816 57 cnv 15 101 222 empty empty CONTROL\ \ PANEL 10 9 1 10
#000000 #c1e6e6 0;
#X obj 820 88 tgl 15 0 empty rapidorojo RRVE\  22 7 0 9 #fe6262 #000000
#ffffff 0 1;
#X obj 820 330 tgl 17 0 RMRE-on empty RMRE\ out 25 7 0 10 #dd6464 #000000
#ffffff 0 1;
#X obj 420 460 spigot, f 9;
#X obj 360 460 spigot;
#X obj 470 440 r RMRE-on;
#X obj 400 440 r RMRE-on;
#N canvas 286 25 980 603 IMRRVE 0;
#X msg 16 291 36 127;
#X msg 68 291 36 0;
#X obj 17 86 bng 15 250 50 0 empty empty empty 17 7 0 10 #fcfcfc #000000
#000000;
#X obj 17 0 inlet;
#X obj 20 340 noteout 2;
#X msg 102 291 37 127;
#X msg 145 291 37 0;
#X msg 183 291 38 127;
#X msg 226 291 38 0;
#X msg 270 290 39 127;
#X msg 320 290 39 0;
#X msg 370 290 40 127;
#X msg 422 290 40 0;
#X msg 470 290 41 127;
#X msg 521 290 41 0;
#X msg 580 290 42 127;
#X msg 631 290 42 0;
#X obj 13 388 bng 15 250 50 0 empty empty empty 17 7 0 10 #fcfcfc #000000
#000000;
#X obj 90 560 noteout 2;
#X obj 13 500 del 1000;
#X obj 99 500 del 1000;
#X obj 176 500 del 1000;
#X obj 253 500 del 1000;
#X obj 330 500 del 1000;
#X obj 416 500 del 1000;
#X obj 502 500 del 1000;
#X msg 99 474 45 127;
#X msg 142 474 45 0;
#X msg 176 474 46 127;
#X msg 219 474 46 0;
#X msg 253 474 47 127;
#X msg 296 474 47 0;
#X msg 330 474 48 127;
#X msg 382 474 48 0;
#X msg 416 474 49 127;
#X msg 467 474 49 0;
#X floatatom 380 140 5 0 0 0 - - -, f 5;
#X obj 446 9 inlet;
#X obj 446 146 bng 15 250 50 0 empty empty empty 17 7 0 10 #fcfcfc
#000000 #000000;
#X text 51 0 canal 1 rojo;
#X text 497 9 canal 2 amarillo;
#X floatatom 125 440 5 0 0 0 - - -, f 5;
#X text 94 129 SFX mov RAPIDO electrodo rojo;
#X text 90 406 SFX mov RAPIDO electrodo amarillo;
#X obj 26 26 cnv 15 277 12 empty empty empty 20 12 0 14 #ff0000 #404040
0;
#X obj 30 388 cnv 15 277 12 empty empty empty 20 12 0 14 #fff700 #404040
0;
#X obj 596 500 del 1000;
#X obj 13 440 route 0 1 2 3 4;
#X obj 13 406 shuffle 0 5;
#X msg 596 474 51 127;
#X msg 647 474 51 0;
#X obj 17 154 route 0 1 2 3 4 5 6, f 53;
#X obj 17 129 shuffle 0 7;
#X obj 16 109 debounce 200;
#X obj 459 418 bng 15 250 50 0 empty empty empty 17 7 0 10 #fcfcfc
#000000 #000000;
#X msg 13 474 45 127;
#X msg 65 474 45 0;
#X msg 690 290 42 127;
#X msg 741 290 42 0;
#X msg 502 474 51 127;
#X msg 553 474 51 0;
#X obj 283 129 s atrap1;
#X obj 446 120 spigot;
#X msg 489 86 1;
#X msg 523 86 0;
#X obj 609 9 loadbang;
#X obj 17 60 spigot;
#X obj 480 43 r rapidoamarillo;
#X obj 69 43 r rapidorojo;
#X obj 600 43 r GRC-onAm;
#X obj 189 43 r receiveGRC-onrojo;
#X text 60 69 recive de pd panel;
#X text 189 69 recive controlgeneral interaz;
#X text 480 60 recive de pd panel;
#X text 609 60 recive controlgeneral interaz;
#X obj 20 210 t b b;
#X obj 90 210 t b b;
#X obj 160 210 t b b;
#X obj 240 210 t b b;
#X obj 340 210 t b b;
#X obj 470 210 t b b;
#X obj 580 210 t b b;
#X obj 20 250 del 1000;
#X obj 90 250 del 1000;
#X obj 160 250 del 1000;
#X obj 240 250 del 1000;
#X obj 340 250 del 1000;
#X obj 470 250 del 1000;
#X obj 580 250 del 1000;
#X obj 690 210 t b b;
#X obj 690 250 del 1000;
#X connect 0 0 4 0;
#X connect 1 0 4 0;
#X connect 2 0 53 0;
#X connect 3 0 66 0;
#X connect 5 0 4 0;
#X connect 6 0 4 0;
#X connect 7 0 4 0;
#X connect 8 0 4 0;
#X connect 9 0 4 0;
#X connect 10 0 4 0;
#X connect 11 0 4 0;
#X connect 12 0 4 0;
#X connect 13 0 4 0;
#X connect 14 0 4 0;
#X connect 15 0 4 0;
#X connect 16 0 4 0;
#X connect 17 0 48 0;
#X connect 19 0 56 0;
#X connect 20 0 27 0;
#X connect 21 0 29 0;
#X connect 22 0 31 0;
#X connect 23 0 33 0;
#X connect 24 0 35 0;
#X connect 24 0 18 0;
#X connect 25 0 60 0;
#X connect 25 0 18 0;
#X connect 26 0 18 0;
#X connect 26 0 20 0;
#X connect 27 0 18 0;
#X connect 28 0 18 0;
#X connect 28 0 21 0;
#X connect 29 0 18 0;
#X connect 30 0 18 0;
#X connect 30 0 22 0;
#X connect 31 0 18 0;
#X connect 32 0 18 0;
#X connect 32 0 23 0;
#X connect 33 0 18 0;
#X connect 34 0 24 0;
#X connect 34 0 18 0;
#X connect 35 0 18 0;
#X connect 37 0 62 0;
#X connect 38 0 17 0;
#X connect 46 0 50 0;
#X connect 47 0 55 0;
#X connect 47 1 26 0;
#X connect 47 2 28 0;
#X connect 47 3 30 0;
#X connect 47 4 32 0;
#X connect 47 5 49 0;
#X connect 48 0 41 0;
#X connect 48 0 47 0;
#X connect 49 0 46 0;
#X connect 49 0 18 0;
#X connect 50 0 18 0;
#X connect 51 0 75 0;
#X connect 51 1 76 0;
#X connect 51 2 77 0;
#X connect 51 3 78 0;
#X connect 51 4 79 0;
#X connect 51 5 80 0;
#X connect 51 6 81 0;
#X connect 51 7 89 0;
#X connect 52 0 36 0;
#X connect 52 0 51 0;
#X connect 53 0 52 0;
#X connect 53 0 61 0;
#X connect 55 0 18 0;
#X connect 55 0 19 0;
#X connect 56 0 18 0;
#X connect 57 0 4 0;
#X connect 58 0 4 0;
#X connect 59 0 25 0;
#X connect 59 0 18 0;
#X connect 60 0 18 0;
#X connect 62 0 38 0;
#X connect 63 0 62 1;
#X connect 64 0 62 1;
#X connect 65 0 63 0;
#X connect 66 0 2 0;
#X connect 67 0 62 1;
#X connect 68 0 66 1;
#X connect 69 0 62 1;
#X connect 70 0 66 1;
#X connect 75 0 0 0;
#X connect 75 1 82 0;
#X connect 76 0 83 0;
#X connect 76 1 5 0;
#X connect 77 0 84 0;
#X connect 77 1 7 0;
#X connect 78 0 85 0;
#X connect 78 1 9 0;
#X connect 79 0 86 0;
#X connect 79 1 11 0;
#X connect 80 0 87 0;
#X connect 80 1 13 0;
#X connect 81 0 88 0;
#X connect 81 1 15 0;
#X connect 82 0 1 0;
#X connect 83 0 6 0;
#X connect 84 0 8 0;
#X connect 85 0 10 0;
#X connect 86 0 12 0;
#X connect 87 0 14 0;
#X connect 88 0 16 0;
#X connect 89 0 90 0;
#X connect 89 1 57 0;
#X connect 90 0 58 0;
#X restore 80 480 pd IMRRVE;
#N canvas 57 130 1280 612 IM 0;
#X obj 86 -325 sel 1;
#X floatatom 86 -479 5 0 0 0 - - -, f 5;
#X floatatom 137 -479 5 0 0 0 - - -, f 5;
#X obj 86 -393 &;
#X obj 146 -445 bng 15 250 50 0 empty empty empty 17 7 0 10 #fcfcfc
#000000 #000000;
#X obj 94 -299 bng 15 250 50 0 empty empty empty 17 7 0 10 #fcfcfc
#000000 #000000;
#X floatatom 197 -479 5 0 0 0 - - -, f 5;
#X obj 197 -445 sel 1;
#X msg 86 -196 60 127;
#X msg 197 -299 60 0;
#X obj 86 -553 t f f f;
#X obj 86 -256 onebang;
#X floatatom 111 -376 5 0 0 0 - - -, f 5;
#X obj 111 -222 bng 15 250 50 0 empty empty empty 17 7 0 10 #fcfcfc
#000000 #000000;
#X obj 137 -325 sel 0;
#X obj 146 -299 bng 15 250 50 0 empty empty empty 17 7 0 10 #fcfcfc
#000000 #000000;
#X text 180 -350 sistema de compuerta con onebang \; para que solo
pase un bang;
#X obj 86 -616 inlet;
#X obj 86 -123 noteout 4;
#X floatatom 129 -599 5 0 0 0 - - -, f 5;
#X obj 377 -453 hsl 128 15 0 127 0 0 empty empty empty -2 -8 0 10 #fcfcfc
#000000 #000000 0 1;
#X obj 351 -428 ctlout 36 4;
#X text 240 -556 mirar valores en 0 y 300 para ver como y cuando abrir
copuerta;
#X obj 351 -479 maxlib/scale 30 300 30 127;
#X obj 129 -582 hsl 128 15 0 300 0 0 empty empty empty -2 -8 0 10 #fcfcfc
#000000 #000000 0 1;
#X text 249 -582 tester;
#X floatatom 429 -428 5 0 0 0 - - -, f 5;
#X obj 591 -325 sel 1;
#X floatatom 591 -479 5 0 0 0 - - -, f 5;
#X floatatom 643 -479 5 0 0 0 - - -, f 5;
#X obj 591 -393 &;
#X obj 651 -445 bng 15 250 50 0 empty empty empty 17 7 0 10 #fcfcfc
#000000 #000000;
#X obj 600 -299 bng 15 250 50 0 empty empty empty 17 7 0 10 #fcfcfc
#000000 #000000;
#X floatatom 703 -479 5 0 0 0 - - -, f 5;
#X obj 703 -445 sel 1;
#X msg 591 -196 60 127;
#X msg 703 -299 60 0;
#X obj 591 -553 t f f f;
#X obj 591 -256 onebang;
#X floatatom 617 -376 5 0 0 0 - - -, f 5;
#X obj 617 -222 bng 15 250 50 0 empty empty empty 17 7 0 10 #fcfcfc
#000000 #000000;
#X obj 643 -325 sel 0;
#X obj 651 -299 bng 15 250 50 0 empty empty empty 17 7 0 10 #fcfcfc
#000000 #000000;
#X text 686 -350 sistema de compuerta con onebang \; para que solo
pase un bang;
#X obj 591 -616 inlet;
#X floatatom 634 -599 5 0 0 0 - - -, f 5;
#X obj 883 -453 hsl 128 15 0 127 0 0 empty empty empty -2 -8 0 10 #fcfcfc
#000000 #000000 0 1;
#X obj 857 -428 ctlout 36 4;
#X text 746 -556 mirar valores en 0 y 300 para ver como y cuando abrir
copuerta;
#X obj 857 -479 maxlib/scale 30 300 30 127;
#X obj 634 -582 hsl 128 15 0 300 0 0 empty empty empty -2 -8 0 10 #fcfcfc
#000000 #000000 0 1;
#X text 754 -582 tester;
#X obj 51 -608 cnv 15 17 518 empty empty empty 20 12 0 14 #ff0000 #404040
0;
#X obj 566 -608 cnv 15 17 518 empty empty empty 20 12 0 14 #e1ff00
#404040 0;
#X obj 591 -153 noteout 5;
#X text 741 -505 rangos para disparar audio;
#X text 240 -505 rangos para disparar audio;
#X obj 197 -505 < 150;
#X obj 137 -505 <= 200;
#X msg 206 -166 60 0;
#X obj 206 -256 r mmgvalfiltro;
#X floatatom 206 -230 5 0 0 0 - - -, f 5;
#X obj 206 -183 bng 15 250 50 0 empty empty empty 17 7 0 10 #fcfcfc
#000000 #000000;
#X text 304 -252 menasje desactivar audio dedos rapido \; cuando esfuerzo
pasa de 350;
#X msg 771 -209 60 0;
#X floatatom 771 -273 5 0 0 0 - - -, f 5;
#X obj 771 -299 r mmgvalfiltro2;
#X obj 643 -505 <= 220;
#X obj 703 -505 < 150;
#X obj 831 -200 bng 15 250 50 0 empty empty empty 17 7 0 10 #fcfcfc
#000000 #000000;
#X obj 206 -205 split 300 2000;
#X obj 771 -248 split 300 2000;
#X obj 591 -505 >= 180;
#X obj 86 -505 >= 180;
#X text 206 -616 contrl canal LIVE emg repes;
#X text 711 -616 contrl canal LIVE emg repes;
#X connect 0 0 5 0;
#X connect 0 0 11 0;
#X connect 1 0 3 0;
#X connect 2 0 3 1;
#X connect 2 0 4 0;
#X connect 3 0 0 0;
#X connect 3 0 14 0;
#X connect 3 0 12 0;
#X connect 4 0 1 0;
#X connect 6 0 7 0;
#X connect 7 0 9 0;
#X connect 8 0 18 0;
#X connect 9 0 18 0;
#X connect 10 0 58 0;
#X connect 10 1 73 0;
#X connect 10 2 57 0;
#X connect 11 0 13 0;
#X connect 11 0 8 0;
#X connect 14 0 15 0;
#X connect 15 0 11 1;
#X connect 17 0 10 0;
#X connect 17 0 19 0;
#X connect 20 0 21 0;
#X connect 23 0 21 0;
#X connect 23 0 26 0;
#X connect 24 0 10 0;
#X connect 24 0 23 0;
#X connect 27 0 32 0;
#X connect 27 0 38 0;
#X connect 28 0 30 0;
#X connect 29 0 30 1;
#X connect 29 0 31 0;
#X connect 30 0 27 0;
#X connect 30 0 41 0;
#X connect 30 0 39 0;
#X connect 31 0 28 0;
#X connect 33 0 34 0;
#X connect 34 0 36 0;
#X connect 35 0 54 0;
#X connect 36 0 54 0;
#X connect 37 0 67 0;
#X connect 37 1 72 0;
#X connect 37 2 68 0;
#X connect 38 0 40 0;
#X connect 38 0 35 0;
#X connect 41 0 42 0;
#X connect 42 0 38 1;
#X connect 44 0 37 0;
#X connect 44 0 45 0;
#X connect 46 0 47 0;
#X connect 49 0 47 0;
#X connect 50 0 37 0;
#X connect 50 0 49 0;
#X connect 57 0 6 0;
#X connect 58 0 2 0;
#X connect 59 0 18 0;
#X connect 60 0 61 0;
#X connect 61 0 70 0;
#X connect 62 0 59 0;
#X connect 64 0 54 0;
#X connect 65 0 71 0;
#X connect 66 0 65 0;
#X connect 67 0 29 0;
#X connect 68 0 33 0;
#X connect 70 0 62 0;
#X connect 71 0 64 0;
#X connect 71 0 69 0;
#X connect 72 0 28 0;
#X connect 73 0 1 0;
#X restore 360 490 pd IM RMRE;
#N canvas 449 194 895 309 IM 0;
#X obj 26 43 bng 15 250 50 0 empty empty empty 17 7 0 10 #fcfcfc #000000
#000000;
#X obj 103 245 noteout 2;
#X text 103 91 Snd para amarillo rojo Mov rapido;
#X obj 26 17 inlet;
#X text 77 17 combos de ambos electrodos simltaneos;
#X text 77 43 esfuerzo maximo;
#X obj 420 17 inlet;
#X text 506 43 sincronia velocidad;
#X obj 420 69 bng 15 250 50 0 empty empty empty 17 7 0 10 #fcfcfc #000000
#000000;
#X obj 497 283 noteout 2;
#X text 514 129 Snd para amarillo rojo Mov rapido;
#X obj 26 91 shuffle 0 1;
#X obj 26 125 route 0 1;
#X obj 26 185 del 3000;
#X obj 111 185 del 3000;
#X obj 420 223 del 3000;
#X obj 506 223 del 3000;
#X obj 420 163 route 0 1;
#X obj 26 69 debounce 2000;
#X obj 420 94 debounce 1500;
#X msg 26 159 52 127;
#X msg 77 159 52 0;
#X msg 111 159 52 127;
#X msg 154 159 52 0;
#X msg 420 197 53 127;
#X msg 471 197 53 0;
#X obj 420 129 shuffle 0 1 2;
#X msg 506 197 54 127;
#X msg 549 197 54 0;
#X obj 583 223 del 3000;
#X msg 583 197 53 127;
#X msg 626 197 53 0;
#X obj 420 43 spigot;
#X obj 471 26 r Sincrovel;
#X connect 0 0 18 0;
#X connect 3 0 0 0;
#X connect 6 0 32 0;
#X connect 8 0 19 0;
#X connect 11 0 12 0;
#X connect 12 0 20 0;
#X connect 12 1 22 0;
#X connect 12 2 20 0;
#X connect 13 0 21 0;
#X connect 14 0 23 0;
#X connect 15 0 25 0;
#X connect 16 0 28 0;
#X connect 17 0 24 0;
#X connect 17 1 27 0;
#X connect 17 1 30 0;
#X connect 17 1 31 0;
#X connect 17 2 24 0;
#X connect 18 0 11 0;
#X connect 19 0 26 0;
#X connect 20 0 1 0;
#X connect 20 0 13 0;
#X connect 21 0 1 0;
#X connect 22 0 1 0;
#X connect 22 0 14 0;
#X connect 23 0 1 0;
#X connect 24 0 9 0;
#X connect 24 0 15 0;
#X connect 25 0 9 0;
#X connect 26 0 17 0;
#X connect 27 0 9 0;
#X connect 27 0 16 0;
#X connect 28 0 9 0;
#X connect 29 0 31 0;
#X connect 30 0 29 0;
#X connect 30 0 9 0;
#X connect 31 0 9 0;
#X connect 32 0 8 0;
#X connect 33 0 32 1;
#X restore 68 593 pd IM REMS REVS;
#N canvas 53 25 1387 744 IM 0;
#X obj 180 129 ctlout 34;
#X obj 180 111 hsl 89 10 0 127 0 0 empty empty empty -2 -8 0 10 #fcfcfc
#000000 #000000 0 1;
#X obj 180 180 hsl 89 10 0 127 0 0 empty empty empty -2 -8 0 10 #fcfcfc
#000000 #000000 0 1;
#X obj 180 206 ctlout 35;
#X text 26 0 ELECTRODO ROJO;
#X obj 437 26 inlet;
#X obj 26 146 >= 15;
#X obj 26 326 sel 1;
#X floatatom 26 171 5 0 0 0 - - -, f 5;
#X floatatom 77 171 5 0 0 0 - - -, f 5;
#X obj 26 257 &;
#X obj 86 206 bng 15 250 50 0 empty empty empty 17 7 0 10 #fcfcfc #000000
#000000;
#X obj 77 146 <= 20;
#X obj 34 351 bng 15 250 50 0 empty empty empty 17 7 0 10 #fcfcfc #000000
#000000;
#X floatatom 137 171 5 0 0 0 - - -, f 5;
#X obj 137 206 sel 1;
#X obj 137 146 < 15;
#X floatatom 180 86 5 0 0 0 - - -, f 5;
#X text 249 206 cracle level;
#X text 249 129 mod amount;
#X floatatom 180 154 5 0 0 0 - - -, f 5;
#X obj 26 17 inlet;
#X obj 26 98 t f f f;
#X obj 26 69 hsl 134 24 0 127 0 0 empty empty empty -2 -8 0 10 #fcfcfc
#000000 #000000 0 1;
#X text 129 0 Control inicio de nota y 2 filtros;
#X text 446 0 ELECTRODO AMARILLO;
#X obj 437 129 hsl 133 22 0 127 0 0 empty empty empty -2 -8 0 10 #fcfcfc
#000000 #000000 0 1;
#X floatatom 395 225 5 0 0 0 - - -, f 5;
#X obj 436 223 >= 15;
#X obj 483 223 <= 30;
#X floatatom 437 250 5 0 0 0 - - -, f 5;
#X floatatom 489 250 5 0 0 0 - - -, f 5;
#X obj 524 250 bng 15 250 50 0 empty empty empty 17 7 0 10 #fcfcfc
#000000 #000000;
#X obj 437 285 &;
#X obj 437 310 sel 1;
#X obj 454 345 bng 15 250 50 0 empty empty empty 17 7 0 10 #fcfcfc
#000000 #000000;
#X obj 497 345 bng 15 250 50 0 empty empty empty 17 7 0 10 #fcfcfc
#000000 #000000;
#X obj 26 394 onebang;
#X floatatom 51 274 5 0 0 0 - - -, f 5;
#X obj 51 429 bng 15 250 50 0 empty empty empty 17 7 0 10 #fcfcfc #000000
#000000;
#X obj 77 326 sel 0;
#X obj 86 351 bng 15 250 50 0 empty empty empty 17 7 0 10 #fcfcfc #000000
#000000;
#X obj 489 310 sel 0;
#X obj 435 375 onebang;
#X obj 437 413 bng 15 250 50 0 empty empty empty 17 7 0 10 #fcfcfc
#000000 #000000;
#X text 120 296 sistema de compuerta con onebang \; para que solo
pase un bang;
#X text 437 103 segmento 1 nota 1;
#X floatatom 575 250 5 0 0 0 - - -, f 5;
#X floatatom 627 250 5 0 0 0 - - -, f 5;
#X obj 661 250 bng 15 250 50 0 empty empty empty 17 7 0 10 #fcfcfc
#000000 #000000;
#X obj 575 285 &;
#X obj 575 310 sel 1;
#X obj 592 345 bng 15 250 50 0 empty empty empty 17 7 0 10 #fcfcfc
#000000 #000000;
#X obj 635 345 bng 15 250 50 0 empty empty empty 17 7 0 10 #fcfcfc
#000000 #000000;
#X obj 627 310 sel 0;
#X obj 573 375 onebang;
#X obj 575 413 bng 15 250 50 0 empty empty empty 17 7 0 10 #fcfcfc
#000000 #000000;
#X obj 574 223 >= 31;
#X obj 621 223 <= 45;
#X msg 438 465 64 127;
#X msg 497 465 64 0;
#X msg 575 465 70 127;
#X msg 635 465 70 0;
#X text 575 199 segmento 2 nota 2;
#X floatatom 695 250 5 0 0 0 - - -, f 5;
#X floatatom 747 250 5 0 0 0 - - -, f 5;
#X obj 755 276 bng 15 250 50 0 empty empty empty 17 7 0 10 #fcfcfc
#000000 #000000;
#X obj 695 285 &;
#X obj 712 345 bng 15 250 50 0 empty empty empty 17 7 0 10 #fcfcfc
#000000 #000000;
#X obj 755 345 bng 15 250 50 0 empty empty empty 17 7 0 10 #fcfcfc
#000000 #000000;
#X obj 747 310 sel 0;
#X text 695 199 segmento 3 nota 3;
#X obj 694 223 >= 46;
#X obj 741 223 <= 60;
#X msg 755 465 78 0;
#X floatatom 824 250 5 0 0 0 - - -, f 5;
#X floatatom 875 250 5 0 0 0 - - -, f 5;
#X obj 901 250 bng 15 250 50 0 empty empty empty 17 7 0 10 #fcfcfc
#000000 #000000;
#X obj 824 285 &;
#X obj 824 310 sel 1;
#X obj 841 345 bng 15 250 50 0 empty empty empty 17 7 0 10 #fcfcfc
#000000 #000000;
#X obj 884 345 bng 15 250 50 0 empty empty empty 17 7 0 10 #fcfcfc
#000000 #000000;
#X obj 875 310 sel 0;
#X obj 822 375 onebang;
#X obj 824 413 bng 15 250 50 0 empty empty empty 17 7 0 10 #fcfcfc
#000000 #000000;
#X text 823 198 segmento 4 nota 4;
#X obj 823 223 >= 60;
#X obj 869 223 <= 75;
#X obj 695 379 onebang;
#X obj 695 422 bng 15 250 50 0 empty empty empty 17 7 0 10 #fcfcfc
#000000 #000000;
#X obj 695 310 sel 1;
#X msg 697 465 78 127;
#X floatatom 945 251 5 0 0 0 - - -, f 5;
#X floatatom 996 251 5 0 0 0 - - -, f 5;
#X obj 1022 251 bng 15 250 50 0 empty empty empty 17 7 0 10 #fcfcfc
#000000 #000000;
#X obj 945 285 &;
#X obj 945 311 sel 1;
#X obj 962 345 bng 15 250 50 0 empty empty empty 17 7 0 10 #fcfcfc
#000000 #000000;
#X obj 1005 345 bng 15 250 50 0 empty empty empty 17 7 0 10 #fcfcfc
#000000 #000000;
#X obj 996 311 sel 0;
#X obj 943 376 onebang;
#X obj 945 414 bng 15 250 50 0 empty empty empty 17 7 0 10 #fcfcfc
#000000 #000000;
#X text 944 199 segmento 5 nota 5;
#X obj 990 224 <= 90;
#X msg 945 465 90 127;
#X msg 1005 465 90 0;
#X floatatom 1072 250 5 0 0 0 - - -, f 5;
#X floatatom 1124 250 5 0 0 0 - - -, f 5;
#X obj 1149 250 bng 15 250 50 0 empty empty empty 17 7 0 10 #fcfcfc
#000000 #000000;
#X obj 1072 285 &;
#X obj 1072 310 sel 1;
#X obj 1089 345 bng 15 250 50 0 empty empty empty 17 7 0 10 #fcfcfc
#000000 #000000;
#X obj 1132 345 bng 15 250 50 0 empty empty empty 17 7 0 10 #fcfcfc
#000000 #000000;
#X obj 1124 310 sel 0;
#X obj 1071 375 onebang;
#X text 1071 198 segmento 5 nota 5;
#X obj 1118 223 <= 110;
#X msg 1072 465 100 127;
#X msg 1132 465 100 0;
#X obj 1064 413 bng 15 250 50 0 empty empty empty 17 7 0 10 #fcfcfc
#000000 #000000;
#X obj 26 591 noteout 1;
#X obj 437 591 ctlout 36 1;
#X obj 437 566 maxlib/scale 0 127 0 70;
#X floatatom 26 480 5 0 0 0 - - -, f 5;
#X obj 193 570 bng 15 250 50 0 empty empty empty 17 7 0 10 #fcfcfc
#000000 #000000;
#X obj 129 476 route 1 2 3 4;
#X obj 26 454 shuffle 1 4;
#X msg 160 578 \$1 0;
#X floatatom 163 553 5 0 0 0 - - -, f 5;
#X msg 171 394 21 0;
#X msg 73 519 21 64;
#X msg 214 394 40 0;
#X msg 116 519 40 64;
#X msg 133 394 65 0;
#X msg 26 519 65 64;
#X obj 10 160 cnv 15 414 8 empty empty empty 20 12 0 14 #ff0000 #404040
0;
#X obj 437 51 cnv 15 875 8 empty empty empty 20 12 0 14 #e1ff00 #404040
0;
#X text 26 609 ASMR site live;
#X obj 600 591 ctlout 37 5;
#X msg 643 549 20;
#X text 600 617 GMR abstyn canal;
#X text 600 634 smooth mantiene sonido;
#X obj 317 591 noteout 6;
#X text 317 609 Absynth canal 6;
#X obj 566 69 s RCEamarillo;
#X obj 944 224 >= 76;
#X obj 1071 223 >= 91;
#X msg 824 465 86 127;
#X msg 884 465 86 0;
#X msg 261 394 51 0;
#X msg 163 523 51 64;
#X obj 309 77 s RCErojo;
#X obj 437 69 spigot;
#X obj 26 43 spigot;
#X obj 480 26 r GCamarillo;
#X floatatom 129 43 5 0 0 0 - - -, f 5;
#X floatatom 480 69 5 0 0 0 - - -, f 5;
#X obj 129 17 r GCrojo;
#X obj 566 26 r GCpanelAM;
#X obj 214 17 r GCpanelRj;
#X text 231 43 recive;
#X obj 317 129 ctlout 45 8;
#X msg 360 111 40;
#X msg 557 103 0;
#X msg 206 51 0;
#X connect 1 0 0 0;
#X connect 2 0 3 0;
#X connect 5 0 144 0;
#X connect 5 0 152 0;
#X connect 6 0 8 0;
#X connect 7 0 13 0;
#X connect 7 0 37 0;
#X connect 8 0 10 0;
#X connect 9 0 10 1;
#X connect 9 0 11 0;
#X connect 10 0 7 0;
#X connect 10 0 40 0;
#X connect 10 0 38 0;
#X connect 11 0 8 0;
#X connect 12 0 9 0;
#X connect 14 0 15 0;
#X connect 15 0 133 0;
#X connect 15 0 129 0;
#X connect 15 0 131 0;
#X connect 15 0 149 0;
#X connect 16 0 14 0;
#X connect 17 0 1 0;
#X connect 20 0 2 0;
#X connect 21 0 153 0;
#X connect 21 0 151 0;
#X connect 22 0 12 0;
#X connect 22 1 6 0;
#X connect 22 2 16 0;
#X connect 23 0 22 0;
#X connect 23 0 17 0;
#X connect 23 0 20 0;
#X connect 23 0 161 0;
#X connect 26 0 27 0;
#X connect 26 0 28 0;
#X connect 26 0 29 0;
#X connect 26 0 57 0;
#X connect 26 0 58 0;
#X connect 26 0 72 0;
#X connect 26 0 73 0;
#X connect 26 0 86 0;
#X connect 26 0 87 0;
#X connect 26 0 103 0;
#X connect 26 0 116 0;
#X connect 26 0 122 0;
#X connect 26 0 138 0;
#X connect 26 0 145 0;
#X connect 26 0 146 0;
#X connect 28 0 30 0;
#X connect 29 0 31 0;
#X connect 30 0 33 0;
#X connect 31 0 33 1;
#X connect 32 0 30 0;
#X connect 33 0 34 0;
#X connect 33 0 42 0;
#X connect 34 0 35 0;
#X connect 34 0 43 0;
#X connect 36 0 43 1;
#X connect 37 0 39 0;
#X connect 37 0 126 0;
#X connect 40 0 41 0;
#X connect 41 0 37 1;
#X connect 42 0 36 0;
#X connect 42 0 60 0;
#X connect 43 0 44 0;
#X connect 44 0 59 0;
#X connect 47 0 50 0;
#X connect 48 0 50 1;
#X connect 49 0 47 0;
#X connect 50 0 51 0;
#X connect 50 0 54 0;
#X connect 51 0 52 0;
#X connect 51 0 55 0;
#X connect 53 0 55 1;
#X connect 54 0 53 0;
#X connect 54 0 62 0;
#X connect 55 0 56 0;
#X connect 56 0 61 0;
#X connect 57 0 47 0;
#X connect 58 0 48 0;
#X connect 59 0 120 0;
#X connect 59 0 142 0;
#X connect 60 0 120 0;
#X connect 60 0 142 0;
#X connect 61 0 120 0;
#X connect 61 0 142 0;
#X connect 62 0 120 0;
#X connect 62 0 142 0;
#X connect 64 0 67 0;
#X connect 65 0 67 1;
#X connect 65 0 66 0;
#X connect 66 0 64 0;
#X connect 67 0 70 0;
#X connect 67 0 90 0;
#X connect 70 0 69 0;
#X connect 70 0 74 0;
#X connect 70 0 88 1;
#X connect 72 0 64 0;
#X connect 73 0 65 0;
#X connect 74 0 120 0;
#X connect 74 0 142 0;
#X connect 75 0 78 0;
#X connect 76 0 78 1;
#X connect 77 0 75 0;
#X connect 78 0 79 0;
#X connect 78 0 82 0;
#X connect 79 0 80 0;
#X connect 79 0 83 0;
#X connect 81 0 83 1;
#X connect 82 0 81 0;
#X connect 82 0 148 0;
#X connect 83 0 84 0;
#X connect 84 0 147 0;
#X connect 86 0 75 0;
#X connect 87 0 76 0;
#X connect 88 0 89 0;
#X connect 89 0 91 0;
#X connect 90 0 68 0;
#X connect 90 0 88 0;
#X connect 91 0 120 0;
#X connect 91 0 142 0;
#X connect 92 0 95 0;
#X connect 93 0 95 1;
#X connect 94 0 92 0;
#X connect 95 0 96 0;
#X connect 95 0 99 0;
#X connect 96 0 97 0;
#X connect 96 0 100 0;
#X connect 98 0 100 1;
#X connect 99 0 98 0;
#X connect 99 0 105 0;
#X connect 100 0 101 0;
#X connect 101 0 104 0;
#X connect 103 0 93 0;
#X connect 104 0 120 0;
#X connect 104 0 142 0;
#X connect 105 0 120 0;
#X connect 105 0 142 0;
#X connect 106 0 109 0;
#X connect 107 0 109 1;
#X connect 108 0 106 0;
#X connect 109 0 110 0;
#X connect 109 0 113 0;
#X connect 110 0 111 0;
#X connect 110 0 114 0;
#X connect 112 0 114 1;
#X connect 113 0 112 0;
#X connect 113 0 118 0;
#X connect 114 0 119 0;
#X connect 116 0 107 0;
#X connect 117 0 120 0;
#X connect 117 0 142 0;
#X connect 118 0 120 0;
#X connect 119 0 117 0;
#X connect 122 0 121 0;
#X connect 123 0 125 0;
#X connect 125 0 124 0;
#X connect 125 0 132 0;
#X connect 125 1 134 0;
#X connect 125 2 130 0;
#X connect 125 3 150 0;
#X connect 126 0 123 0;
#X connect 127 0 120 0;
#X connect 127 0 142 0;
#X connect 128 0 127 0;
#X connect 129 0 120 0;
#X connect 129 0 142 0;
#X connect 130 0 120 0;
#X connect 130 0 142 0;
#X connect 131 0 120 0;
#X connect 131 0 142 0;
#X connect 132 0 120 0;
#X connect 132 0 142 0;
#X connect 133 0 120 0;
#X connect 133 0 142 0;
#X connect 134 0 120 0;
#X connect 134 0 142 0;
#X connect 139 0 138 0;
#X connect 145 0 92 0;
#X connect 146 0 106 0;
#X connect 147 0 120 0;
#X connect 147 0 142 0;
#X connect 148 0 120 0;
#X connect 148 0 142 0;
#X connect 149 0 120 0;
#X connect 149 0 142 0;
#X connect 150 0 120 0;
#X connect 150 0 142 0;
#X connect 152 0 26 0;
#X connect 153 0 23 0;
#X connect 154 0 152 1;
#X connect 154 0 156 0;
#X connect 157 0 153 1;
#X connect 157 0 155 0;
#X connect 158 0 152 1;
#X connect 158 0 163 0;
#X connect 159 0 153 1;
#X connect 159 0 164 0;
#X connect 162 0 161 0;
#X connect 163 0 26 0;
#X connect 164 0 23 0;
#X restore 68 507 pd IM RCE;
#N canvas 591 297 608 323 IM 0;
#X obj 39 30 inlet;
#X obj 257 30 inlet;
#X text 39 9 eletrodo rojo;
#X text 257 4 electrodo amarillo;
#X obj 184 30 r maxvr;
#X obj 403 30 r maxvr2;
#X floatatom 189 60 5 0 0 0 - - -, f 5;
#X obj 39 96 expr if ($f1 > $f2 \, 1 \, 0);
#X obj 257 94 expr if ($f1 > $f2 \, 1 \, 0);
#X obj 39 129 sel 1;
#X obj 261 129 sel 1;
#X obj 39 163 debounce 3000;
#X obj 261 163 debounce 3000;
#X obj 50 189 bng 15 250 50 0 empty empty empty 17 7 0 10 #fcfcfc #000000
#000000;
#X obj 273 191 bng 15 250 50 0 empty empty empty 17 7 0 10 #fcfcfc
#000000 #000000;
#X connect 0 0 7 0;
#X connect 1 0 8 0;
#X connect 4 0 6 0;
#X connect 4 0 7 1;
#X connect 5 0 8 1;
#X connect 7 0 9 0;
#X connect 8 0 10 0;
#X connect 9 0 11 0;
#X connect 10 0 12 0;
#X connect 11 0 13 0;
#X connect 12 0 14 0;
#X restore 60 550 pd IM MRCE;
#X obj 30 470 cnv 15 37 9 empty empty empty 20 12 0 14 #ff00d0 #404040
0;
#X obj 34 507 cnv 15 37 9 empty empty empty 20 12 0 14 #ff00d0 #404040
0;
#X obj 34 550 cnv 15 31 10 empty empty empty 20 12 0 14 #ff00d0 #404040
0;
#X obj 320 500 cnv 15 37 10 empty empty empty 20 12 0 14 #ff00d0 #404040
0;
#X obj 34 593 cnv 15 35 10 empty empty empty 20 12 0 14 #ff00d0 #404040
0;
#N canvas 425 317 754 393 OSCtomaci9 0;
#X obj 51 266 sendOSC;
#X msg 60 77 disconnect;
#X floatatom 240 94 5 0 0 0 - - -, f 5;
#X obj 47 45 inlet;
#X obj 96 45 inlet;
#X obj 51 26 import mrpeach;
#X obj 60 103 t b b;
#X text 214 137 IP del mac i9;
#X text 51 0 ENVIO DE DATOS A MAC I9;
#X msg 49 137 connect 192.168.0.123 8079;
#X msg 240 171 send /i7sec1 \$1;
#X obj 311 28 r panelCsec1;
#X obj 223 26 r testOSCi9;
#X msg 311 88 1000;
#X obj 320 45 bng 15 250 50 0 empty empty empty 17 7 0 10 #fcfcfc #000000
#000000;
#X msg 394 86 1010;
#X obj 394 26 r panelCsec2;
#X obj 411 51 bng 15 250 50 0 empty empty empty 17 7 0 10 #fcfcfc #000000
#000000;
#X obj 499 53 bng 15 250 50 0 empty empty empty 17 7 0 10 #fcfcfc #000000
#000000;
#X msg 482 87 1020;
#X obj 482 27 r panelCsec3;
#X connect 1 0 6 0;
#X connect 2 0 10 0;
#X connect 3 0 9 0;
#X connect 4 0 1 0;
#X connect 6 1 0 0;
#X connect 9 0 0 0;
#X connect 10 0 0 0;
#X connect 11 0 13 0;
#X connect 11 0 14 0;
#X connect 12 0 2 0;
#X connect 13 0 10 0;
#X connect 15 0 10 0;
#X connect 16 0 15 0;
#X connect 16 0 17 0;
#X connect 19 0 10 0;
#X connect 20 0 19 0;
#X connect 20 0 18 0;
#X restore 959 159 pd OSCtomaci9;
#N canvas 539 159 483 337 OSCfrommaci9 0;
#X obj 43 26 import mrpeach;
#X obj 43 51 inlet;
#X obj 43 77 udpreceive 4050;
#X obj 43 103 unpackOSC;
#X floatatom 43 163 5 0 0 0 - - -, f 5;
#X obj 43 214 outlet;
#X obj 43 129 routeOSC /i9pm1;
#X text 51 0 RECEPCION DE DATOS de MAC I9;
#X connect 2 0 3 0;
#X connect 3 0 6 0;
#X connect 4 0 5 0;
#X connect 6 0 4 0;
#X restore 959 185 pd OSCfrommaci9;
#N canvas 161 126 1279 711 IM-catch 0;
#X obj 26 206 ctlout 36 7;
#X obj 26 111 counter 0 1;
#X obj 26 69 bng 15 250 50 0 empty empty empty 17 7 0 10 #fcfcfc #000000
#000000;
#X obj 28 141 sel 1;
#X floatatom 69 137 5 0 0 0 - - -, f 5;
#X obj 111 137 sel 0;
#X msg 69 171 127;
#X obj 86 77 bng 15 250 50 0 empty empty empty 17 7 0 10 #fcfcfc #000000
#000000;
#X text 103 77 reset;
#X obj 86 51 loadbang;
#X msg 866 111 127;
#X obj 111 206 ctlout 35 7;
#X msg 129 180 43;
#X text 26 231 filtros mp Hp;
#X obj 26 26 r atrap1;
#X text 866 163 off;
#X text 26 0 SONIDO ATRAPADO;
#X text 43 480 LNZAMIENTO CLIPS;
#X text 257 0 DOBLE APRISIONAMIENTO;
#X obj 249 26 r RCEamarillo;
#X obj 249 94 ctlout 37 7;
#X msg 249 69 64;
#X obj 291 69 hsl 128 15 0 127 0 0 empty empty empty -2 -8 0 10 #fcfcfc
#000000 #000000 0 1;
#X text 403 574 clock;
#X obj 326 146 sel 1;
#X obj 446 206 bng 15 250 50 0 empty empty empty 17 7 0 10 #fcfcfc
#000000 #000000;
#X text 411 69 text;
#X text 326 249 inicia secuenci death alien;
#X text 866 180 stop CLIPS canal;
#X obj 43 326 notein;
#X floatatom 43 350 5 0 0 0 - - -, f 5;
#X floatatom 77 350 5 0 0 0 - - -, f 5;
#X floatatom 111 350 5 0 0 0 - - -, f 5;
#X obj 43 377 sel 24;
#X obj 43 437 bng 15 250 50 0 empty empty empty 17 7 0 10 #fcfcfc #000000
#000000;
#X obj 51 403 debounce 2000;
#X msg 909 111 64;
#X msg 943 111 4;
#X obj 951 163 debounce 1500;
#X obj 866 94 bng 15 250 50 0 empty empty empty 17 7 0 10 #fcfcfc #000000
#000000;
#X obj 866 146 ctlout 31 3;
#X obj 720 94 osc~ 220;
#X msg 720 69 set open \$1;
#X obj 720 43 openpanel;
#X obj 386 591 readsf~ 2;
#X obj 720 26 bng 15 250 50 0 empty empty empty 17 7 0 10 #fcfcfc #000000
#000000;
#X msg 377 300 1;
#X msg 403 540 0;
#X obj 437 617 bng 15 250 50 0 empty empty empty 17 7 0 10 #fcfcfc
#000000 #000000;
#X obj 377 437 t f b;
#X text 720 111 TEST AUDIO;
#X floatatom 394 369 5 0 0 0 - - -, f 5;
#X obj 394 326 bng 15 250 50 0 empty empty empty 17 7 0 10 #fcfcfc
#000000 #000000;
#X obj 394 343 counter 0 6;
#X obj 394 394 sel 6;
#N canvas 0 23 416 193 catch1 0;
#X obj 26 34 inlet;
#X obj 26 103 outlet;
#X msg 26 77 open /Users/juanerrantemaci7/Music/Wimumo/catch1.wav;
#X connect 0 0 2 0;
#X connect 2 0 1 0;
#X restore 386 480 pd catch1;
#X text 531 574 clock;
#X obj 514 591 readsf~ 2;
#X msg 506 300 1;
#X msg 531 540 0;
#X obj 566 617 bng 15 250 50 0 empty empty empty 17 7 0 10 #fcfcfc
#000000 #000000;
#X obj 506 437 t f b;
#N canvas 0 23 508 238 catch2 0;
#X obj 26 17 inlet;
#X obj 26 206 outlet;
#X msg 26 120 open /Users/juanerrantemaci7/Music/Wimumo/catch2.wav
;
#X msg 77 146 open /Users/juanerrantemaci7/Music/Wimumo/catch2A.wav
;
#X obj 26 86 sel 0;
#X obj 94 86 sel 1;
#X floatatom 111 69 5 0 0 0 - - -, f 5;
#X obj 26 43 shuffle 1;
#X connect 0 0 7 0;
#X connect 2 0 1 0;
#X connect 3 0 1 0;
#X connect 4 0 2 0;
#X connect 5 0 3 0;
#X connect 7 0 6 0;
#X connect 7 0 4 0;
#X connect 7 0 5 0;
#X restore 514 480 pd catch2;
#X obj 643 591 readsf~ 2;
#X msg 634 300 1;
#X msg 660 540 0;
#X obj 694 617 bng 15 250 50 0 empty empty empty 17 7 0 10 #fcfcfc
#000000 #000000;
#X obj 634 437 t f b;
#X obj 651 326 bng 15 250 50 0 empty empty empty 17 7 0 10 #fcfcfc
#000000 #000000;
#N canvas 0 23 653 385 catch3 0;
#X obj 26 34 inlet;
#X obj 26 274 outlet;
#X msg 26 146 open /Users/juanerrantemaci7/Music/Wimumo/catch3A.wav
;
#X obj 26 111 sel 0;
#X obj 103 111 sel 1;
#X msg 103 197 open /Users/juanerrantemaci7/Music/Wimumo/catch3B.wav
;
#X obj 26 69 shuffle 1;
#X floatatom 180 111 5 0 0 0 - - -, f 5;
#X connect 0 0 6 0;
#X connect 2 0 1 0;
#X connect 3 0 2 0;
#X connect 4 0 5 0;
#X connect 5 0 1 0;
#X connect 6 0 3 0;
#X connect 6 0 4 0;
#X connect 6 0 7 0;
#X restore 641 478 pd catch3;
#X text 660 574 regeuton;
#X obj 757 593 readsf~ 2;
#X msg 748 302 1;
#X msg 774 542 0;
#X obj 748 439 t f b;
#X text 774 576 regeuton;
#N canvas 0 23 558 377 catch4 0;
#X obj 26 34 inlet;
#X obj 26 231 outlet;
#X msg 26 163 open /Users/juanerrantemaci7/Music/Wimumo/catch5.wav
;
#X msg 94 189 open /Users/juanerrantemaci7/Music/Wimumo/catch5A.wav
;
#X obj 26 111 sel 0;
#X obj 94 111 sel 1;
#X obj 26 69 shuffle 1;
#X floatatom 159 105 5 0 0 0 - - -, f 5;
#X connect 0 0 6 0;
#X connect 2 0 1 0;
#X connect 3 0 1 0;
#X connect 4 0 2 0;
#X connect 5 0 3 0;
#X connect 6 0 4 0;
#X connect 6 0 5 0;
#X connect 6 0 7 0;
#X restore 755 480 pd catch4;
#X obj 876 593 readsf~ 2;
#X msg 867 302 1;
#X msg 893 542 0;
#X obj 867 439 t f b;
#N canvas 0 23 575 356 catch5 0;
#X obj 26 34 inlet;
#X obj 26 257 outlet;
#X msg 26 163 open /Users/juanerrantemaci7/Music/Wimumo/catch7.wav
;
#X obj 34 111 sel 0;
#X obj 103 111 sel 1;
#X msg 94 206 open /Users/juanerrantemaci7/Music/Wimumo/catch7A.wav
;
#X obj 34 69 shuffle 1;
#X connect 0 0 6 0;
#X connect 2 0 1 0;
#X connect 3 0 2 0;
#X connect 4 0 5 0;
#X connect 5 0 1 0;
#X connect 6 0 3 0;
#X connect 6 0 4 0;
#X restore 874 480 pd catch5;
#X obj 489 214 s offc;
#X obj 557 514 r offc;
#X obj 686 514 r offc;
#X obj 797 514 r offc;
#X obj 917 514 r offc;
#X msg 26 171 40;
#X obj 156 143 r resetC;
#X floatatom 249 137 5 0 0 0 - - -, f 5;
#X msg 446 69 0;
#X obj 446 309 s resetA;
#X obj 160 69 r resetA;
#X obj 180 111 bng 15 250 50 0 empty empty empty 17 7 0 10 #fcfcfc
#000000 #000000;
#X obj 446 291 bng 15 250 50 0 empty empty empty 17 7 0 10 #fcfcfc
#000000 #000000;
#X obj 437 420 s resetA;
#X obj 154 377 sel 26;
#X text 154 480 LNZAMIENTO CLIPS;
#X text 154 497 bufyshop;
#X obj 154 446 bng 15 250 50 0 empty empty empty 17 7 0 10 #fcfcfc
#000000 #000000;
#X obj 154 403 debounce 2000;
#X text 43 497 Clock;
#X obj 43 463 s clock1;
#X obj 377 274 r clock1;
#X obj 154 463 s clock2;
#X obj 506 274 r clock2;
#X text 257 480 LNZAMIENTO CLIPS;
#X obj 257 446 bng 15 250 50 0 empty empty empty 17 7 0 10 #fcfcfc
#000000 #000000;
#X obj 257 403 debounce 2000;
#X obj 257 377 sel 28;
#X obj 634 274 r clock3;
#X text 43 634 LNZAMIENTO CLIPS;
#X obj 43 600 bng 15 250 50 0 empty empty empty 17 7 0 10 #fcfcfc #000000
#000000;
#X obj 43 557 debounce 2000;
#X obj 43 531 sel 29;
#X obj 43 617 s clock4;
#X obj 754 274 r clock4;
#X obj 866 274 r clock5;
#X text 171 634 LNZAMIENTO CLIPS;
#X obj 171 600 bng 15 250 50 0 empty empty empty 17 7 0 10 #fcfcfc
#000000 #000000;
#X obj 171 557 debounce 2000;
#X text 43 651 bethoven;
#X text 171 651 drum base;
#X text 257 497 regueton;
#X obj 257 463 s clock3;
#X obj 771 394 sel 1;
#X obj 171 531 sel 30;
#X obj 171 617 s clock5;
#X obj 377 266 cnv 15 658 8 empty empty empty 20 12 0 14 #a11717 #404040
0;
#X text 86 26 recive de RRVE;
#X text 343 43 recive de RCE;
#X obj 326 120 spigot;
#X obj 489 43 r alienAc;
#X obj 943 626 bng 15 250 50 0 empty empty empty 17 7 0 10 #fcfcfc
#000000 #000000;
#X text 506 69 desactive destroy elec amarillo;
#X obj 386 651 s~ chanIZ;
#X obj 463 651 s~ chanDER;
#X msg 557 111 0;
#X obj 557 43 loadbang;
#X obj 326 231 noteout 7;
#X obj 814 437 bng 15 250 50 0 empty empty empty 17 7 0 10 #fcfcfc
#000000 #000000;
#X obj 617 43 r clock2;
#X obj 694 326 s resetA;
#X obj 780 326 s resetA;
#X obj 895 327 s resetA;
#X text 951 326 resetea filtro;
#X obj 77 437 s resetA;
#X obj 189 446 s resetA;
#X obj 283 446 s resetA;
#X obj 291 429 s alienAc;
#X obj 60 591 s alienAc;
#X obj 206 600 s alienAc;
#X msg 497 111 1;
#X obj 986 626 s alienAcclose;
#X obj 583 86 r alienAcclose;
#X obj 79 423 s alienAcclose;
#X obj 326 171 debounce 3000;
#X obj 231 223 ctlout 38 7;
#X obj 377 146 maxlib/scale 0 100 127 0;
#X obj 540 137 bng 15 250 50 0 empty empty empty 17 7 0 10 #fcfcfc
#000000 #000000;
#X msg 326 197 120 127;
#X msg 386 197 120 0;
#X obj 326 94 expr if($f1 > 96 && $f1 < 115 \, 1 \, 0);
#X obj 471 171 bng 15 250 50 0 empty empty empty 17 7 0 10 #fcfcfc
#000000 #000000;
#X connect 1 0 3 0;
#X connect 1 0 4 0;
#X connect 1 0 5 0;
#X connect 2 0 1 0;
#X connect 3 0 87 0;
#X connect 5 0 6 0;
#X connect 6 0 0 0;
#X connect 6 0 11 0;
#X connect 7 0 1 3;
#X connect 9 0 7 0;
#X connect 10 0 38 0;
#X connect 10 0 40 0;
#X connect 12 0 11 0;
#X connect 14 0 2 0;
#X connect 19 0 20 0;
#X connect 19 0 89 0;
#X connect 19 0 22 0;
#X connect 19 0 162 0;
#X connect 21 0 20 0;
#X connect 22 0 20 0;
#X connect 22 0 158 0;
#X connect 22 0 162 0;
#X connect 24 0 156 0;
#X connect 24 0 163 0;
#X connect 29 0 30 0;
#X connect 29 1 31 0;
#X connect 29 2 32 0;
#X connect 30 0 33 0;
#X connect 30 0 96 0;
#X connect 30 0 109 0;
#X connect 30 0 114 0;
#X connect 30 0 126 0;
#X connect 33 0 35 0;
#X connect 33 0 155 0;
#X connect 34 0 102 0;
#X connect 35 0 34 0;
#X connect 35 0 146 0;
#X connect 35 0 155 0;
#X connect 39 0 10 0;
#X connect 43 0 42 0;
#X connect 44 0 135 0;
#X connect 44 1 136 0;
#X connect 44 2 48 0;
#X connect 45 0 43 0;
#X connect 46 0 49 0;
#X connect 46 0 52 0;
#X connect 47 0 44 0;
#X connect 48 0 46 0;
#X connect 49 0 44 0;
#X connect 49 1 55 0;
#X connect 52 0 53 0;
#X connect 53 0 51 0;
#X connect 53 0 54 0;
#X connect 54 0 47 0;
#X connect 54 0 95 0;
#X connect 55 0 44 0;
#X connect 57 0 135 0;
#X connect 57 1 136 0;
#X connect 57 2 60 0;
#X connect 58 0 61 0;
#X connect 59 0 57 0;
#X connect 61 0 57 0;
#X connect 61 1 62 0;
#X connect 62 0 57 0;
#X connect 63 0 135 0;
#X connect 63 1 136 0;
#X connect 63 2 66 0;
#X connect 64 0 67 0;
#X connect 64 0 68 0;
#X connect 65 0 63 0;
#X connect 67 0 63 0;
#X connect 67 1 69 0;
#X connect 68 0 142 0;
#X connect 69 0 63 0;
#X connect 71 0 135 0;
#X connect 71 1 136 0;
#X connect 72 0 74 0;
#X connect 72 0 143 0;
#X connect 73 0 71 0;
#X connect 74 0 71 0;
#X connect 74 1 76 0;
#X connect 76 0 71 0;
#X connect 77 0 135 0;
#X connect 77 1 136 0;
#X connect 77 2 133 0;
#X connect 78 0 80 0;
#X connect 78 0 144 0;
#X connect 79 0 77 0;
#X connect 79 0 133 0;
#X connect 80 0 77 0;
#X connect 80 1 81 0;
#X connect 81 0 77 0;
#X connect 83 0 59 0;
#X connect 84 0 65 0;
#X connect 85 0 73 0;
#X connect 86 0 79 0;
#X connect 87 0 0 0;
#X connect 87 0 11 0;
#X connect 88 0 6 0;
#X connect 90 0 20 0;
#X connect 92 0 93 0;
#X connect 92 0 7 0;
#X connect 94 0 91 0;
#X connect 96 0 100 0;
#X connect 99 0 104 0;
#X connect 100 0 99 0;
#X connect 100 0 147 0;
#X connect 100 0 149 0;
#X connect 103 0 46 0;
#X connect 105 0 58 0;
#X connect 107 0 124 0;
#X connect 108 0 107 0;
#X connect 108 0 148 0;
#X connect 108 0 149 0;
#X connect 109 0 108 0;
#X connect 110 0 64 0;
#X connect 112 0 115 0;
#X connect 113 0 112 0;
#X connect 113 0 150 0;
#X connect 114 0 113 0;
#X connect 116 0 72 0;
#X connect 117 0 78 0;
#X connect 119 0 127 0;
#X connect 120 0 119 0;
#X connect 120 0 151 0;
#X connect 125 0 73 0;
#X connect 125 0 95 0;
#X connect 126 0 120 0;
#X connect 131 0 24 0;
#X connect 132 0 152 0;
#X connect 132 0 159 0;
#X connect 133 0 153 0;
#X connect 137 0 131 1;
#X connect 138 0 137 0;
#X connect 141 0 137 0;
#X connect 152 0 131 1;
#X connect 154 0 137 0;
#X connect 156 0 25 0;
#X connect 156 0 160 0;
#X connect 156 0 82 0;
#X connect 158 0 157 0;
#X connect 160 0 139 0;
#X connect 161 0 139 0;
#X connect 162 0 131 0;
#X restore 959 256 pd IM-catch;
#X text 950 73 ----> Gestos rapidos on/off;
#X obj 820 350 cnv 15 100 42 empty empty empty 20 12 0 14 #a5b7cf #404040
0;
#X obj 750 520 output~;
#N canvas 380 35 725 717 IM-Forcefield 0;
#X obj 180 26 r RCErojo;
#X obj 369 26 r RCEamarillo;
#X obj 51 223 noteout 7;
#X msg 51 197 126 127;
#X msg 120 197 126 0;
#X obj 369 154 ctlout 30 7;
#X msg 394 103 54;
#X obj 369 51 hsl 128 15 0 127 0 0 empty empty empty -2 -8 0 10 #fcfcfc
#000000 #000000 0 1;
#X obj 180 163 ctlout 31 7;
#X msg 223 129 54;
#X obj 189 51 hsl 128 15 0 127 0 0 empty empty empty -2 -8 0 10 #fcfcfc
#000000 #000000 0 1;
#X obj 180 69 maxlib/scale 0 127 127 0;
#X floatatom 223 94 5 0 0 0 - - -, f 5;
#X obj 180 111 int;
#X text 34 34 RECIBE DE LIVE;
#X text 180 189 envia live control filtro mid;
#X text 377 189 Envia live FRACTURE wet dry;
#X obj 34 60 notein;
#X floatatom 34 84 5 0 0 0 - - -, f 5;
#X floatatom 69 84 5 0 0 0 - - -, f 5;
#X floatatom 103 84 5 0 0 0 - - -, f 5;
#X obj 34 111 sel 31;
#X obj 34 137 debounce 3000;
#X obj 26 557 noteout 7;
#X msg 26 531 127 127;
#X msg 94 531 127 0;
#X obj 26 617 noteout 7;
#X msg 26 591 123 127;
#X msg 94 591 123 0;
#X obj 26 309 expr if($f1 >= 115 && $f2 >= 115 \, 1 \, 0);
#X obj 34 283 r RCErojo;
#X obj 214 283 r RCEamarillo;
#X obj 26 334 change 1;
#X obj 26 360 debounce 2000;
#X obj 86 386 bng 15 250 50 0 empty empty empty 17 7 0 10 #fcfcfc #000000
#000000;
#X obj 26 257 hsl 128 15 0 127 0 0 empty empty empty -2 -8 0 10 #fcfcfc
#000000 #000000 0 1;
#X obj 26 480 t b b;
#X obj 94 506 del 4000;
#X obj 162 504 s cforce;
#X obj 120 171 r cforce;
#X text 154 257 test;
#X text 94 617 envio drum rack sonido;
#X obj 26 240 cnv 15 586 8 empty empty empty 20 12 0 14 #e0e0e0 #404040
0;
#X obj 27 440 spigot;
#X obj 26 386 t b b;
#X msg 69 411 1;
#X msg 103 411 0;
#X text 34 9 FORCE FIELD IM;
#X obj 223 377 r controlforce;
#X obj 223 402 bng 15 250 50 0 empty empty empty 17 7 0 10 #fcfcfc
#000000 #000000;
#X text 197 257 DESTRUYE SONIDO FORCE FIELD;
#X text 240 403 recibe de IM timestrtch para desactivar sonido destruccion
alein de este IM;
#X connect 0 0 10 0;
#X connect 1 0 7 0;
#X connect 3 0 2 0;
#X connect 4 0 2 0;
#X connect 6 0 5 0;
#X connect 7 0 5 0;
#X connect 9 0 8 0;
#X connect 10 0 11 0;
#X connect 11 0 12 0;
#X connect 11 0 13 0;
#X connect 13 0 8 0;
#X connect 17 0 18 0;
#X connect 17 1 19 0;
#X connect 17 2 20 0;
#X connect 18 0 21 0;
#X connect 21 0 22 0;
#X connect 22 0 3 0;
#X connect 24 0 23 0;
#X connect 25 0 23 0;
#X connect 27 0 26 0;
#X connect 28 0 26 0;
#X connect 29 0 32 0;
#X connect 30 0 29 0;
#X connect 31 0 29 1;
#X connect 32 0 33 0;
#X connect 33 0 34 0;
#X connect 33 0 44 0;
#X connect 35 0 29 0;
#X connect 35 0 29 1;
#X connect 36 0 37 0;
#X connect 36 0 38 0;
#X connect 36 1 24 0;
#X connect 36 1 27 0;
#X connect 37 0 25 0;
#X connect 37 0 28 0;
#X connect 39 0 4 0;
#X connect 43 0 36 0;
#X connect 44 0 43 0;
#X connect 44 1 45 0;
#X connect 45 0 43 1;
#X connect 46 0 43 1;
#X connect 48 0 49 0;
#X connect 48 0 46 0;
#X restore 960 277 pd IM-Forcefield;
#X obj 750 470 r~ chanIZ;
#X obj 810 470 r~ chanDER;
#X obj 820 179 tgl 15 0 empty GCamarillo RCE 22 7 1 9 #f0c800 #000000
#ffffff 0 1;
#X text 950 330 ----> Gestos repetitivos on/off;
#N canvas 121 163 1049 671 IM-timeStretch 0;
#X text 43 43 RECIBE DE LIVE;
#X obj 43 69 notein;
#X floatatom 43 93 5 0 0 0 - - -, f 5;
#X floatatom 77 93 5 0 0 0 - - -, f 5;
#X floatatom 111 93 5 0 0 0 - - -, f 5;
#X obj 43 146 debounce 3000;
#X text 43 17 FORCE FIELD IM;
#X obj 43 403 noteout 16;
#X msg 43 343 64 127;
#X msg 94 343 64 0;
#X obj 43 240 t b b;
#X obj 43 120 sel 33;
#X obj 317 249 ctlout 30 16;
#X msg 377 163 64;
#X obj 377 189 hsl 128 15 0 127 0 0 empty empty empty -2 -8 0 10 #fcfcfc
#000000 #000000 6400 1;
#X obj 377 209 int;
#X floatatom 403 206 5 0 0 0 - - -, f 5;
#X obj 317 34 r RCEamarillo;
#X obj 317 120 maxlib/scale 0 127 64 0;
#X floatatom 326 180 5 0 0 0 - - -, f 5;
#X text 249 9 Control time;
#X obj 403 86 loadbang;
#X text 411 163 test;
#X obj 411 249 expr if( $f1 <= 1 \, 1 \, 0);
#X obj 411 283 sel 1;
#X obj 480 326 bng 22 250 50 0 empty empty empty 17 7 0 10 #fcfcfc
#000000 #000000;
#X obj 411 437 noteout 3;
#X msg 411 386 4 127;
#X msg 463 386 4 0;
#X obj 411 343 t b b b;
#X obj 43 274 s controlForce;
#X text 146 17 comment;
#X text 137 274 envia a IM forcefield;
#X text 43 420 activa musica;
#X text 411 454 sonido AI;
#X text 471 446 mejorar y cambiar po run snoidal y luego si amaizing
;
#X obj 411 309 debounce 3000;
#X obj 317 86 spigot;
#X obj 420 34 r controlStretch;
#X obj 103 197 s controlStretch;
#X msg 351 60 1;
#X msg 386 60 0;
#X text 86 240 envia Kontack trigger sound;
#X obj 602 88 spigot;
#X msg 636 63 1;
#X msg 670 63 0;
#X obj 600 206 ctlout 31 16;
#X msg 600 163 20;
#X obj 634 129 hsl 128 15 0 127 0 0 empty empty empty -2 -8 0 10 #fcfcfc
#000000 #000000 0 1;
#X obj 600 34 r RCErojo;
#X obj 686 34 r controlStretch;
#X text 600 223 Cotrol Wapr GRM canal kontack;
#X floatatom 557 86 5 0 0 0 - - -, f 5;
#X obj 636 169 int;
#X obj 790 60 loadbang;
#X msg 670 100 0;
#X connect 1 0 2 0;
#X connect 1 1 3 0;
#X connect 1 2 4 0;
#X connect 2 0 11 0;
#X connect 5 0 10 0;
#X connect 5 0 39 0;
#X connect 8 0 7 0;
#X connect 9 0 7 0;
#X connect 10 0 30 0;
#X connect 10 1 8 0;
#X connect 11 0 5 0;
#X connect 13 0 14 0;
#X connect 14 0 15 0;
#X connect 14 0 16 0;
#X connect 14 0 23 0;
#X connect 15 0 12 0;
#X connect 17 0 37 0;
#X connect 18 0 19 0;
#X connect 18 0 14 0;
#X connect 21 0 13 0;
#X connect 23 0 24 0;
#X connect 24 0 36 0;
#X connect 25 0 41 0;
#X connect 25 0 45 0;
#X connect 27 0 26 0;
#X connect 28 0 26 0;
#X connect 29 0 28 0;
#X connect 29 1 9 0;
#X connect 29 2 27 0;
#X connect 36 0 25 0;
#X connect 36 0 29 0;
#X connect 37 0 18 0;
#X connect 38 0 40 0;
#X connect 40 0 37 1;
#X connect 41 0 37 1;
#X connect 43 0 48 0;
#X connect 44 0 43 1;
#X connect 45 0 43 1;
#X connect 47 0 46 0;
#X connect 48 0 53 0;
#X connect 49 0 43 0;
#X connect 49 0 52 0;
#X connect 50 0 44 0;
#X connect 53 0 46 0;
#X connect 54 0 55 0;
#X connect 55 0 48 0;
#X restore 960 298 pd IM-timeStretch;
#X obj 820 149 tgl 15 0 empty GCrojo RCE\  25 8 0 9 #e12323 #000000
#ffffff 0 1;
#X text 950 125 ----> Gestos continuos on/off;
#N canvas 101 70 1691 580 controlgeneral 0;
#X obj 43 0 notein;
#X floatatom 43 24 5 0 0 0 - - -, f 5;
#X floatatom 77 24 5 0 0 0 - - -, f 5;
#X floatatom 111 24 5 0 0 0 - - -, f 5;
#X obj 266 146 debounce 2000;
#X obj 43 60 cnv 15 240 13 empty empty empty 20 12 0 14 #171dd9 #404040
0;
#X text 43 43 seccion Catch;
#X obj 266 60 cnv 15 197 13 empty empty empty 20 12 0 14 #171dd9 #404040
0;
#X text 266 43 seccion RCE test;
#X obj 111 266 s rapidorojo;
#X obj 86 377 s rapidoamarillo;
#X obj 86 403 s GCrojo;
#X obj 111 317 s GCamarillo;
#X msg 111 231 1;
#X msg 86 231 0;
#X obj 43 137 sel 24;
#X obj 43 163 debounce 2000;
#X obj 129 163 bng 15 250 50 0 empty empty empty 17 7 0 10 #fcfcfc
#000000 #000000;
#X obj 43 197 t b b b b, f 12;
#X obj 266 291 s rapidorojo;
#X obj 266 317 s rapidoamarillo;
#X obj 291 231 s GCrojo;
#X obj 291 257 s GCamarillo;
#X obj 266 171 t b b;
#X msg 291 206 1;
#X msg 266 206 0;
#X obj 111 291 s receiveGRC-onrojo;
#X obj 86 351 s receiveGRC-onamarillo;
#X text 351 300 deshabilitados;
#X text 351 240 habilitado;
#X obj 43 86 bng 32 250 50 0 empty empty empty 17 7 0 10 #cc94c1 #000000
#000000;
#X text 77 94 TEST sec1;
#X obj 266 86 bng 33 250 50 0 empty empty empty 17 7 0 10 #fcfcfc #000000
#000000;
#X obj 446 60 cnv 15 142 13 empty empty empty 20 12 0 14 #171dd9 #404040
0;
#X text 446 43 seccion FORCE field;
#X obj 583 60 cnv 15 240 13 empty empty empty 20 12 0 14 #171dd9 #404040
0;
#X obj 591 146 debounce 2000;
#X obj 591 171 t b b;
#X msg 617 206 1;
#X msg 591 206 0;
#X obj 591 120 sel 33;
#X obj 591 240 s GCpanelAM;
#X text 540 257 deshalilita sonido RCC amarillo;
#X text 540 274 ojo que los datos de RCC amarillo si estan activos
;
#X obj 591 309 s GCpanelRj;
#X text 523 334 deshalilita sonido RCC rojo;
#X text 523 351 ojo que los datos de RCC rojo si estan activos;
#X text 583 43 time Stretch seccion;
#X obj 591 86 bng 33 250 50 0 empty empty empty 17 7 0 10 #fcfcfc #000000
#000000;
#X obj 86 429 s GCpanelAM;
#X obj 463 111 sel 31;
#X obj 463 137 debounce 2000;
#X obj 463 163 t b b;
#X obj 540 171 bng 15 250 50 0 empty empty empty 17 7 0 10 #fcfcfc
#000000 #000000;
#X obj 857 223 s panelCsec1;
#X obj 814 60 cnv 15 172 12 empty empty empty 20 12 0 14 #d9172a #404040
0;
#X text 814 43 MUSE seccion;
#X obj 857 146 debounce 2000;
#X obj 857 171 t b b;
#X obj 857 120 sel 84;
#X obj 857 86 bng 33 250 50 0 empty empty empty 17 7 0 10 #fcfcfc #000000
#000000;
#X obj 1020 60 cnv 15 172 12 empty empty empty 20 12 0 14 #d9172a #404040
0;
#X obj 1022 147 debounce 2000;
#X obj 1022 173 t b b;
#X obj 1022 87 bng 33 250 50 0 empty empty empty 17 7 0 10 #fcfcfc
#000000 #000000;
#X text 1027 41 MUSE seccion2;
#X obj 1022 122 sel 86;
#X obj 1022 225 s panelCsec2;
#X obj 266 120 sel 42;
#X obj 1209 60 cnv 15 172 12 empty empty empty 20 12 0 14 #d9172a #404040
0;
#X obj 1209 154 debounce 2000;
#X obj 1209 180 t b b;
#X obj 1209 94 bng 33 250 50 0 empty empty empty 17 7 0 10 #fcfcfc
#000000 #000000;
#X text 1214 48 MUSE seccion3;
#X obj 1209 129 sel 87;
#X obj 1209 231 s panelCsec3;
#X connect 0 0 1 0;
#X connect 0 1 2 0;
#X connect 0 2 3 0;
#X connect 1 0 15 0;
#X connect 1 0 40 0;
#X connect 1 0 50 0;
#X connect 1 0 59 0;
#X connect 1 0 66 0;
#X connect 1 0 68 0;
#X connect 1 0 72 0;
#X connect 4 0 23 0;
#X connect 13 0 9 0;
#X connect 13 0 12 0;
#X connect 13 0 26 0;
#X connect 14 0 11 0;
#X connect 14 0 10 0;
#X connect 14 0 27 0;
#X connect 14 0 49 0;
#X connect 15 0 16 0;
#X connect 16 0 17 0;
#X connect 16 0 18 0;
#X connect 18 2 14 0;
#X connect 18 3 13 0;
#X connect 23 0 25 0;
#X connect 23 1 24 0;
#X connect 24 0 21 0;
#X connect 24 0 22 0;
#X connect 25 0 19 0;
#X connect 25 0 20 0;
#X connect 30 0 18 0;
#X connect 32 0 4 0;
#X connect 36 0 37 0;
#X connect 37 0 39 0;
#X connect 37 1 38 0;
#X connect 39 0 41 0;
#X connect 39 0 44 0;
#X connect 40 0 36 0;
#X connect 48 0 40 0;
#X connect 50 0 51 0;
#X connect 51 0 52 0;
#X connect 51 0 53 0;
#X connect 57 0 58 0;
#X connect 58 1 54 0;
#X connect 59 0 57 0;
#X connect 60 0 57 0;
#X connect 62 0 63 0;
#X connect 63 1 67 0;
#X connect 64 0 62 0;
#X connect 66 0 62 0;
#X connect 68 0 4 0;
#X connect 70 0 71 0;
#X connect 71 1 75 0;
#X connect 72 0 70 0;
#X connect 74 0 70 0;
#X restore 950 40 pd controlgeneral;
#X obj 820 105 tgl 15 0 empty rapidoamarillo RRVE 24 6 0 9 #fdff8a
#000000 #ffffff 0 1;
#X obj 950 20 cnv 15 238 15 empty empty empty 20 12 0 14 #312f2f #404040
0;
#X obj 870 80 tgl 25 0 receiveGRC-onrojo empty empty 17 7 0 10 #ff8a8a
#ffffff #000000 0 1;
#X obj 870 110 tgl 25 0 GRC-onAm empty empty 17 7 0 10 #f6fe8b #ffffff
#000000 0 1;
#X obj 870 149 tgl 25 0 GCpanelRj empty empty 17 7 0 10 #ff8a8a #ffffff
#000000 0 1;
#X obj 870 179 tgl 25 1 GCpanelAM empty empty 17 7 0 10 #f6fe8b #000000
#ffffff 0 1;
#X obj 844 537 s testOSCi9;
#X obj 820 290 bng 15 250 50 0 Conecti9 empty Conect\ I9mac 9 -24 2
14 #fcfcfc #000000 #cce2ff;
#X obj 840 290 hsl 71 13 0 127 0 0 empty empty test\ send 11 5 0 8
#d77575 #000000 #000000 0 1;
#X text 150 470 (respuesta rpida;
#X text 150 490 de velocidad y esfuerzo):;
#X text 128 507 (respuesta continua;
#X text 128 524 de esfuerzo;
#X text 128 550 (respuesta maxima;
#X text 120 567 continua de esfuerzo).;
#X text 430 490 (Respuesta movimientos;
#X text 430 510 repetitivos de esfuerzo):;
#X text 171 593 combos sincro;
#X obj 830 370 hsl 84 17 0 1 0 0 empty gainp Gain\ Audio 4 -9 0 10
#000000 #e61919 #000000 5810 1;
#X obj 950 150 cnv 15 234 8 empty empty empty 20 12 0 14 #753e3e #404040
0;
#X obj 750 562 loadbang;
#X msg 750 588 \; gainp 0.7;
#X obj 950 220 cnv 15 234 8 empty empty empty 20 12 0 14 #3f3e75 #404040
0;
#X connect 0 0 2 0;
#X connect 0 0 1 0;
#X connect 1 0 15 0;
#X connect 1 1 15 0;
#X connect 1 4 18 0;
#X connect 1 4 19 0;
#X connect 1 6 12 0;
#X connect 2 0 15 1;
#X connect 2 1 15 1;
#X connect 2 4 18 1;
#X connect 2 4 19 1;
#X connect 2 6 11 0;
#X connect 2 7 17 1;
#X connect 2 8 17 0;
#X connect 11 0 16 1;
#X connect 12 0 16 0;
#X connect 13 0 11 1;
#X connect 14 0 12 1;
#X connect 32 0 30 0;
#X connect 33 0 30 1;
#X connect 48 0 46 0;
#X connect 58 0 30 2;
#X connect 60 0 61 0;
#X coords 0 -1 1 1 872 422 2 51 7;
#X restore 26 19 pd wimumodatav3;
