#N canvas 367 148 510 590 10;
#X obj 17 26 inlet;
#X floatatom 18 130 5 0 0 0 - - -, f 5;
#X obj 68 303 spigot;
#X msg 57 217 0;
#X obj 56 193 trigger b b;
#X msg 120 222 1;
#X obj 169 201 loadbang;
#X obj 17 87 bng 15 250 50 0 empty empty empty 17 7 0 10 #fcfcfc #000000
#000000;
#X obj 137 181 bng 15 250 50 0 empty empty empty 17 7 0 10 #fcfcfc
#000000 #000000;
#X floatatom 69 418 0 0 0 0 - - -;
#X msg 67 333 bang;
#X obj 68 362 float;
#X obj 69 394 + 1;
#X obj 69 444 select 1;
#X obj 141 446 select 2;
#X floatatom 150 493 5 0 0 0 - - -, f 5;
#X msg 200 471 bang;
#X obj 72 479 bng 15 250 50 0 empty empty empty 17 7 0 10 #fcfcfc #000000
#000000;
#X obj 116 481 bng 15 250 50 0 empty empty empty 17 7 0 10 #fcfcfc
#000000 #000000;
#X obj 72 528 outlet;
#X obj 124 527 outlet;
#X text 225 199 inicializa con compuerta abierta;
#X text 203 150 retardo de compuerta;
#X text 135 76 Recive datos del touch pantalla tactil y deja pasar
solo un bang \, retarda la compuerta del spigot para que en 500 milisegundos
pueda volver dejar pasar un bang;
#X obj 187 28 inlet;
#X text 228 28 tiempo de retardo;
#X obj 137 150 delay 500;
#X connect 0 0 7 0;
#X connect 1 0 2 0;
#X connect 1 0 4 0;
#X connect 2 0 10 0;
#X connect 3 0 2 1;
#X connect 4 0 3 0;
#X connect 4 1 5 0;
#X connect 5 0 2 1;
#X connect 6 0 5 0;
#X connect 7 0 1 0;
#X connect 7 0 26 0;
#X connect 8 0 5 0;
#X connect 9 0 13 0;
#X connect 9 0 14 0;
#X connect 10 0 11 0;
#X connect 11 0 12 0;
#X connect 12 0 11 1;
#X connect 12 0 9 0;
#X connect 13 0 17 0;
#X connect 14 0 16 0;
#X connect 14 0 18 0;
#X connect 15 0 11 1;
#X connect 16 0 15 0;
#X connect 17 0 19 0;
#X connect 18 0 20 0;
#X connect 24 0 26 1;
#X connect 26 0 8 0;
