#N canvas 1 90 1439 721 12;
#X obj 900 20 inlet;
#X obj 20 700 outlet;
#X obj 900 60 nbx 6 19 -1e+37 1e+37 0 0 empty empty empty 0 -8 0 10
#fcfcfc #000000 #000000 20 256 0;
#X floatatom 20 270 5 0 0 0 - - -, f 5;
#X obj 22 338 sel 1;
#X obj 20 620 bng 71 250 50 0 empty empty empty 17 7 0 10 #fcfcfc #000000
#000000;
#X floatatom 900 250 5 0 0 0 - - -, f 5;
#X floatatom 950 250 5 0 0 0 - - -, f 5;
#X obj 900 290 &;
#X floatatom 900 330 5 0 0 0 - - -, f 5;
#X obj 900 360 sel 1;
#X obj 900 570 bng 59 250 50 0 empty empty empty 17 7 0 10 #fcfcfc
#000000 #000000;
#X obj 950 280 bng 15 250 50 0 empty empty empty 17 7 0 10 #fcfcfc
#000000 #000000;
#X floatatom 1010 100 5 0 0 0 - - -, f 5;
#X obj 900 110 int;
#X floatatom 1000 200 5 0 0 0 - - -, f 5;
#X obj 900 490 debounce 1000;
#X obj 900 690 outlet;
#X floatatom 1100 240 5 0 0 0 - - -, f 5;
#X floatatom 1150 240 5 0 0 0 - - -, f 5;
#X obj 1100 280 &;
#X floatatom 1100 320 5 0 0 0 - - -, f 5;
#X obj 1100 350 sel 1;
#X obj 1100 560 bng 56 250 50 0 empty empty empty 17 7 0 10 #fcfcfc
#000000 #000000;
#X obj 1150 270 bng 15 250 50 0 empty empty empty 17 7 0 10 #fcfcfc
#000000 #000000;
#X floatatom 1216 196 5 0 0 0 - - -, f 5;
#X obj 1095 527 debounce 1000;
#X msg 990 180 0;
#X obj 988 430 delay 1000;
#X obj 1105 667 outlet;
#X obj 20 420 debounce 2000;
#X floatatom 80 270 5 0 0 0 - - -, f 5;
#X obj 22 298 &;
#X floatatom 390 240 5 0 0 0 - - -, f 5;
#X obj 390 320 sel 1;
#X floatatom 450 240 5 0 0 0 - - -, f 5;
#X obj 390 280 &;
#X obj 390 210 > 600;
#X obj 450 210 < 700;
#X obj 380 660 outlet;
#X obj 375 560 bng 71 250 50 0 empty empty empty 17 7 0 10 #fcfcfc
#000000 #000000;
#X obj 20 20 inlet;
#X obj 390 370 spigot;
#X floatatom 510 200 5 0 0 0 - - -, f 5;
#X floatatom 510 270 5 0 0 0 - - -, f 5;
#X obj 500 300 sel 1;
#X msg 500 330 0;
#X floatatom 560 270 5 0 0 0 - - -, f 5;
#X obj 560 300 sel 1;
#X msg 560 330 1;
#X floatatom 150 200 5 0 0 0 - - -, f 5;
#X floatatom 150 270 5 0 0 0 - - -, f 5;
#X obj 150 300 sel 1;
#X msg 150 330 0;
#X floatatom 200 270 5 0 0 0 - - -, f 5;
#X obj 210 300 sel 1;
#X msg 210 330 1;
#X obj 200 240 < 300;
#X obj 20 380 spigot;
#X obj 80 226 < 2500;
#X obj 22 228 > 2000;
#X obj 240 390 delay 1500;
#X obj 260 350 t b b;
#X text 470 0 Se ajusta los valores en 4 segmentos de acuerdo al tiempo
velo" que es el tiempo entre los bnag del objeto timer \,;
#X text 480 515 GESTO PARIDO 2;
#X obj 60 140 nbx 5 14 -1e+37 1e+37 0 0 empty empty empty 0 -8 0 10
#fcfcfc #000000 #000000 394 256 0;
#X obj 120 140 nbx 5 14 -1e+37 1e+37 0 0 empty empty empty 0 -8 0 10
#fcfcfc #000000 #000000 1500 256 0;
#X obj 420 135 nbx 5 14 -1e+37 1e+37 0 0 empty empty empty 0 -8 0 10
#fcfcfc #000000 #000000 347 256 0;
#X obj 479 134 nbx 5 14 -1e+37 1e+37 0 0 empty empty empty 0 -8 0 10
#fcfcfc #000000 #000000 547 256 0;
#X obj 670 430 tolist;
#X obj 710 360 bng 25 250 50 0 snd_ajus empty empty 0 -6 0 10 #00fc04
#000000 #000000;
#X msg 705 312 bang;
#X obj 671 461 minmax;
#X obj 710 230 t b b;
#X obj 700 160 bng 15 250 50 0 empty empty empty 17 7 0 10 #fcfcfc
#000000 #000000;
#X obj 710 390 t b b;
#X floatatom 660 530 5 0 0 0 - - -, f 5;
#X floatatom 730 530 5 0 0 0 - - -, f 5;
#X obj 710 280 delay 3000;
#X text 70 20 entrada de mmgval sin filtro;
#X obj 421 81 * 0.2;
#X obj 255 65 nbx 5 32 -1e+37 1e+37 0 0 empty empty empty 0 -8 0 10
#fcfcfc #000000 #000000 425.667 256 0;
#X obj 100 110 + 1500;
#X text 100 610 GESTO MAS RAPIDO 1;
#X text 100 640 comax raw ajusta los rangos es ideal \; que los valores
no pasen de mx 2000 \; ;
#X text 90 250 max;
#X text 30 250 min;
#X text 100 680 se hace compuerta para que no detecte \; mov rapidos
en el esfuerzo sostenido.;
#X text 150 110 ajuste de umbrales;
#X text 620 70 PARA ajustar MIN MAX DE VELOCIDAD;
#X text 600 570 valores min max de velocidad;
#X text 650 120 recibe de interfaz boton;
#X text 550 50 comment;
#X text 1170 560 finalmente se dejan dos disparadores \; por tiempo
\, los mas lentos. \; para poder activarlos mirar EMG array \; y
crear un pico hacia al mitad;
#X text 990 60 tiempo de mov.;
#X obj 900 150 cnv 15 351 14 empty empty empty 20 12 0 14 #4077bf #404040
0;
#X obj 380 150 cnv 15 227 14 empty empty empty 20 12 0 14 #4077bf #404040
0;
#X obj 20 159 cnv 15 227 14 empty empty empty 20 12 0 14 #4077bf #404040
0;
#X text 20 730 Los gestos mas rapidos se hacen con EMG raw en lugar
de timepo;
#X floatatom 630 390 5 0 0 0 - - -, f 5;
#X obj 610 270 loadbang;
#X obj 270 300 loadbang;
#X floatatom 1285 208 5 0 0 0 - - -, f 5;
#X floatatom 1285 278 5 0 0 0 - - -, f 5;
#X obj 1275 308 sel 1;
#X floatatom 1335 278 5 0 0 0 - - -, f 5;
#X obj 1335 308 sel 1;
#X obj 1335 248 < 300;
#X obj 1285 248 > 130;
#X obj 900 410 spigot;
#X obj 1100 410 spigot;
#X obj 650 500 s minraw2;
#X obj 720 500 s maxraw2;
#X obj 60 80 r maxraw2;
#X obj 421 51 r maxraw2;
#X obj 1285 178 r mmgvalfiltro2;
#X obj 630 340 r mmgval2;
#X obj 150 180 r mmgvalfiltro2;
#X obj 510 170 r mmgvalfiltro2;
#X obj 150 240 > 150;
#X obj 730 430 s sfxrawcaliamarillo;
#X obj 701 101 r caliamarilloraw;
#X obj 900 220 > 90;
#X obj 1100 210 > 300;
#X obj 1150 210 < 500;
#X obj 1100 170 clip 290 550;
#X msg 1275 338 0;
#X msg 1335 338 1;
#X obj 950 220 < 170;
#X obj 900 180 clip 70 200;
#X msg 1110 60 150;
#X obj 560 240 < 350;
#X obj 510 240 > 130;
#X obj 465 80 bng 15 250 50 0 empty empty empty 17 7 0 10 #fcfcfc #000000
#000000;
#X floatatom 440 340 5 0 0 0 - - -, f 5;
#X obj 420 170 int;
#X obj 466 171 int;
#X floatatom 240 490 5 0 0 0 - - -, f 5;
#X obj 240 520 sel 1;
#X obj 245 545 debounce 1000;
#X obj 245 459 > 400;
#X obj 515 430 bng 38 250 50 0 delayrojox empty empty 17 7 0 10 #fcfcfc
#000000 #000000;
#X obj 390 420 debounce 1000;
#X obj 509 388 delay 1000;
#X obj 480 101 + 200;
#X obj 165 75 bng 15 250 50 0 empty empty empty 17 7 0 10 #fcfcfc #000000
#000000;
#X obj 60 110 * 0.5;
#X connect 0 0 2 0;
#X connect 2 0 14 0;
#X connect 3 0 32 0;
#X connect 4 0 58 0;
#X connect 5 0 1 0;
#X connect 6 0 8 0;
#X connect 7 0 8 1;
#X connect 7 0 12 0;
#X connect 8 0 9 0;
#X connect 9 0 10 0;
#X connect 10 0 109 0;
#X connect 11 0 17 0;
#X connect 12 0 6 0;
#X connect 13 0 122 0;
#X connect 13 0 128 0;
#X connect 14 0 125 0;
#X connect 14 0 122 0;
#X connect 14 0 128 0;
#X connect 16 0 11 0;
#X connect 18 0 20 0;
#X connect 19 0 20 1;
#X connect 19 0 24 0;
#X connect 20 0 21 0;
#X connect 21 0 22 0;
#X connect 22 0 110 0;
#X connect 23 0 29 0;
#X connect 24 0 18 0;
#X connect 26 0 23 0;
#X connect 27 0 6 0;
#X connect 27 0 7 0;
#X connect 28 0 27 0;
#X connect 30 0 5 0;
#X connect 31 0 32 1;
#X connect 32 0 4 0;
#X connect 33 0 36 0;
#X connect 34 0 42 0;
#X connect 34 0 61 0;
#X connect 34 0 62 0;
#X connect 35 0 36 1;
#X connect 36 0 34 0;
#X connect 36 0 134 0;
#X connect 37 0 33 0;
#X connect 38 0 35 0;
#X connect 40 0 39 0;
#X connect 41 0 81 0;
#X connect 41 0 59 0;
#X connect 41 0 60 0;
#X connect 41 0 37 0;
#X connect 41 0 38 0;
#X connect 42 0 142 0;
#X connect 42 0 143 0;
#X connect 43 0 131 0;
#X connect 43 0 132 0;
#X connect 44 0 45 0;
#X connect 45 0 46 0;
#X connect 46 0 42 1;
#X connect 47 0 48 0;
#X connect 48 0 49 0;
#X connect 49 0 42 1;
#X connect 50 0 57 0;
#X connect 50 0 119 0;
#X connect 51 0 52 0;
#X connect 52 0 53 0;
#X connect 53 0 58 1;
#X connect 54 0 55 0;
#X connect 55 0 56 0;
#X connect 56 0 58 1;
#X connect 57 0 54 0;
#X connect 58 0 30 0;
#X connect 59 0 31 0;
#X connect 60 0 3 0;
#X connect 61 0 56 0;
#X connect 62 1 53 0;
#X connect 65 0 60 1;
#X connect 66 0 59 1;
#X connect 67 0 135 0;
#X connect 68 0 136 0;
#X connect 69 0 72 0;
#X connect 70 0 75 0;
#X connect 71 0 69 0;
#X connect 72 0 76 0;
#X connect 72 0 111 0;
#X connect 72 1 77 0;
#X connect 72 1 112 0;
#X connect 73 0 78 0;
#X connect 73 1 71 0;
#X connect 74 0 73 0;
#X connect 75 0 69 1;
#X connect 75 1 120 0;
#X connect 78 0 70 0;
#X connect 80 0 67 0;
#X connect 80 0 144 0;
#X connect 81 0 140 0;
#X connect 82 0 66 0;
#X connect 100 0 49 0;
#X connect 101 0 56 0;
#X connect 102 0 107 0;
#X connect 102 0 108 0;
#X connect 103 0 104 0;
#X connect 104 0 126 0;
#X connect 105 0 106 0;
#X connect 106 0 127 0;
#X connect 107 0 105 0;
#X connect 108 0 103 0;
#X connect 109 0 16 0;
#X connect 109 0 28 0;
#X connect 110 0 26 0;
#X connect 113 0 146 0;
#X connect 114 0 80 0;
#X connect 115 0 102 0;
#X connect 116 0 69 0;
#X connect 116 0 99 0;
#X connect 117 0 50 0;
#X connect 118 0 43 0;
#X connect 119 0 51 0;
#X connect 121 0 74 0;
#X connect 122 0 6 0;
#X connect 123 0 18 0;
#X connect 124 0 19 0;
#X connect 125 0 25 0;
#X connect 125 0 123 0;
#X connect 125 0 124 0;
#X connect 126 0 109 1;
#X connect 126 0 110 1;
#X connect 127 0 109 1;
#X connect 127 0 110 1;
#X connect 128 0 7 0;
#X connect 129 0 15 0;
#X connect 129 0 122 0;
#X connect 129 0 128 0;
#X connect 130 0 14 0;
#X connect 131 0 47 0;
#X connect 132 0 44 0;
#X connect 133 0 80 0;
#X connect 135 0 37 1;
#X connect 136 0 38 1;
#X connect 137 0 138 0;
#X connect 138 0 139 0;
#X connect 140 0 137 0;
#X connect 142 0 40 0;
#X connect 143 0 141 0;
#X connect 144 0 68 0;
#X connect 145 0 146 0;
#X connect 146 0 65 0;
#X connect 146 0 82 0;
