#N canvas 1 28 1439 702 12;
#X obj 900 20 inlet;
#X obj 20 700 outlet;
#X obj 900 60 nbx 6 19 -1e+37 1e+37 0 0 empty empty empty 0 -8 0 10
#fcfcfc #000000 #000000 800.991 256 0;
#X floatatom 20 270 5 0 0 0 - - -, f 5;
#X obj 22 338 sel 1;
#X obj 20 620 bng 71 250 50 0 empty empty empty 17 7 0 10 #fcfcfc #000000
#000000;
#X floatatom 900 250 5 0 0 0 - - -, f 5;
#X floatatom 950 250 5 0 0 0 - - -, f 5;
#X obj 900 290 &;
#X floatatom 900 330 5 0 0 0 - - -, f 5;
#X obj 900 360 sel 1;
#X obj 900 570 bng 59 250 50 0 empty empty empty 17 7 0 10 #fcfcfc
#000000 #000000;
#X obj 950 280 bng 15 250 50 0 empty empty empty 17 7 0 10 #fcfcfc
#000000 #000000;
#X floatatom 900 120 5 0 0 0 - - -, f 5;
#X obj 900 90 int;
#X floatatom 1000 200 5 0 0 0 - - -, f 5;
#X obj 900 490 debounce 1000;
#X obj 900 690 outlet;
#X floatatom 1100 240 5 0 0 0 - - -, f 5;
#X floatatom 1150 240 5 0 0 0 - - -, f 5;
#X obj 1100 280 &;
#X floatatom 1100 320 5 0 0 0 - - -, f 5;
#X obj 1100 350 sel 1;
#X obj 1100 560 bng 56 250 50 0 empty empty empty 17 7 0 10 #fcfcfc
#000000 #000000;
#X obj 1150 270 bng 15 250 50 0 empty empty empty 17 7 0 10 #fcfcfc
#000000 #000000;
#X floatatom 1216 196 5 0 0 0 - - -, f 5;
#X obj 1095 527 debounce 1000;
#X msg 990 180 0;
#X obj 988 430 delay 1000;
#X obj 1105 667 outlet;
#X obj 20 420 debounce 2000;
#X floatatom 80 270 5 0 0 0 - - -, f 5;
#X obj 22 298 &;
#X floatatom 390 240 5 0 0 0 - - -, f 5;
#X obj 390 320 sel 1;
#X floatatom 450 240 5 0 0 0 - - -, f 5;
#X obj 390 280 &;
#X obj 390 210 > 600;
#X obj 450 210 < 700;
#X obj 415 735 outlet;
#X obj 415 625 bng 71 250 50 0 empty empty empty 17 7 0 10 #fcfcfc
#000000 #000000;
#X obj 20 20 inlet;
#X obj 390 370 spigot;
#X floatatom 510 200 5 0 0 0 - - -, f 5;
#X floatatom 510 270 5 0 0 0 - - -, f 5;
#X obj 500 300 sel 1;
#X msg 500 330 0;
#X floatatom 560 270 5 0 0 0 - - -, f 5;
#X obj 560 300 sel 1;
#X msg 560 330 1;
#X floatatom 150 200 5 0 0 0 - - -, f 5;
#X floatatom 150 270 5 0 0 0 - - -, f 5;
#X obj 150 300 sel 1;
#X msg 150 330 0;
#X floatatom 200 270 5 0 0 0 - - -, f 5;
#X obj 210 300 sel 1;
#X msg 210 330 1;
#X obj 200 240 < 300;
#X obj 20 380 spigot;
#X obj 80 226 < 2500;
#X obj 22 228 > 2000;
#X obj 240 390 delay 1500;
#X obj 260 350 t b b;
#X text 470 0 Se ajusta los valores en 4 segmentos de acuerdo al tiempo
velo" que es el tiempo entre los bnag del objeto timer \,;
#X obj 480 101 + 100;
#X obj 60 140 nbx 5 14 -1e+37 1e+37 0 0 empty empty empty 0 -8 0 10
#fcfcfc #000000 #000000 811.5 256 0;
#X obj 120 140 nbx 5 14 -1e+37 1e+37 0 0 empty empty empty 0 -8 0 10
#fcfcfc #000000 #000000 2311.5 256 0;
#X obj 421 121 nbx 5 14 -1e+37 1e+37 0 0 empty empty empty 0 -8 0 10
#fcfcfc #000000 #000000 324.6 256 0;
#X obj 480 120 nbx 5 14 -1e+37 1e+37 0 0 empty empty empty 0 -8 0 10
#fcfcfc #000000 #000000 424.6 256 0;
#X obj 670 430 tolist;
#X obj 710 360 bng 25 250 50 0 snd_ajus empty empty 0 -6 0 10 #00fc04
#000000 #000000;
#X msg 705 312 bang;
#X obj 671 461 minmax;
#X obj 710 230 t b b;
#X obj 710 180 bng 15 250 50 0 empty empty empty 17 7 0 10 #fcfcfc
#000000 #000000;
#X obj 710 390 t b b;
#X floatatom 660 530 5 0 0 0 - - -, f 5;
#X floatatom 730 530 5 0 0 0 - - -, f 5;
#X obj 710 280 delay 3000;
#X text 70 20 entrada de mmgval sin filtro;
#X obj 421 81 * 0.2;
#X obj 50 40 nbx 4 25 -1e+37 1e+37 0 0 empty empty empty 0 -8 0 10
#fcfcfc #000000 #000000 45 256 0;
#X obj 560 240 < 300;
#X obj 60 110 * 0.5;
#X obj 950 220 < 70;
#X obj 900 220 > 50;
#X obj 900 180 clip 45 80;
#X obj 1100 210 > 80;
#X obj 1150 210 < 110;
#X obj 1100 170 clip 70 120;
#X obj 100 110 + 1500;
#X text 100 640 comax raw ajusta los rangos es ideal \; que los valores
no pasen de mx 2000 \; ;
#X text 90 250 max;
#X text 30 250 min;
#X text 100 680 se hace compuerta para que no detecte \; mov rapidos
en el esfuerzo sostenido.;
#X text 150 110 ajuste de umbrales;
#X text 620 560 valores min max de velocidad;
#X text 670 130 recibe de interfaz boton;
#X text 1170 560 finalmente se dejan dos disparadores \; por tiempo
\, los mas lentos. \; para poder activarlos mirar EMG array \; y
crear un pico hacia al mitad;
#X text 990 60 tiempo de mov.;
#X obj 900 150 cnv 15 351 14 empty empty empty 20 12 0 14 #4077bf #404040
0;
#X obj 380 150 cnv 15 227 14 empty empty empty 20 12 0 14 #4077bf #404040
0;
#X obj 20 159 cnv 15 227 14 empty empty empty 20 12 0 14 #4077bf #404040
0;
#X text 20 730 Los gestos mas rapidos se hacen con EMG raw en lugar
de timepo;
#X floatatom 630 390 5 0 0 0 - - -, f 5;
#X obj 610 270 loadbang;
#X obj 270 300 loadbang;
#X obj 510 170 r mmgvalfiltro;
#X obj 150 180 r mmgvalfiltro;
#X obj 150 240 > 130;
#X obj 510 240 > 130;
#X floatatom 1285 208 5 0 0 0 - - -, f 5;
#X floatatom 1285 278 5 0 0 0 - - -, f 5;
#X obj 1275 308 sel 1;
#X msg 1275 338 0;
#X floatatom 1335 278 5 0 0 0 - - -, f 5;
#X obj 1335 308 sel 1;
#X msg 1335 338 1;
#X obj 1335 248 < 300;
#X obj 1285 248 > 130;
#X obj 900 410 spigot;
#X obj 1100 410 spigot;
#X obj 60 80 r maxraw;
#X obj 421 51 r maxraw;
#X obj 1285 178 r mmgvalfiltro;
#X obj 650 500 s minraw;
#X obj 720 500 s maxraw;
#X obj 710 100 r calirojoraw;
#X obj 740 430 s sfxrawcalirojo;
#X obj 630 340 r mmgval;
#X obj 415 560 debounce 1000;
#X obj 525 385 bng 15 250 50 0 empty empty empty 17 7 0 10 #fcfcfc
#000000 #000000;
#X obj 515 415 del 1000;
#X obj 545 445 s delayrojo1x;
#X obj 885 150 cnv 15 9 574 empty empty empty 20 12 0 14 #3292cd #404040
0;
#X text 590 75 PARA ajustar rango MIN MAX DE VELOCIDAD;
#X text 505 625 VELOCIDAD NIVEL 2;
#X text 100 610 VELOCIDAD NIVEL 1;
#X connect 0 0 2 0;
#X connect 2 0 14 0;
#X connect 3 0 32 0;
#X connect 4 0 58 0;
#X connect 5 0 1 0;
#X connect 6 0 8 0;
#X connect 7 0 8 1;
#X connect 7 0 12 0;
#X connect 8 0 9 0;
#X connect 9 0 10 0;
#X connect 10 0 120 0;
#X connect 12 0 6 0;
#X connect 13 0 84 0;
#X connect 13 0 85 0;
#X connect 14 0 86 0;
#X connect 14 0 89 0;
#X connect 16 0 11 0;
#X connect 18 0 20 0;
#X connect 19 0 20 1;
#X connect 19 0 24 0;
#X connect 20 0 21 0;
#X connect 21 0 22 0;
#X connect 22 0 121 0;
#X connect 24 0 18 0;
#X connect 26 0 23 0;
#X connect 27 0 6 0;
#X connect 27 0 7 0;
#X connect 28 0 27 0;
#X connect 30 0 5 0;
#X connect 31 0 32 1;
#X connect 32 0 4 0;
#X connect 33 0 36 0;
#X connect 34 0 42 0;
#X connect 34 0 61 0;
#X connect 34 0 62 0;
#X connect 35 0 36 1;
#X connect 36 0 34 0;
#X connect 37 0 33 0;
#X connect 38 0 35 0;
#X connect 40 0 39 0;
#X connect 41 0 81 0;
#X connect 41 0 60 0;
#X connect 41 0 37 0;
#X connect 41 0 59 0;
#X connect 41 0 38 0;
#X connect 42 0 130 0;
#X connect 42 0 131 0;
#X connect 43 0 82 0;
#X connect 43 0 110 0;
#X connect 44 0 45 0;
#X connect 45 0 46 0;
#X connect 46 0 42 1;
#X connect 47 0 48 0;
#X connect 48 0 49 0;
#X connect 49 0 42 1;
#X connect 50 0 57 0;
#X connect 50 0 109 0;
#X connect 51 0 52 0;
#X connect 52 0 53 0;
#X connect 53 0 58 1;
#X connect 54 0 55 0;
#X connect 55 0 56 0;
#X connect 56 0 58 1;
#X connect 57 0 54 0;
#X connect 58 0 30 0;
#X connect 59 0 31 0;
#X connect 60 0 3 0;
#X connect 61 0 56 0;
#X connect 62 1 53 0;
#X connect 64 0 68 0;
#X connect 65 0 60 1;
#X connect 66 0 59 1;
#X connect 67 0 37 1;
#X connect 68 0 38 1;
#X connect 69 0 72 0;
#X connect 70 0 75 0;
#X connect 71 0 69 0;
#X connect 72 0 76 0;
#X connect 72 0 125 0;
#X connect 72 1 77 0;
#X connect 72 1 126 0;
#X connect 73 0 78 0;
#X connect 73 1 71 0;
#X connect 74 0 73 0;
#X connect 75 0 69 1;
#X connect 75 1 128 0;
#X connect 78 0 70 0;
#X connect 80 0 64 0;
#X connect 80 0 67 0;
#X connect 82 0 47 0;
#X connect 83 0 65 0;
#X connect 83 0 90 0;
#X connect 84 0 7 0;
#X connect 85 0 6 0;
#X connect 86 0 15 0;
#X connect 86 0 84 0;
#X connect 86 0 85 0;
#X connect 87 0 18 0;
#X connect 88 0 19 0;
#X connect 89 0 25 0;
#X connect 89 0 87 0;
#X connect 89 0 88 0;
#X connect 90 0 66 0;
#X connect 105 0 49 0;
#X connect 106 0 56 0;
#X connect 107 0 43 0;
#X connect 108 0 50 0;
#X connect 109 0 51 0;
#X connect 110 0 44 0;
#X connect 111 0 118 0;
#X connect 111 0 119 0;
#X connect 112 0 113 0;
#X connect 113 0 114 0;
#X connect 114 0 120 1;
#X connect 114 0 121 1;
#X connect 115 0 116 0;
#X connect 116 0 117 0;
#X connect 117 0 120 1;
#X connect 117 0 121 1;
#X connect 118 0 115 0;
#X connect 119 0 112 0;
#X connect 120 0 16 0;
#X connect 120 0 28 0;
#X connect 121 0 26 0;
#X connect 122 0 83 0;
#X connect 123 0 80 0;
#X connect 124 0 111 0;
#X connect 127 0 74 0;
#X connect 129 0 69 0;
#X connect 129 0 104 0;
#X connect 130 0 40 0;
#X connect 131 0 132 0;
#X connect 132 0 133 0;
